ParastooLatin.glyphspackage
{
glyphname = exclam;
layers = (
{
layerId = m01;
shapes = (
{
closed = 1;
nodes = (
(469.554,1,o),
(468.526,267,o),
(293,267,cs),
(218.333,267,o),
(158,207.667,o),
(158,133,cs),
(158,61.023,o),
(219.781,1,o),
(293,1,cs)
);
},
{
closed = 1;
nodes = (
(219.667,1525,o),
(191,1464,o),
(191,1342,cs),
(191,1306,o),
(193,1267.333,o),
(197,1226,cs),
(265,515,ls),
(265.667,507,o),
(276.667,503,o),
(298,503,cs),
(318,503,o),
(328.333,507,o),
(329,515,cs),
(388,1226,ls),
(392,1263.333,o),
(393,1299,o),
(393,1331,cs),
(393,1460.333,o),
(364,1525,o),
(306,1525,cs),
(277,1525,l),
(277,1525,l)
);
}
);
userData = {
assembly = "NPUSHB[ ]	/* 38 values pushed */
0 3 2 1 2 3 1 126 4 1 2 2 34 75 0 1 1 0 95 0 0 0 33 0 76 13 12 21 20 12 28 13 27 37 34 5 8 22
CALL[ ]	/* CallFunction */";
};
width = 585;
},
{
layerId = "01037D14-118B-4CC1-B98A-141C2A413BDA";
shapes = (
{
closed = 1;
nodes = (
(431,75.333,o),
(446,111,o),
(446,153,cs),
(446,195,o),
(431,230.667,o),
(401,260,cs),
(371.667,288.667,o),
(335.667,303,o),
(293,303,cs),
(251,303,o),
(215.333,288.667,o),
(186,260,cs),
(156.667,230.667,o),
(141.667,195,o),
(141,153,cs),
(140.333,113,o),
(155,77.667,o),
(185,47,cs),
(215,17,o),
(251.167,2,o),
(293.5,2,cs),
(335.833,2,o),
(371.667,16.667,o),
(401,46,cs)
);
},
{
closed = 1;
nodes = (
(450.667,1437,o),
(410.667,1543,o),
(306,1543,cs),
(277,1543,ls),
(171,1543,o),
(131.667,1436.667,o),
(159,1224,cs),
(247,543,ls),
(249.667,525,o),
(267.667,515.667,o),
(301,515,cs),
(329,514.333,o),
(344.333,524,o),
(347,544,cs),
(426,1225,l),
(426,1225,l)
);
}
);
userData = {
assembly = "NPUSHB[ ]	/* 28 values pushed */
0 2 2 3 95 0 3 3 34 75 0 1 1 0 95 0 0 0 33 0 76 51 39 38 17 4 8 24
CALL[ ]	/* CallFunction */";
};
width = 586;
}
);
note = exclam;
unicode = 33;
}
{
glyphname = quotedbl;
kernLeft = quotedbl;
kernRight = quotedbl;
layers = (
{
layerId = m01;
shapes = (
{
alignment = -1;
pos = (8,0);
ref = quotesingle;
scale = (0.934,1);
},
{
alignment = -1;
pos = (301,0);
ref = quotesingle;
scale = (0.934,1);
}
);
width = 709;
},
{
layerId = "01037D14-118B-4CC1-B98A-141C2A413BDA";
shapes = (
{
closed = 1;
nodes = (
(286,1467,l),
(88,1467,l),
(105,1006,l),
(269,1006,l),
(269,1006,l)
);
},
{
closed = 1;
nodes = (
(579,1467,l),
(381,1467,l),
(398,1006,l),
(562,1006,l),
(562,1006,l)
);
}
);
userData = {
assembly = "NPUSHB[ ]	/* 33 values pushed */
5 3 4 3 1 1 0 93 2 1 0 0 32 1 76 4 4 0 0 4 7 4 7 6 5 0 3 0 3 17 6 8 21
CALL[ ]	/* CallFunction */";
};
width = 667;
}
);
note = quotedbl;
unicode = 34;
}
{
glyphname = numbersign;
layers = (
{
layerId = m01;
shapes = (
{
closed = 1;
nodes = (
(552,365,l),
(981,365,l),
(888,-33,l),
(1036,-33,l),
(1126,365,l),
(1463,365,l),
(1495,487,l),
(1153,487,l),
(1260,961,l),
(1600,961,l),
(1631,1081,l),
(1631,1083,l),
(1288,1083,l),
(1376,1467,l),
(1241,1467,l),
(1150,1083,l),
(715,1083,l),
(803,1467,l),
(668,1467,l),
(577,1083,l),
(236,1083,l),
(203,961,l),
(548,961,l),
(436,487,l),
(101,487,l),
(68,365,l),
(408,365,l),
(315,-33,l),
(462,-33,l),
(462,-33,l)
);
},
{
closed = 1;
nodes = (
(1121,961,l),
(1009,487,l),
(579,487,l),
(687,961,l),
(687,961,l)
);
}
);
userData = {
assembly = "NPUSHB[ ]	/* 68 values pushed */
7 5 2 3 15 8 2 2 1 3 2 102 14 9 2 1 12 10 2 0 11 1 0 101 6 1 4 4 32 75 16 13 2 11 11 33 11 76 0 0 32 31 30 29 0 28 0 28 27 26 25 24 23 22 21 20 18 17 17 17 17 17 17 17 17 17 8 29
CALL[ ]	/* CallFunction */";
};
width = 1700;
},
{
layerId = "01037D14-118B-4CC1-B98A-141C2A413BDA";
shapes = (
{
closed = 1;
nodes = (
(629,315,l),
(978,315,l),
(895,-33,l),
(1113,-33,l),
(1193,315,l),
(1530,315,l),
(1572,497,l),
(1230,497,l),
(1327,901,l),
(1667,901,l),
(1708,1081,l),
(1708,1083,l),
(1365,1083,l),
(1453,1467,l),
(1248,1467,l),
(1157,1083,l),
(802,1083,l),
(890,1467,l),
(685,1467,l),
(594,1083,l),
(253,1083,l),
(210,901,l),
(555,901,l),
(453,497,l),
(118,497,l),
(75,315,l),
(415,315,l),
(332,-33,l),
(549,-33,l),
(549,-33,l)
);
},
{
closed = 1;
nodes = (
(1118,901,l),
(1016,497,l),
(666,497,l),
(764,901,l),
(764,901,l)
);
}
);
userData = {
assembly = "NPUSHB[ ]	/* 68 values pushed */
7 5 2 3 15 8 2 2 1 3 2 102 14 9 2 1 12 10 2 0 11 1 0 101 6 1 4 4 32 75 16 13 2 11 11 33 11 76 0 0 32 31 30 29 0 28 0 28 27 26 25 24 23 22 21 20 18 17 17 17 17 17 17 17 17 17 8 29
CALL[ ]	/* CallFunction */";
};
width = 1784;
}
);
note = numbersign;
unicode = 35;
}
{
glyphname = percent;
layers = (
{
layerId = m01;
shapes = (
{
closed = 1;
nodes = (
(250,1206.92,o),
(292.404,1394,o),
(447,1394,cs),
(598.747,1394,o),
(645,1196.286,o),
(645,1056,cs),
(645,932.248,o),
(600.42,767,o),
(451,767,cs),
(290.326,767,o),
(250,967.425,o),
(250,1103,cs)
);
},
{
closed = 1;
nodes = (
(251,37,l),
(338,-35,l),
(1500,1385,l),
(1407,1467,l),
(1407,1467,l)
);
},
{
closed = 1;
nodes = (
(74,872.142,o),
(201.448,687,o),
(445,687,cs),
(653,687,o),
(821,877,o),
(821,1089,cs),
(821,1278.555,o),
(698.149,1472.329,o),
(445,1467,cs),
(205.825,1461.685,o),
(74,1263.23,o),
(74,1070,cs)
);
},
{
closed = 1;
nodes = (
(1534,224.11,o),
(1494.501,41,o),
(1342,41,cs),
(1189.6,41,o),
(1139,240.467,o),
(1139,379,cs),
(1139,507.499,o),
(1185.006,667,o),
(1333,667,cs),
(1410.992,667,o),
(1463.243,619.241,o),
(1494,548.5,cs),
(1525.027,477.139,o),
(1534,396.762,o),
(1534,331,cs)
);
},
{
closed = 1;
nodes = (
(1710,563.452,o),
(1581.903,747,o),
(1340,747,cs),
(1132.528,747,o),
(961,557.399,o),
(961,346,cs),
(961,154.019,o),
(1088.918,-38.286,o),
(1340,-33,cs),
(1581,-30.322,o),
(1710,175.593,o),
(1710,364,cs)
);
}
);
userData = {
assembly = "NPUSHB[ ]	/* 58 values pushed */
22 1 6 5 1 74 23 1 2 72 0 0 0 3 4 0 3 103 0 7 0 4 5 7 4 103 0 1 1 2 95 0 2 2 40 75 0 5 5 6 95 0 6 6 41 6 76 40 40 40 42 40 44 40 36 8 8 28
CALL[ ]	/* CallFunction */";
};
width = 1782;
},
{
layerId = "01037D14-118B-4CC1-B98A-141C2A413BDA";
shapes = (
{
closed = 1;
nodes = (
(335,1165.322,o),
(363.293,1309,o),
(469,1309,cs),
(573.863,1309,o),
(604,1151.205,o),
(604,1047,cs),
(604,947.825,o),
(571.162,829,o),
(473,829,cs),
(361.652,829,o),
(335,986.411,o),
(335,1089,cs)
);
},
{
closed = 1;
nodes = (
(262,90,l),
(395,-34,l),
(1578,1332,l),
(1429,1467,l),
(1429,1467,l)
);
},
{
closed = 1;
nodes = (
(84,859.109,o),
(217.125,665,o),
(472,665,cs),
(688.934,665,o),
(855,863.015,o),
(855,1077,cs),
(855,1266.93,o),
(718.267,1467,o),
(472,1467,cs),
(226.378,1467,o),
(84,1250.798,o),
(84,1059,cs)
);
},
{
closed = 1;
nodes = (
(1250,467.322,o),
(1278.293,611,o),
(1384,611,cs),
(1488.863,611,o),
(1519,453.205,o),
(1519,349,cs),
(1519,249.825,o),
(1486.162,131,o),
(1388,131,cs),
(1276.652,131,o),
(1250,288.411,o),
(1250,391,cs)
);
},
{
closed = 1;
nodes = (
(999,161.109,o),
(1132.125,-33,o),
(1387,-33,cs),
(1603.934,-33,o),
(1770,165.015,o),
(1770,379,cs),
(1770,568.93,o),
(1633.267,769,o),
(1387,769,cs),
(1145.12,769,o),
(999,556.209,o),
(999,361,cs)
);
}
);
userData = {
assembly = "NPUSHB[ ]	/* 62 values pushed */
22 1 7 4 1 74 23 1 2 72 21 1 7 71 0 0 0 3 5 0 3 103 0 6 0 5 4 6 5 103 0 1 1 2 95 0 2 2 40 75 0 4 4 7 95 0 7 7 41 7 76 40 40 40 40 40 44 40 36 8 8 28
CALL[ ]	/* CallFunction */";
};
width = 1852;
}
);
note = percent;
unicode = 37;
}
{
glyphname = quotesingle;
kernLeft = quotedbl;
kernRight = quotedbl;
layers = (
{
layerId = m01;
shapes = (
{
closed = 1;
nodes = (
(299,1467,l),
(127,1467,l),
(146,1006,l),
(281,1006,l),
(281,1006,l)
);
}
);
userData = {
assembly = "NPUSHB[ ]	/* 22 values pushed */
2 1 1 1 0 93 0 0 0 32 1 76 0 0 0 3 0 3 17 3 8 21
CALL[ ]	/* CallFunction */";
};
width = 426;
},
{
layerId = "01037D14-118B-4CC1-B98A-141C2A413BDA";
shapes = (
{
closed = 1;
nodes = (
(299,1467,l),
(87,1467,l),
(106,1006,l),
(281,1006,l),
(281,1006,l)
);
}
);
userData = {
assembly = "NPUSHB[ ]	/* 22 values pushed */
2 1 1 1 0 93 0 0 0 32 1 76 0 0 0 3 0 3 17 3 8 21
CALL[ ]	/* CallFunction */";
};
width = 386;
}
);
note = quotesingle;
unicode = 39;
}
{
glyphname = parenright;
layers = (
{
layerId = m01;
shapes = (
{
closed = 1;
nodes = (
(346,124,o),
(249,-225.333,o),
(37,-508,c),
(88,-555,l),
(190.102,-462.908,o),
(304.191,-308.111,o),
(396.5,-122.5,cs),
(487.754,60.99,o),
(553,289.024,o),
(553,512,cs),
(553,734.665,o),
(488.386,955.18,o),
(396.5,1135,cs),
(302.478,1319,o),
(191.972,1460.182,o),
(88,1556,c),
(37,1509,l),
(247.667,1229,o),
(346,897.333,o),
(346,512,cs)
);
}
);
userData = {
assembly = "PUSHB[ ]	/* 4 values pushed */
18 4 1 48
CALL[ ]	/* CallFunction */";
};
width = 625;
},
{
layerId = "01037D14-118B-4CC1-B98A-141C2A413BDA";
shapes = (
{
closed = 1;
nodes = (
(280,428.582,o),
(270.046,254.444,o),
(230,50,cs),
(191.362,-147.257,o),
(125.424,-346.081,o),
(21,-484,c),
(96,-555,l),
(200.29,-460.934,o),
(309.906,-312.236,o),
(403,-122,cs),
(494.127,64.215,o),
(557,289.596,o),
(557,512,cs),
(557,736.875,o),
(493.921,953.157,o),
(402,1135,cs),
(308.549,1319.87,o),
(199.983,1459.251,o),
(95,1556,c),
(21,1485,l),
(125.348,1347.182,o),
(191.758,1152.198,o),
(230,963,cs),
(269.583,767.166,o),
(280,598.251,o),
(280,512,cs)
);
}
);
userData = {
assembly = "PUSHB[ ]	/* 4 values pushed */
22 8 1 48
CALL[ ]	/* CallFunction */";
};
width = 607;
}
);
note = parenright;
unicode = 41;
}
{
glyphname = plus;
layers = (
{
layerId = m01;
shapes = (
{
closed = 1;
nodes = (
(461,589,l),
(461,168,l),
(593,168,l),
(593,590,l),
(984,592,l),
(984,707,l),
(593,709,l),
(593,1112,l),
(461,1112,l),
(461,709,l),
(72,711,l),
(72,588,l),
(72,588,l)
);
}
);
userData = {
assembly = "NPUSHB[ ]	/* 38 values pushed */
0 1 0 1 131 0 4 3 4 132 2 1 0 3 3 0 85 2 1 0 0 3 93 5 1 3 0 3 77 17 17 17 17 17 16 6 8 26
CALL[ ]	/* CallFunction */";
};
width = 1055;
},
{
layerId = "01037D14-118B-4CC1-B98A-141C2A413BDA";
shapes = (
{
closed = 1;
nodes = (
(435,554,l),
(435,168,l),
(637,168,l),
(637,555,l),
(996,556,l),
(996,744,l),
(637,746,l),
(637,1112,l),
(435,1112,l),
(435,746,l),
(82,748,l),
(82,553,l),
(82,553,l)
);
}
);
userData = {
assembly = "NPUSHB[ ]	/* 35 values pushed */
0 1 0 4 1 85 2 1 0 5 1 3 4 0 3 101 0 1 1 4 93 0 4 1 4 77 17 17 17 17 17 16 6 8 26
CALL[ ]	/* CallFunction */";
};
width = 1078;
}
);
note = plus;
unicode = 43;
}
{
glyphname = period;
kernLeft = comma;
kernRight = comma;
layers = (
{
layerId = m01;
shapes = (
{
closed = 1;
nodes = (
(469.554,1,o),
(468.526,267,o),
(293,267,cs),
(218.333,267,o),
(158,207.667,o),
(158,133,cs),
(158,61.023,o),
(219.781,1,o),
(293,1,cs)
);
}
);
userData = {
assembly = "NPUSHB[ ]	/* 16 values pushed */
0 1 1 0 95 0 0 0 33 0 76 37 34 2 8 22
CALL[ ]	/* CallFunction */";
};
width = 586;
},
{
layerId = "01037D14-118B-4CC1-B98A-141C2A413BDA";
shapes = (
{
closed = 1;
nodes = (
(446,237,o),
(377,303,o),
(293,303,cs),
(207.667,303,o),
(141,235.333,o),
(141,150,cs),
(141,70,o),
(211.667,2,o),
(293,2,cs),
(377,2,o),
(446,70.333,o),
(446,153,cs)
);
}
);
userData = {
assembly = "NPUSHB[ ]	/* 16 values pushed */
0 1 1 0 95 0 0 0 33 0 76 36 34 2 8 22
CALL[ ]	/* CallFunction */";
};
width = 586;
}
);
note = period;
unicode = 46;
}
{
glyphname = slash;
layers = (
{
layerId = m01;
shapes = (
{
closed = 1;
nodes = (
(89,-96,l),
(210,-96,l),
(778,1554,l),
(657,1554,l),
(657,1554,l)
);
}
);
userData = {
assembly = "NPUSHB[ ]	/* 22 values pushed */
0 0 1 0 132 2 1 1 1 34 1 76 0 0 0 3 0 3 17 3 8 21
CALL[ ]	/* CallFunction */";
};
width = 868;
},
{
layerId = "01037D14-118B-4CC1-B98A-141C2A413BDA";
shapes = (
{
closed = 1;
nodes = (
(59,-96,l),
(240,-96,l),
(808,1554,l),
(627,1554,l),
(627,1554,l)
);
}
);
userData = {
assembly = "NPUSHB[ ]	/* 22 values pushed */
0 0 1 0 132 2 1 1 1 34 1 76 0 0 0 3 0 3 17 3 8 21
CALL[ ]	/* CallFunction */";
};
width = 868;
}
);
note = slash;
unicode = 47;
}
{
glyphname = five;
layers = (
{
layerId = m01;
shapes = (
{
closed = 1;
nodes = (
(287.333,209.667,o),
(296,239.333,o),
(296,266,cs),
(296,305.346,o),
(273.903,361.639,o),
(200,359,cs),
(138.667,356.333,o),
(106,307.333,o),
(106,246,cs),
(106,186,o),
(144.333,115.667,o),
(215,61,cs),
(285.667,6.333,o),
(389.333,-33,o),
(520,-33,cs),
(785.789,-33,o),
(1024,126.362,o),
(1024,430,cs),
(1024,540.667,o),
(989.833,655.167,o),
(914.5,742.5,cs),
(839.167,829.833,o),
(721,889,o),
(553,889,cs),
(431.667,889,o),
(322.667,858.667,o),
(256,832,c),
(255,1282,l),
(941,1296,l),
(953,1567,l),
(896,1567,l),
(896,1474.064,o),
(846.522,1434,o),
(693,1434,cs),
(161,1434,l),
(166,778,l),
(223,725,l),
(289.949,768.774,o),
(421.037,797,o),
(494,797,cs),
(632.831,797,o),
(716.522,737.388,o),
(760.5,652.5,cs),
(805.662,565.326,o),
(811,465.382,o),
(811,393,cs),
(811,221.15,o),
(729.325,55.053,o),
(528,47,cs),
(431.377,41.632,o),
(289.919,86.181,o),
(274,187,c)
);
}
);
userData = {
assembly = "NPUSHB[ ]	/* 11 values pushed */
34 1 1 5 23 22 2 7 1 2 74
MPPEM[ ]	/* MeasurePixelPerEm */
PUSHB[ ]	/* 1 value pushed */
11
LT[ ]	/* LessThan */
IF[ ]	/* If */
NPUSHB[ ]	/* 43 values pushed */
0 3 2 2 3 110 0 7 1 0 1 7 0 126 0 5 0 1 7 5 1 103 0 4 4 2 93 0 2 2 32 75 0 0 0 6 95 0 6 6 41 6 76
ELSE[ ]	/* Else */
NPUSHB[ ]	/* 42 values pushed */
0 7 1 0 1 7 0 126 0 5 0 1 7 5 1 103 0 3 3 34 75 0 4 4 2 93 0 2 2 32 75 0 0 0 6 95 0 6 6 41 6 76
EIF[ ]	/* EndIf */
NPUSHB[ ]	/* 11 values pushed */
38 40 35 17 20 38 42 36 8 8 28
CALL[ ]	/* CallFunction */";
};
width = 1114;
},
{
layerId = "01037D14-118B-4CC1-B98A-141C2A413BDA";
shapes = (
{
closed = 1;
nodes = (
(354,214.667,o),
(361,249.333,o),
(361,272,cs),
(361,329.284,o),
(327.128,404,o),
(232,404,cs),
(145.945,404,o),
(90,329.346,o),
(90,247,cs),
(90,181.667,o),
(129,111.333,o),
(201,58,cs),
(273,4.667,o),
(378.333,-33,o),
(513,-33,cs),
(780.966,-33,o),
(1040,131.891,o),
(1040,447,cs),
(1040,689.824,o),
(882.716,907,o),
(543,907,cs),
(464.431,907,o),
(356.634,885.232,o),
(294,858,c),
(294,1223,l),
(937,1234,l),
(953,1567,l),
(823,1567,l),
(823,1452.451,o),
(761.289,1434,o),
(668,1434,cs),
(138,1434,l),
(145,750,l),
(233,683,l),
(329,739,o),
(419,758,o),
(479,758,cs),
(599.119,758,o),
(659.696,692.838,o),
(688,626.5,cs),
(721.612,547.722,o),
(724,464.7,o),
(724,403,cs),
(724,263.882,o),
(661.267,112,o),
(498,112,cs),
(442,112,o),
(356.667,142.667,o),
(338,188,c)
);
}
);
userData = {
assembly = "NPUSHB[ ]	/* 69 values pushed */
32 1 1 5 21 20 2 7 1 62 0 2 0 7 3 74 0 7 1 0 1 7 0 126 0 5 0 1 7 5 1 103 0 3 3 34 75 0 4 4 2 93 0 2 2 32 75 0 0 0 6 95 0 6 6 41 6 76 40 40 37 17 20 36 42 36 8 8 28
CALL[ ]	/* CallFunction */";
};
width = 1106;
}
);
note = five;
unicode = 53;
}
{
glyphname = eight;
layers = (
{
layerId = m01;
shapes = (
{
closed = 1;
nodes = (
(984,1349.827,o),
(788.536,1467,o),
(584,1467,cs),
(375.458,1467,o),
(149,1351.065,o),
(149,1095,cs),
(149,975.744,o),
(224.309,850.484,o),
(432,728,c),
(271.699,626.476,o),
(121,491.828,o),
(121,307,cs),
(121,50.177,o),
(373.136,-33,o),
(565,-33,cs),
(817.753,-33,o),
(1049,80.944,o),
(1049,339,cs),
(1049,515.722,o),
(886.307,672.525,o),
(707,778,c),
(860.143,853.228,o),
(984,975.456,o),
(984,1136,cs)
);
},
{
closed = 1;
nodes = (
(761.475,583.695,o),
(848,444.88,o),
(848,302,cs),
(848,140.667,o),
(746.333,46.333,o),
(569,49,cs),
(388.02,51.784,o),
(282.755,177.515,o),
(293,344,cs),
(298.646,451.278,o),
(364.384,584.12,o),
(509,690,c)
);
},
{
closed = 1;
nodes = (
(340,1268.547,o),
(429.132,1389.604,o),
(588,1387,cs),
(733.333,1384.333,o),
(826.667,1289,o),
(824,1113,cs),
(821.333,1009,o),
(756.667,903,o),
(634,819,c),
(468.865,877.596,o),
(340,990.81,o),
(340,1140,cs)
);
}
);
userData = {
assembly = "NPUSHB[ ]	/* 39 values pushed */
63 25 5 3 2 3 1 74 0 3 3 1 95 0 1 1 40 75 0 2 2 0 95 0 0 0 41 0 76 70 68 51 49 36 34 46 4 8 21
CALL[ ]	/* CallFunction */";
};
width = 1151;
},
{
layerId = "01037D14-118B-4CC1-B98A-141C2A413BDA";
shapes = (
{
closed = 1;
nodes = (
(1025,1344.009,o),
(812.373,1467,o),
(602,1467,cs),
(390.733,1467,o),
(138,1341.421,o),
(138,1076,cs),
(138,1020,o),
(154.167,955.167,o),
(193.5,890.5,cs),
(232.833,825.833,o),
(294.333,761.333,o),
(385,704,c),
(385,702,l),
(253.627,627.298,o),
(115,483.869,o),
(115,323,cs),
(115,185.805,o),
(187.632,95.873,o),
(274.5,44.5,cs),
(367.373,-10.425,o),
(480.745,-33,o),
(579,-33,cs),
(843.766,-33,o),
(1086,85.233,o),
(1086,352,cs),
(1086,509.333,o),
(990.333,653.667,o),
(781,783,c),
(781,785,l),
(894.628,851.063,o),
(1025,977.318,o),
(1025,1119,cs)
);
},
{
closed = 1;
nodes = (
(792,199.962,o),
(715.747,111,o),
(587,111,cs),
(459.484,111,o),
(364,204.004,o),
(364,329,cs),
(364,408.167,o),
(414.157,542.576,o),
(526,629,c),
(729.528,527.236,o),
(792,409.869,o),
(792,309,cs)
);
},
{
closed = 1;
nodes = (
(423,1233.108,o),
(496.6,1323,o),
(618,1323,cs),
(721.823,1323,o),
(803,1251.785,o),
(803,1121,cs),
(803,1045.234,o),
(743.438,937.897,o),
(648,867,c),
(527.513,914.147,o),
(423,1026.098,o),
(423,1133,cs)
);
}
);
userData = {
assembly = "NPUSHB[ ]	/* 40 values pushed */
67 47 26 5 4 2 3 1 74 0 3 3 1 95 0 1 1 40 75 0 2 2 0 95 0 0 0 41 0 76 78 76 58 56 38 36 45 4 8 21
CALL[ ]	/* CallFunction */";
};
width = 1172;
}
);
note = eight;
unicode = 56;
}
{
glyphname = colon;
layers = (
{
layerId = m01;
shapes = (
{
closed = 1;
nodes = (
(427,795.051,o),
(367.235,853,o),
(293,853,cs),
(218.333,853,o),
(158,793.667,o),
(158,719,cs),
(158,647,o),
(221,587,o),
(293,587,cs),
(366.333,587,o),
(427,647.667,o),
(427,721,cs)
);
},
{
closed = 1;
nodes = (
(469.554,1,o),
(468.526,267,o),
(293,267,cs),
(218.333,267,o),
(158,207.667,o),
(158,133,cs),
(158,61.023,o),
(219.781,1,o),
(293,1,cs)
);
}
);
userData = {
assembly = "NPUSHB[ ]	/* 26 values pushed */
0 1 0 0 3 1 0 103 0 3 3 2 95 0 2 2 33 2 76 37 37 36 34 4 8 24
CALL[ ]	/* CallFunction */";
};
width = 585;
},
{
layerId = "01037D14-118B-4CC1-B98A-141C2A413BDA";
shapes = (
{
closed = 1;
nodes = (
(377,586,o),
(446,654.333,o),
(446,737,cs),
(446,821,o),
(377,885.667,o),
(293,887,cs),
(207.667,885.667,o),
(141,819.333,o),
(141,734,cs),
(141,654,o),
(211.667,586,o),
(293,586,cs)
);
},
{
closed = 1;
nodes = (
(377,2,o),
(446,70.333,o),
(446,153,cs),
(446,237,o),
(377,301.667,o),
(293,303,cs),
(207.667,301.667,o),
(141,235.333,o),
(141,150,cs),
(141,70,o),
(211.667,2,o),
(293,2,cs)
);
}
);
userData = {
assembly = "NPUSHB[ ]	/* 40 values pushed */
0 1 4 1 0 3 1 0 103 0 3 3 2 95 5 1 2 2 33 2 76 13 12 1 0 19 17 12 23 13 23 7 5 0 11 1 11 6 8 20
CALL[ ]	/* CallFunction */";
};
width = 585;
}
);
note = colon;
unicode = 58;
}
{
glyphname = semicolon;
layers = (
{
layerId = m01;
shapes = (
{
closed = 1;
nodes = (
(338.642,-276.358,o),
(401,-82.796,o),
(401,21,cs),
(401,123.447,o),
(350.145,207,o),
(256,207,cs),
(193.333,207,o),
(143,164,o),
(143,88,cs),
(143,15.75,o),
(209.999,-34.966,o),
(288,0,c),
(303.129,-118.507,o),
(241.38,-266.472,o),
(194,-325,c),
(249,-366,l),
(249,-366,l)
);
},
{
closed = 1;
nodes = (
(382,996.49,o),
(331.723,1057,o),
(264,1057,cs),
(200.126,1057,o),
(143,997.388,o),
(143,923,cs),
(143,849.79,o),
(197.986,792,o),
(262,792,cs),
(327.423,792,o),
(382,852.416,o),
(382,923,cs)
);
}
);
userData = {
assembly = "NPUSHB[ ]	/* 27 values pushed */
23 5 2 0 71 0 0 1 0 132 0 1 1 2 95 0 2 2 43 1 76 40 46 44 3 8 23
CALL[ ]	/* CallFunction */";
};
width = 539;
},
{
layerId = "01037D14-118B-4CC1-B98A-141C2A413BDA";
shapes = (
{
closed = 1;
nodes = (
(438,184.789,o),
(379.162,281,o),
(256,281,cs),
(163.616,281,o),
(103,209.136,o),
(103,127,cs),
(103,32.41,o),
(172.064,-9,o),
(244,-9,cs),
(258.667,-9,o),
(268,-8.667,o),
(288,-2,c),
(288,-125.269,o),
(214.034,-268.518,o),
(171,-325,c),
(250,-382,l),
(379.333,-224.667,o),
(438,-68.333,o),
(438,65,cs)
);
},
{
closed = 1;
nodes = (
(431,1036.901,o),
(371.612,1112,o),
(283,1112,cs),
(204.467,1112,o),
(134,1041.858,o),
(134,951,cs),
(134,863.005,o),
(195.327,792,o),
(286,792,cs),
(373.583,792,o),
(431,862.883,o),
(431,951,cs)
);
}
);
userData = {
assembly = "NPUSHB[ ]	/* 37 values pushed */
9 1 0 1 1 74 4 3 2 0 71 0 3 0 2 1 3 2 103 0 1 1 0 95 0 0 0 33 0 76 40 40 40 43 4 8 24
CALL[ ]	/* CallFunction */";
};
width = 546;
}
);
note = semicolon;
unicode = 59;
}
{
glyphname = less;
layers = (
{
layerId = m01;
shapes = (
{
closed = 1;
nodes = (
(982,174,l),
(982,305,l),
(209,647,l),
(982,987,l),
(982,1114,l),
(70,709,l),
(70,571,l),
(70,571,l)
);
}
);
userData = {
assembly = "PUSHB[ ]	/* 4 values pushed */
5 1 1 48
CALL[ ]	/* CallFunction */";
};
width = 1110;
},
{
layerId = "01037D14-118B-4CC1-B98A-141C2A413BDA";
shapes = (
{
closed = 1;
nodes = (
(1001,146,l),
(1001,364,l),
(364,644,l),
(364,646,l),
(1001,926,l),
(1001,1142,l),
(79,733,l),
(79,547,l),
(79,547,l)
);
}
);
userData = {
assembly = "PUSHB[ ]	/* 4 values pushed */
6 1 1 48
CALL[ ]	/* CallFunction */";
};
width = 1128;
}
);
note = less;
unicode = 60;
}
{
glyphname = at;
layers = (
{
layerId = m01;
shapes = (
{
closed = 1;
nodes = (
(1002.939,758.592,o),
(964.077,592.805,o),
(907,457,cs),
(849.767,320.826,o),
(772.541,221,o),
(700,221,cs),
(629.333,221,o),
(591,308.667,o),
(591,446,cs),
(591,554,o),
(615.167,673.667,o),
(662.5,767,cs),
(709.833,860.333,o),
(782,926,o),
(878,926,cs),
(930.667,926,o),
(973,919.667,o),
(1005,907,c)
);
},
{
closed = 1;
nodes = (
(1544,816.936,o),
(1483.096,982.4,o),
(1361,1109.5,cs),
(1230.351,1245.503,o),
(1053.684,1304,o),
(856,1304,cs),
(794.667,1304,o),
(700.833,1298.667,o),
(581.5,1256,cs),
(462.167,1213.333,o),
(352.5,1133,o),
(274.5,1033,cs),
(156.52,881.744,o),
(102,697.01,o),
(102,526,cs),
(102,324.814,o),
(166.493,144.869,o),
(290,14.5,cs),
(374,-74.167,o),
(487.667,-139,o),
(617,-171,cs),
(681.667,-187,o),
(761.333,-195,o),
(856,-195,cs),
(1036,-195,o),
(1229.333,-136.333,o),
(1388,33,c),
(1339,84,l),
(1267,-1.333,o),
(1184.5,-51.667,o),
(1094.5,-77,cs),
(1004.5,-102.333,o),
(973,-106,o),
(853,-106,cs),
(727.572,-106,o),
(565.036,-62.847,o),
(442,52.5,cs),
(367.333,122.5,o),
(312.5,216.833,o),
(282.5,337.5,cs),
(267.5,397.833,o),
(260,465,o),
(260,539,cs),
(260,711,o),
(310,874.333,o),
(402,997,cs),
(448,1058.333,o),
(499.333,1105.667,o),
(556,1139,cs),
(669.333,1205.667,o),
(778,1220.333,o),
(846,1219,cs),
(1015.333,1220.333,o),
(1138.5,1174.667,o),
(1236.5,1080,cs),
(1334.5,985.333,o),
(1399,831.333,o),
(1399,586,cs),
(1399,459.333,o),
(1364.667,349.167,o),
(1322,288.5,cs),
(1279.333,227.833,o),
(1235.667,202,o),
(1185,202,cs),
(1127.69,202,o),
(1086,246.843,o),
(1086,369,cs),
(1086,444.697,o),
(1098.032,535.772,o),
(1115,680,cs),
(1120.333,725.333,o),
(1126.167,771.833,o),
(1132.5,819.5,cs),
(1138.833,867.167,o),
(1144.667,914.333,o),
(1150,961,c),
(1085.299,979.116,o),
(998.458,987,o),
(929,987,cs),
(617.426,987,o),
(448,728.212,o),
(448,428,cs),
(448,228.871,o),
(548.754,143,o),
(665,143,cs),
(709,143,o),
(761.333,153.5,o),
(816,203.5,cs),
(870.667,253.5,o),
(925.333,342,o),
(976,498,c),
(980,498,l),
(965.333,419.333,o),
(960,374.667,o),
(960,332,cs),
(960,176.802,o),
(1056.116,132,o),
(1149,132,cs),
(1278.415,132,o),
(1395.929,209.647,o),
(1463,320.5,cs),
(1511,399.833,o),
(1544,508.333,o),
(1544,651,cs)
);
}
);
userData = {
assembly = "NPUSHB[ ]	/* 71 values pushed */
52 1 0 4 31 0 2 1 0 92 91 2 7 2 3 74 0 9 0 6 4 9 6 103 0 1 5 2 1 87 0 5 3 1 2 7 5 2 103 0 7 0 8 7 8 99 0 0 0 4 95 0 4 4 35 0 76 111 109 39 43 40 45 56 44 43 38 33 10 8 29
CALL[ ]	/* CallFunction */";
};
width = 1630;
},
{
layerId = "01037D14-118B-4CC1-B98A-141C2A413BDA";
shapes = (
{
closed = 1;
nodes = (
(695.667,297,o),
(678.833,309.833,o),
(666.5,335.5,cs),
(654.167,361.167,o),
(648,398,o),
(648,446,cs),
(648,557.375,o),
(671.06,661.81,o),
(710.5,745.5,cs),
(751.52,832.542,o),
(810.868,892,o),
(887,892,cs),
(909,892,o),
(928.667,889.333,o),
(946,884,c),
(940.187,771.613,o),
(910.236,624.538,o),
(866.5,503.5,cs),
(824,385.884,o),
(768.483,297,o),
(717,297,cs)
);
},
{
closed = 1;
nodes = (
(1236.037,-35.632,o),
(1036.432,-103,o),
(875,-103,cs),
(707,-103,o),
(552,-46,o),
(440,62,cs),
(328,170,o),
(258,330.333,o),
(258,537,cs),
(258,718.451,o),
(318.121,882.611,o),
(420,1008,cs),
(524.012,1136.015,o),
(671.658,1216,o),
(845,1216,cs),
(995.667,1216,o),
(1129.167,1165.5,o),
(1224.5,1067.5,cs),
(1319.833,969.5,o),
(1378,825.667,o),
(1378,639,cs),
(1378,564.483,o),
(1367.368,475.048,o),
(1334,388.5,cs),
(1301.757,304.869,o),
(1247.181,244,o),
(1169,244,cs),
(1112.08,244,o),
(1094,305.035,o),
(1094,365,cs),
(1094,415.548,o),
(1103.264,510.112,o),
(1118,628,cs),
(1130.748,729.985,o),
(1145.293,837.244,o),
(1160,950,c),
(1068,979.333,o),
(975,993,o),
(915,993,cs),
(609.75,993,o),
(444,720.051,o),
(444,453,cs),
(444,347.667,o),
(470,274,o),
(510,226,cs),
(550,178,o),
(604.667,156,o),
(662,156,cs),
(706,156,o),
(753.667,172.833,o),
(799,213.5,cs),
(844.333,254.167,o),
(887.667,318,o),
(925,410,c),
(923.667,395.333,o),
(923,382.333,o),
(923,369,cs),
(923,180.621,o),
(1036.05,145,o),
(1130,145,cs),
(1217.201,145,o),
(1311.747,183.231,o),
(1393,265.5,cs),
(1473.919,347.431,o),
(1528,476.932,o),
(1528,638,cs),
(1528,806.829,o),
(1470.434,970.189,o),
(1358.5,1095,cs),
(1244.34,1222.293,o),
(1071.879,1304,o),
(857,1304,cs),
(612.532,1304,o),
(417.678,1196.207,o),
(292,1045,cs),
(157.27,882.902,o),
(97,691.641,o),
(97,525,cs),
(97,324.384,o),
(161.388,149.224,o),
(280,17,cs),
(361.333,-73.667,o),
(468.333,-138.833,o),
(603,-175.5,cs),
(670.333,-193.833,o),
(744.333,-203,o),
(825,-203,cs),
(1050.333,-203,o),
(1254.667,-123,o),
(1416,57,c),
(1370,112,l),
(1370,112,l)
);
}
);
userData = {
assembly = "NPUSHB[ ]	/* 83 values pushed */
76 1 1 6 7 1 0 1 117 1 9 4 3 74 0 3 0 8 6 3 8 103 10 1 0 7 4 0 87 0 7 5 1 4 9 7 4 103 0 9 0 2 9 2 99 0 1 1 6 95 0 6 6 35 1 76 1 0 113 111 101 99 89 87 74 72 64 62 51 49 37 35 23 21 10 8 0 18 1 18 11 8 20
CALL[ ]	/* CallFunction */";
};
width = 1624;
}
);
note = at;
unicode = 64;
}
{
glyphname = A;
kernLeft = A;
kernRight = A;
layers = (
{
layerId = m01;
shapes = (
{
closed = 1;
nodes = (
(282,291,o),
(303.667,358,o),
(333,442,c),
(866,454,l),
(938,262,ls),
(968.352,181.981,o),
(987.332,70.62,o),
(838,68,c),
(838,0,l),
(1307,0,l),
(1307,90,l),
(1167,82,l),
(1169.777,145.871,o),
(1136.469,254.573,o),
(1114,307,cs),
(657,1473,l),
(608,1473,l),
(186,324,ls),
(131.454,175.947,o),
(111.651,68,o),
(-12,68,c),
(-12,0,l),
(371,0,l),
(371,90,l),
(211,82,l),
(237.416,146.153,o),
(234.144,139.431,o),
(262,223,cs)
);
},
{
closed = 1;
nodes = (
(600,1174,l),
(692,922,l),
(838,530,l),
(364,530,l),
(382.667,582.667,o),
(403.833,642.5,o),
(427.5,709.5,cs),
(451.167,776.5,o),
(478.667,854,o),
(510,942,cs),
(596,1174,l),
(596,1174,l),
(596,1174,l)
);
}
);
userData = {
assembly = "NPUSHB[ ]	/* 52 values pushed */
42 1 8 3 1 74 6 1 2 0 1 0 2 112 0 8 0 7 0 8 7 101 0 3 3 32 75 4 1 0 0 1 93 5 1 1 1 33 1 76 22 21 17 17 22 21 17 17 21 9 8 29
CALL[ ]	/* CallFunction */";
};
width = 1282;
},
{
layerId = "01037D14-118B-4CC1-B98A-141C2A413BDA";
shapes = (
{
closed = 1;
nodes = (
(898.333,277.333,o),
(907,243,o),
(907,215,cs),
(907,165.667,o),
(881.333,135,o),
(808,135,c),
(808,0,l),
(1360,0,l),
(1360,158,l),
(1242,152,l),
(1234.304,211,o),
(1201.475,310.313,o),
(1184,354,cs),
(747,1470,l),
(605,1470,l),
(205,375,ls),
(160.093,253.487,o),
(121.447,141,o),
(8,141,c),
(8,0,l),
(447,0,l),
(447,164,l),
(301,158,l),
(314.086,191.649,o),
(334.532,237.896,o),
(354,289,cs),
(362,312.333,o),
(366,324,o),
(366,324,c),
(399,420,l),
(844,428,l),
(885,316,l),
(885,316,l)
);
},
{
closed = 1;
nodes = (
(587,968.333,o),
(607.333,1062.333,o),
(618,1109,c),
(620,1109,l),
(633.333,1033,o),
(663,930,o),
(699,830,cs),
(792,573,l),
(451,573,l),
(543,839,l),
(543,839,l)
);
}
);
userData = {
assembly = "NPUSHB[ ]	/* 46 values pushed */
41 1 8 4 1 74 0 8 0 0 1 8 0 102 0 4 4 32 75 7 5 3 3 1 1 2 93 6 1 2 2 33 2 76 22 17 17 22 21 17 17 23 16 9 8 29
CALL[ ]	/* CallFunction */";
};
width = 1368;
}
);
note = A;
unicode = 65;
}
{
glyphname = C;
kernLeft = C;
kernRight = C;
layers = (
{
layerId = m01;
shapes = (
{
closed = 1;
nodes = (
(1056.733,1383,o),
(1215.608,1233.515,o),
(1245,977,c),
(1319,977,l),
(1319,1452,l),
(1208,1452,l),
(1218,1342,l),
(1091.333,1426,o),
(959.667,1467,o),
(805,1467,cs),
(573.036,1467,o),
(389.968,1372.705,o),
(271,1224.5,cs),
(156.492,1081.85,o),
(94,899.103,o),
(94,694,cs),
(94,288.531,o),
(378.114,-33,o),
(790,-33,cs),
(956.338,-33,o),
(1193.638,22.834,o),
(1370,266,c),
(1317,309,l),
(1203.824,155.404,o),
(1022.717,74,o),
(844,74,cs),
(696.398,74,o),
(558.548,136.569,o),
(456,254.5,cs),
(356.801,368.578,o),
(295,531.477,o),
(295,725,cs),
(295,1123.862,o),
(526.756,1383,o),
(819,1383,cs)
);
}
);
userData = {
assembly = "NPUSHB[ ]	/* 64 values pushed */
38 1 5 0 18 17 2 1 5 2 74 6 1 0 0 3 95 4 1 3 3 40 75 0 5 5 3 95 4 1 3 3 40 75 0 1 1 2 95 0 2 2 41 2 76 1 0 42 41 40 39 36 34 24 22 13 11 0 46 1 46 7 8 20
CALL[ ]	/* CallFunction */";
};
width = 1432;
},
{
layerId = "01037D14-118B-4CC1-B98A-141C2A413BDA";
shapes = (
{
closed = 1;
nodes = (
(394,1036.027,o),
(529.563,1318,o),
(815,1318,cs),
(1009.667,1318,o),
(1121.667,1202,o),
(1159,974,c),
(1293,974,l),
(1293,1453,l),
(1135,1453,l),
(1142,1366,l),
(1140,1366,l),
(1030.625,1432.692,o),
(890.947,1467,o),
(788,1467,cs),
(540.021,1467,o),
(363.065,1359.213,o),
(251,1221,cs),
(132.662,1075.05,o),
(72,887.042,o),
(72,696,cs),
(72,289.04,o),
(348.865,-33,o),
(774,-33,cs),
(942.267,-33,o),
(1191.298,19.467,o),
(1390,295,c),
(1292,385,l),
(1175.793,225.553,o),
(994.199,133,o),
(824,133,cs),
(548.148,133,o),
(394,382.175,o),
(394,738,cs)
);
}
);
userData = {
assembly = "NPUSHB[ ]	/* 53 values pushed */
33 1 5 2 11 10 2 0 4 2 74 0 5 5 2 95 3 1 2 2 40 75 0 4 4 2 95 3 1 2 2 40 75 0 0 0 1 95 0 1 1 41 1 76 34 17 22 42 41 36 6 8 26
CALL[ ]	/* CallFunction */";
};
width = 1410;
}
);
note = C;
unicode = 67;
}
{
glyphname = D;
kernLeft = B;
kernRight = D;
layers = (
{
layerId = m01;
shapes = (
{
closed = 1;
nodes = (
(433,1263.587,o),
(422.319,1360,o),
(574,1360,cs),
(1025.751,1360,o),
(1231,1107.76,o),
(1231,723,cs),
(1231,354.936,o),
(997.646,78,o),
(646,78,cs),
(620,78,l),
(570,78,ls),
(531.333,78,o),
(480.667,79.333,o),
(426,82,c),
(431.333,116.667,o),
(433,167.333,o),
(433,242,cs),
(433,1114,l),
(433,1114,l),
(433,1114,l)
);
},
{
closed = 1;
nodes = (
(113,1343,l),
(261,1352,l),
(255.667,1310.667,o),
(254,1260,o),
(254,1204,cs),
(254,319,ls),
(254,170.279,o),
(264.812,73.235,o),
(113,68,c),
(113,0,l),
(652,0,ls),
(822.667,0,o),
(967.167,38,o),
(1082.5,102,cs),
(1140.167,134,o),
(1190.833,172.167,o),
(1234.5,216.5,cs),
(1361.964,345.91,o),
(1432,518.458,o),
(1432,715,cs),
(1432,1208.07,o),
(1092.648,1436,o),
(596,1436,cs),
(113,1434,l),
(113,1434,l),
(113,1434,l)
);
}
);
userData = {
assembly = "NPUSHB[ ]	/* 41 values pushed */
5 1 1 1 2 93 6 1 2 2 32 75 4 1 0 0 3 93 0 3 3 33 3 76 25 24 48 47 39 38 37 35 24 49 25 49 40 99 7 8 22
CALL[ ]	/* CallFunction */";
};
width = 1526;
},
{
layerId = "01037D14-118B-4CC1-B98A-141C2A413BDA";
shapes = (
{
closed = 1;
nodes = (
(256,1282,l),
(250.713,1247.637,o),
(248,1173.319,o),
(248,1098,cs),
(248,313,ls),
(248,149.927,o),
(196.177,140.54,o),
(102,135,c),
(102,0,l),
(689,0,ls),
(879.667,0,o),
(1031.667,44.167,o),
(1149,115.5,cs),
(1207.667,151.167,o),
(1258,192.833,o),
(1300,240.5,cs),
(1436.183,395.057,o),
(1482,578.017,o),
(1482,731,cs),
(1482,894.334,o),
(1427.387,1069.214,o),
(1293,1212,cs),
(1207.667,1302.667,o),
(1091.833,1370.667,o),
(944.5,1408,cs),
(870.833,1426.667,o),
(789,1436,o),
(699,1436,cs),
(102,1434,l),
(102,1276,l),
(102,1276,l)
);
},
{
closed = 1;
nodes = (
(836.333,1295,o),
(952.833,1246.833,o),
(1033.5,1147.5,cs),
(1114.167,1048.167,o),
(1159,897.333,o),
(1159,688,cs),
(1159,414.01,o),
(1029.433,150,o),
(732,150,cs),
(654.789,150,o),
(580.198,154.947,o),
(536,152,c),
(541.287,186.363,o),
(544,260.681,o),
(544,336,cs),
(544,1125,ls),
(544,1281.768,o),
(593.397,1301.674,o),
(695,1299,cs)
);
}
);
userData = {
assembly = "NPUSHB[ ]	/* 39 values pushed */
6 4 2 3 3 0 93 0 0 0 32 75 5 1 2 2 1 93 0 1 1 33 1 76 31 30 47 42 30 55 31 55 41 17 44 32 7 8 24
CALL[ ]	/* CallFunction */";
};
width = 1555;
}
);
note = D;
unicode = 68;
}
{
glyphname = E;
kernLeft = B;
layers = (
{
layerId = m01;
shapes = (
{
closed = 1;
nodes = (
(543,709.667,o),
(603,712,o),
(613,712,cs),
(632.333,712,o),
(642,712,o),
(642,712,c),
(770.947,712,o),
(826,689.049,o),
(826,530,c),
(893,530,l),
(893,961,l),
(802,961,l),
(817,784,l),
(433,784,l),
(433,1114,ls),
(433,1283.404,o),
(435.501,1350.974,o),
(588,1359,c),
(777,1362,ls),
(925.093,1362,o),
(1041,1311.352,o),
(1041,1075,c),
(1108,1075,l),
(1098,1434,l),
(113,1434,l),
(113,1343,l),
(261,1352,l),
(255.667,1310.667,o),
(254,1260,o),
(254,1204,cs),
(254,319,l),
(254,259,ls),
(254,146.988,o),
(244.137,70.676,o),
(113,68,c),
(113,0,l),
(1170,0,l),
(1182,399,l),
(1112,399,l),
(1112,157.676,o),
(996.671,84.667,o),
(818,82,cs),
(426,76,l),
(431.333,110.667,o),
(433,160,o),
(433,236,cs),
(433,705,l),
(433,705,l),
(433,705,l)
);
}
);
userData = {
assembly = "MPPEM[ ]	/* MeasurePixelPerEm */
PUSHB[ ]	/* 1 value pushed */
9
LT[ ]	/* LessThan */
IF[ ]	/* If */
NPUSHB[ ]	/* 53 values pushed */
0 6 4 9 4 6 112 0 1 10 0 0 1 112 0 8 0 11 10 8 11 101 0 9 0 10 1 9 10 101 7 1 4 4 5 93 0 5 5 32 75 3 1 0 0 2 94 0 2 2 33 2 76
ELSE[ ]	/* Else */
NPUSHB[ ]	/* 55 values pushed */
0 6 4 9 4 6 9 126 0 1 10 0 10 1 0 126 0 8 0 11 10 8 11 101 0 9 0 10 1 9 10 101 7 1 4 4 5 93 0 5 5 32 75 3 1 0 0 2 94 0 2 2 33 2 76
EIF[ ]	/* EndIf */
NPUSHB[ ]	/* 18 values pushed */
54 49 45 44 43 42 21 52 17 17 25 17 17 20 35 12 8 29
CALL[ ]	/* CallFunction */";
};
width = 1274;
},
{
layerId = "01037D14-118B-4CC1-B98A-141C2A413BDA";
shapes = (
{
closed = 1;
nodes = (
(708.16,675.623,o),
(799,666.786,o),
(799,493,c),
(934,493,l),
(934,991,l),
(776,991,l),
(785,814,l),
(544,814,l),
(544,1121,ls),
(544,1278.015,o),
(592.956,1296.249,o),
(681,1299,cs),
(755,1301,ls),
(866.4,1303.652,o),
(1004,1257.733,o),
(1004,1037,c),
(1139,1037,l),
(1127,1434,l),
(102,1434,l),
(102,1276,l),
(256,1282,l),
(250.713,1247.637,o),
(248,1173.319,o),
(248,1098,cs),
(248,313,ls),
(248,149.927,o),
(196.177,140.54,o),
(102,135,c),
(102,0,l),
(1183,0,l),
(1195,451,l),
(1060,451,l),
(1060,340.333,o),
(1027.667,266.5,o),
(981,220.5,cs),
(934.333,174.5,o),
(871,156,o),
(811,156,cs),
(536,155,l),
(541.264,189.218,o),
(544,259.809,o),
(544,336,cs),
(544,672,l),
(598,673,l),
(598,673,l)
);
}
);
userData = {
assembly = "MPPEM[ ]	/* MeasurePixelPerEm */
PUSHB[ ]	/* 1 value pushed */
9
LT[ ]	/* LessThan */
IF[ ]	/* If */
NPUSHB[ ]	/* 56 values pushed */
0 6 4 9 4 6 112 0 1 10 0 0 1 112 0 8 12 1 11 10 8 11 103 7 1 4 4 5 93 0 5 5 32 75 0 10 10 9 93 0 9 9 35 75 3 1 0 0 2 94 0 2 2 33 2 76
ELSE[ ]	/* Else */
MPPEM[ ]	/* MeasurePixelPerEm */
PUSHB[ ]	/* 1 value pushed */
11
LT[ ]	/* LessThan */
IF[ ]	/* If */
NPUSHB[ ]	/* 57 values pushed */
0 6 4 9 4 6 112 0 1 10 0 10 1 0 126 0 8 12 1 11 10 8 11 103 7 1 4 4 5 93 0 5 5 32 75 0 10 10 9 93 0 9 9 35 75 3 1 0 0 2 94 0 2 2 33 2 76
ELSE[ ]	/* Else */
NPUSHB[ ]	/* 58 values pushed */
0 6 4 9 4 6 9 126 0 1 10 0 10 1 0 126 0 8 12 1 11 10 8 11 103 7 1 4 4 5 93 0 5 5 32 75 0 10 10 9 93 0 9 9 35 75 3 1 0 0 2 94 0 2 2 33 2 76
EIF[ ]	/* EndIf */
EIF[ ]	/* EndIf */
NPUSHB[ ]	/* 22 values pushed */
0 0 0 54 0 53 49 48 47 46 21 52 17 17 41 17 17 20 53 13 8 29
CALL[ ]	/* CallFunction */";
};
width = 1278;
}
);
note = E;
unicode = 69;
}
{
glyphname = F;
kernLeft = B;
layers = (
{
layerId = m01;
shapes = (
{
closed = 1;
nodes = (
(524.333,677.667,o),
(575,680,o),
(585,680,cs),
(604.333,680,o),
(614,680,o),
(614,680,c),
(742.947,680,o),
(798,657.049,o),
(798,498,c),
(865,498,l),
(865,929,l),
(774,929,l),
(789,752,l),
(433,752,l),
(433,1106,ls),
(433,1254.384,o),
(423.029,1352.703,o),
(574,1358,cs),
(723,1362,ls),
(876.637,1364.649,o),
(1006,1318.64,o),
(1006,1075,c),
(1074,1075,l),
(1063,1434,l),
(113,1434,l),
(113,1343,l),
(261,1352,l),
(255.667,1310.667,o),
(254,1260,o),
(254,1204,cs),
(254,319,ls),
(254,170.279,o),
(264.812,73.235,o),
(113,68,c),
(113,0,l),
(635,0,l),
(635,90,l),
(426,82,l),
(431.333,116.667,o),
(433,169.333,o),
(433,244,cs),
(433,673,l),
(433,673,l),
(433,673,l)
);
}
);
userData = {
assembly = "MPPEM[ ]	/* MeasurePixelPerEm */
PUSHB[ ]	/* 1 value pushed */
9
LT[ ]	/* LessThan */
IF[ ]	/* If */
NPUSHB[ ]	/* 52 values pushed */
0 5 3 8 3 5 112 0 2 0 1 0 2 112 0 7 0 10 9 7 10 101 0 8 0 9 0 8 9 101 6 1 3 3 4 93 0 4 4 32 75 0 0 0 1 93 0 1 1 33 1 76
ELSE[ ]	/* Else */
NPUSHB[ ]	/* 53 values pushed */
0 5 3 8 3 5 8 126 0 2 0 1 0 2 112 0 7 0 10 9 7 10 101 0 8 0 9 0 8 9 101 6 1 3 3 4 93 0 4 4 32 75 0 0 0 1 93 0 1 1 33 1 76
EIF[ ]	/* EndIf */
NPUSHB[ ]	/* 16 values pushed */
47 42 38 37 17 21 52 17 17 24 17 17 19 11 8 29
CALL[ ]	/* CallFunction */";
};
width = 1122;
},
{
layerId = "01037D14-118B-4CC1-B98A-141C2A413BDA";
shapes = (
{
closed = 1;
nodes = (
(679.16,625.623,o),
(770,616.786,o),
(770,443,c),
(905,443,l),
(905,941,l),
(747,941,l),
(756,764,l),
(544,764,l),
(544,1121,ls),
(544,1278.015,o),
(592.956,1296.249,o),
(681,1299,cs),
(755,1301,ls),
(866.4,1303.652,o),
(1004,1257.733,o),
(1004,1037,c),
(1139,1037,l),
(1127,1434,l),
(102,1434,l),
(102,1276,l),
(256,1282,l),
(250.713,1247.637,o),
(248,1173.319,o),
(248,1098,cs),
(248,313,ls),
(248,149.927,o),
(196.177,140.54,o),
(102,135,c),
(102,0,l),
(718,0,l),
(718,158,l),
(536,152,l),
(541.287,186.363,o),
(544,260.681,o),
(544,336,cs),
(544,622,l),
(569,623,l),
(569,623,l)
);
}
);
userData = {
assembly = "MPPEM[ ]	/* MeasurePixelPerEm */
PUSHB[ ]	/* 1 value pushed */
11
LT[ ]	/* LessThan */
IF[ ]	/* If */
NPUSHB[ ]	/* 47 values pushed */
0 5 3 8 3 5 112 0 7 11 1 10 9 7 10 103 0 8 0 9 0 8 9 101 6 1 3 3 4 93 0 4 4 32 75 2 1 0 0 1 93 0 1 1 33 1 76
ELSE[ ]	/* Else */
NPUSHB[ ]	/* 48 values pushed */
0 5 3 8 3 5 8 126 0 7 11 1 10 9 7 10 103 0 8 0 9 0 8 9 101 6 1 3 3 4 93 0 4 4 32 75 2 1 0 0 1 93 0 1 1 33 1 76
EIF[ ]	/* EndIf */
NPUSHB[ ]	/* 20 values pushed */
0 0 0 48 0 47 43 42 17 21 52 17 17 41 17 17 37 12 8 29
CALL[ ]	/* CallFunction */";
};
width = 1169;
}
);
note = F;
unicode = 70;
}
{
glyphname = G;
layers = (
{
layerId = m01;
shapes = (
{
closed = 1;
nodes = (
(1368,414.71,o),
(1367.192,473.503,o),
(1384.5,529.5,cs),
(1402.207,586.789,o),
(1443.201,631,o),
(1515,631,c),
(1515,698,l),
(1052,698,l),
(1052,608,l),
(1196,616,l),
(1196,168,l),
(1085.371,93.326,o),
(948.96,66,o),
(845,66,cs),
(683.667,66,o),
(546.167,136.5,o),
(449.5,254.5,cs),
(352.833,372.5,o),
(297,539.667,o),
(297,733,cs),
(297,923.667,o),
(356.333,1086.167,o),
(451,1201.5,cs),
(545.667,1316.833,o),
(677.667,1385,o),
(823,1385,cs),
(1056.866,1385,o),
(1243.997,1243.613,o),
(1263,983,c),
(1337,983,l),
(1337,1452,l),
(1224,1452,l),
(1233,1354,l),
(1118.529,1423.215,o),
(955.013,1467,o),
(809,1467,cs),
(561.292,1467,o),
(382.747,1359.079,o),
(273,1220.5,cs),
(158.749,1076.234,o),
(96,891.243,o),
(96,686,cs),
(96,240.127,o),
(379.385,-33,o),
(792,-33,cs),
(882.201,-33,o),
(1006.526,-10.678,o),
(1091,21,cs),
(1191,59.667,o),
(1266.667,74,o),
(1312,74,cs),
(1368,74,l),
(1368,387,l),
(1368,387,l),
(1368,387,l)
);
}
);
userData = {
assembly = "NPUSHB[ ]	/* 80 values pushed */
26 1 4 5 50 1 0 7 2 74 0 9 8 7 7 9 112 0 0 7 6 7 0 6 126 0 8 0 7 0 8 7 101 0 5 5 2 95 3 1 2 2 40 75 0 4 4 2 95 3 1 2 2 40 75 0 6 6 1 95 0 1 1 41 1 76 56 55 17 21 40 36 17 21 42 38 32 10 8 29
CALL[ ]	/* CallFunction */";
};
width = 1559;
},
{
layerId = "01037D14-118B-4CC1-B98A-141C2A413BDA";
shapes = (
{
closed = 1;
nodes = (
(1373,554.588,o),
(1417.444,570.768,o),
(1509,576,c),
(1509,711,l),
(965,711,l),
(965,553,l),
(1119,559,l),
(1113.713,524.637,o),
(1111,450.319,o),
(1111,375,cs),
(1111,185,l),
(1033.649,147.658,o),
(902.896,130,o),
(821,130,cs),
(681,130,o),
(575,193,o),
(503,301,cs),
(431,409,o),
(394,560.667,o),
(394,738,cs),
(394,1035.861,o),
(526.386,1318,o),
(812,1318,cs),
(1005.47,1318,o),
(1154.912,1201.825,o),
(1192,974,c),
(1326,974,l),
(1326,1453,l),
(1168,1453,l),
(1175,1366,l),
(1173,1366,l),
(1066.627,1430.862,o),
(893.317,1467,o),
(785,1467,cs),
(534.773,1467,o),
(357.749,1356.143,o),
(250,1221,cs),
(136.094,1078.134,o),
(73,895.414,o),
(73,696,cs),
(73,286.986,o),
(326.696,-33,o),
(771,-33,cs),
(896.333,-33,o),
(995.333,-7.333,o),
(1082,18,cs),
(1168.667,43.333,o),
(1244.333,69,o),
(1323,69,cs),
(1373,69,l),
(1373,398,l),
(1373,398,l)
);
}
);
userData = {
assembly = "NPUSHB[ ]	/* 74 values pushed */
23 1 5 2 48 1 6 7 2 74 0 0 6 1 6 0 1 126 0 8 9 1 7 6 8 7 103 0 5 5 2 95 3 1 2 2 40 75 0 4 4 2 95 3 1 2 2 40 75 0 6 6 1 95 0 1 1 41 1 76 59 58 17 41 40 36 17 22 42 35 32 10 8 29
CALL[ ]	/* CallFunction */";
};
width = 1545;
}
);
note = G;
unicode = 71;
}
{
glyphname = J;
layers = (
{
layerId = m01;
shapes = (
{
closed = 1;
nodes = (
(171.667,97.667,o),
(175,115.667,o),
(175,129,cs),
(175,170.12,o),
(148.076,220,o),
(92,220,cs),
(64.016,220,o),
(37.852,212.07,o),
(18,185,cs),
(3.333,165,o),
(-4,139.667,o),
(-4,113,cs),
(-4,23.958,o),
(94.353,-33,o),
(212,-33,cs),
(329.333,-33,o),
(413.667,3.667,o),
(467,89,cs),
(520.333,174.333,o),
(545,308,o),
(545,500,cs),
(545,1163,ls),
(545,1280.16,o),
(568.167,1366,o),
(703,1366,c),
(703,1434,l),
(158,1434,l),
(158,1343,l),
(367,1352,l),
(367,285,ls),
(367,201,o),
(357,143.333,o),
(337,106,cs),
(317,68.667,o),
(286,52.333,o),
(246,51,cs),
(227.375,51,o),
(183.163,55.756,o),
(165,83,c)
);
}
);
userData = {
assembly = "NPUSHB[ ]	/* 45 values pushed */
0 3 2 1 1 3 112 0 5 1 0 1 5 0 126 0 1 1 2 94 0 2 2 32 75 0 0 0 4 95 0 4 4 41 4 76 41 41 17 17 21 36 6 8 26
CALL[ ]	/* CallFunction */";
};
width = 764;
},
{
layerId = "01037D14-118B-4CC1-B98A-141C2A413BDA";
shapes = (
{
closed = 1;
nodes = (
(722,1284.098,o),
(773.494,1293.6,o),
(868,1299,c),
(868,1434,l),
(280,1434,l),
(280,1276,l),
(434,1282,l),
(428.713,1247.637,o),
(426,1173.319,o),
(426,1098,cs),
(426,277,ls),
(426,161,o),
(393.667,114,o),
(335,114,cs),
(321.299,114,o),
(283.508,121.729,o),
(273,148,c),
(283.667,170.667,o),
(291,196.333,o),
(291,219,cs),
(291,286.636,o),
(248.681,357,o),
(154,357,cs),
(52.952,357,o),
(2,275.375,o),
(2,186,cs),
(2,58.981,o),
(133.478,-33,o),
(295,-33,cs),
(432.333,-33,o),
(540,6.667,o),
(612,96,cs),
(684,185.333,o),
(722,323.667,o),
(722,521,cs),
(722,1121,l),
(722,1121,l)
);
}
);
userData = {
assembly = "NPUSHB[ ]	/* 46 values pushed */
23 20 2 2 1 1 74 0 1 3 2 3 1 2 126 5 1 3 3 4 93 0 4 4 32 75 0 2 2 0 95 0 0 0 41 0 76 17 17 39 43 40 36 6 8 26
CALL[ ]	/* CallFunction */";
};
width = 924;
}
);
note = J;
unicode = 74;
}
{
glyphname = K;
kernLeft = B;
layers = (
{
layerId = m01;
shapes = (
{
closed = 1;
nodes = (
(254,170.279,o),
(264.812,73.235,o),
(113,68,c),
(113,0,l),
(574,0,l),
(574,90,l),
(426,82,l),
(431.333,116.667,o),
(433,169.333,o),
(433,244,cs),
(433,696,l),
(533,698,l),
(582.333,667.333,o),
(635,600,o),
(687,532,cs),
(932,201,ls),
(1002.498,109.352,o),
(1094.927,0,o),
(1139,0,cs),
(1389,0,l),
(1389,68,l),
(1345,68,o),
(1309.333,71.5,o),
(1264,101.5,cs),
(1218.667,131.5,o),
(1165.333,187,o),
(1088,291,cs),
(859,596,ls),
(806.307,662.56,o),
(764.971,722.846,o),
(689,770,c),
(889,1090,ls),
(1025.423,1310.376,o),
(1130.252,1352.712,o),
(1303,1366,c),
(1303,1434,l),
(863,1434,l),
(863,1350,l),
(988,1354,l),
(930.361,1307.34,o),
(878.166,1237.64,o),
(842,1182,cs),
(586,778,l),
(433,778,l),
(433,1114,ls),
(433,1260.576,o),
(421.929,1360.756,o),
(574,1366,c),
(574,1434,l),
(113,1434,l),
(113,1343,l),
(261,1352,l),
(255.667,1310.667,o),
(254,1260,o),
(254,1204,cs),
(254,319,l),
(254,319,l),
(254,319,l)
);
}
);
userData = {
assembly = "NPUSHB[ ]	/* 82 values pushed */
24 1 2 1 30 1 8 3 2 74 0 2 1 0 0 2 112 0 3 0 8 9 3 8 101 4 1 0 0 1 94 5 1 1 1 32 75 0 9 9 7 93 10 1 7 7 33 75 11 1 6 6 7 93 10 1 7 7 33 7 76 62 61 60 59 58 57 53 52 43 42 41 40 17 22 21 17 17 19 12 8 26
CALL[ ]	/* CallFunction */";
};
width = 1364;
},
{
layerId = "01037D14-118B-4CC1-B98A-141C2A413BDA";
shapes = (
{
closed = 1;
nodes = (
(544,1284.098,o),
(595.494,1293.6,o),
(690,1299,c),
(690,1434,l),
(102,1434,l),
(102,1276,l),
(256,1282,l),
(250.713,1247.637,o),
(248,1173.319,o),
(248,1098,cs),
(248,313,ls),
(248,147.844,o),
(195.372,140.492,o),
(102,135,c),
(102,0,l),
(690,0,l),
(690,158,l),
(536,152,l),
(541.287,186.363,o),
(544,260.681,o),
(544,336,cs),
(544,645,l),
(618,646,l),
(654.618,619.844,o),
(699.291,555.534,o),
(738,503,cs),
(940,208,ls),
(988.552,138.639,o),
(1103.178,2.832,o),
(1140,0,c),
(1456,0,l),
(1456,135,l),
(1361.964,140.373,o),
(1265.994,244.879,o),
(1187,357,cs),
(976,654,ls),
(944,699.333,o),
(904,738.667,o),
(848,772,c),
(848,775,l),
(1044,1089,ls),
(1100,1179.667,o),
(1156.5,1231.833,o),
(1210.5,1260.5,cs),
(1264.5,1289.167,o),
(1314.333,1296.333,o),
(1361,1299,c),
(1361,1434,l),
(860,1434,l),
(860,1276,l),
(990,1284,l),
(990,1282,l),
(953.024,1252.947,o),
(894.845,1155.955,o),
(849,1077,cs),
(693,809,l),
(544,809,l),
(544,1121,l),
(544,1121,l)
);
}
);
userData = {
assembly = "NPUSHB[ ]	/* 62 values pushed */
18 1 6 0 1 74 0 0 0 6 4 0 6 101 12 10 3 3 1 1 2 93 11 1 2 2 32 75 9 7 2 4 4 5 93 8 1 5 5 33 5 76 68 67 66 65 64 62 53 52 17 37 27 17 30 17 17 38 16 13 8 29
CALL[ ]	/* CallFunction */";
};
width = 1459;
}
);
note = K;
unicode = 75;
}
{
glyphname = L;
kernLeft = B;
kernRight = L;
layers = (
{
layerId = m01;
shapes = (
{
closed = 1;
nodes = (
(433,1260.576,o),
(421.929,1360.756,o),
(574,1366,c),
(574,1434,l),
(113,1434,l),
(113,1343,l),
(261,1352,l),
(255.667,1310.667,o),
(254,1260,o),
(254,1204,cs),
(254,319,ls),
(254,170.279,o),
(264.812,73.235,o),
(113,68,c),
(113,0,l),
(1129,0,l),
(1141,424,l),
(1072,424,l),
(1072,302.667,o),
(1049,217.667,o),
(1005,163,cs),
(961,108.333,o),
(894.333,83.333,o),
(809,82,cs),
(426,76,l),
(431.333,110.667,o),
(433,161.333,o),
(433,236,cs),
(433,1114,l),
(433,1114,l),
(433,1114,l)
);
}
);
userData = {
assembly = "NPUSHB[ ]	/* 47 values pushed */
0 6 5 4 4 6 112 0 1 4 0 4 1 0 126 0 4 4 5 94 0 5 5 32 75 3 1 0 0 2 94 0 2 2 33 2 76 17 17 24 17 17 20 35 7 8 27
CALL[ ]	/* CallFunction */";
};
width = 1184;
},
{
layerId = "01037D14-118B-4CC1-B98A-141C2A413BDA";
shapes = (
{
closed = 1;
nodes = (
(1206,491,l),
(1070,491,l),
(1070,267,o),
(972.333,156,o),
(811,156,cs),
(536,155,l),
(541.264,189.218,o),
(544,259.809,o),
(544,336,cs),
(544,1121,ls),
(544,1284.098,o),
(595.494,1293.6,o),
(690,1299,c),
(690,1434,l),
(102,1434,l),
(102,1276,l),
(256,1282,l),
(250.713,1247.637,o),
(248,1173.319,o),
(248,1098,cs),
(248,313,ls),
(248,147.844,o),
(195.372,140.492,o),
(102,135,c),
(102,0,l),
(1194,0,l),
(1194,0,l)
);
}
);
userData = {
assembly = "NPUSHB[ ]	/* 47 values pushed */
0 5 1 0 1 5 0 126 3 1 1 1 2 93 0 2 2 32 75 4 1 0 0 6 94 7 1 6 6 33 6 76 0 0 0 33 0 33 18 57 17 17 41 17 8 8 26
CALL[ ]	/* CallFunction */";
};
width = 1238;
}
);
note = L;
unicode = 76;
}
{
glyphname = M;
layers = (
{
layerId = m01;
shapes = (
{
closed = 1;
nodes = (
(276,1351,l),
(231,256,ls),
(225.89,158.909,o),
(219.324,70.694,o),
(90,68,c),
(90,0,l),
(481,0,l),
(481,90,l),
(327,82,l),
(333.667,132.667,o),
(333.667,194.667,o),
(335,256,cs),
(336.915,388.12,o),
(341.622,543.239,o),
(346,714,cs),
(350.747,899.125,o),
(354.923,1036.609,o),
(358,1112,cs),
(360,1202,l),
(518.249,782.64,o),
(705.577,381.694,o),
(885,-20,c),
(946,-20,l),
(1407,1118,ls),
(1411.667,1130,o),
(1416.333,1141.5,o),
(1421,1152.5,cs),
(1425.667,1163.5,o),
(1430,1174,o),
(1434,1184,c),
(1487,311,ls),
(1495.008,156.187,o),
(1477.172,70.629,o),
(1351,68,c),
(1351,0,l),
(1810,0,l),
(1810,90,l),
(1661,83,l),
(1661,119,o),
(1659.667,163,o),
(1657,211,cs),
(1603,1143,ls),
(1597.667,1227,o),
(1608,1283.333,o),
(1632,1318,cs),
(1656,1352.667,o),
(1693,1367.333,o),
(1745,1366,c),
(1745,1434,l),
(1442,1434,l),
(1378.667,1272.667,o),
(1314.5,1116.333,o),
(1249.5,965,cs),
(1184.5,813.667,o),
(1122.333,663.333,o),
(1063,514,cs),
(1029.786,429.455,o),
(989.019,322.379,o),
(958,250,c),
(954,250,l),
(869.102,444.613,o),
(785.26,641.111,o),
(704,830.5,cs),
(621.333,1023.167,o),
(536.667,1219.333,o),
(442,1434,c),
(129,1434,l),
(129,1346,l),
(129,1346,l),
(129,1346,l)
);
}
);
userData = {
assembly = "NPUSHB[ ]	/* 74 values pushed */
46 36 6 3 3 10 1 74 9 1 5 3 4 3 5 112 0 2 2 0 93 1 1 0 0 32 75 0 10 10 0 93 1 1 0 0 32 75 7 1 3 3 4 93 8 1 4 4 33 75 0 6 6 33 6 76 68 67 62 61 60 59 58 57 25 17 17 24 17 30 16 11 8 27
CALL[ ]	/* CallFunction */";
};
width = 1880;
},
{
layerId = "01037D14-118B-4CC1-B98A-141C2A413BDA";
shapes = (
{
closed = 1;
nodes = (
(1454.919,915.913,o),
(1462.476,774.44,o),
(1464,747,cs),
(1481,313,ls),
(1486.303,148.607,o),
(1428,140.471,o),
(1335,135,c),
(1335,0,l),
(1904,0,l),
(1904,158,l),
(1750,152,l),
(1755.848,190.013,o),
(1760.464,267.02,o),
(1758,336,cs),
(1727,1121,ls),
(1721.802,1282.149,o),
(1776.316,1293.475,o),
(1873,1299,c),
(1873,1434,l),
(1400,1434,l),
(1084,588,ls),
(1066.667,544,o),
(1050.5,499.833,o),
(1035.5,455.5,cs),
(1020.5,411.167,o),
(1004.333,365.333,o),
(987,318,c),
(985,318,l),
(961.951,392.91,o),
(907.179,547.968,o),
(871,641,cs),
(561,1434,l),
(108,1434,l),
(108,1276,l),
(263,1282,l),
(258.747,1254.358,o),
(254,1166.118,o),
(254,1098,cs),
(242,313,ls),
(239.378,150.428,o),
(190.89,140.582,o),
(96,135,c),
(96,0,l),
(563,0,l),
(563,158,l),
(408,152,l),
(412.828,183.38,o),
(417,260.062,o),
(417,336,cs),
(420,706,ls),
(421.333,830,o),
(418,962.667,o),
(414,1116,c),
(416,1116,l),
(437.333,1017.333,o),
(464.333,921.333,o),
(491,840,cs),
(517.667,758.667,o),
(544,691.333,o),
(560,654,cs),
(835,-20,l),
(1026,-20,l),
(1445,1102,l),
(1447,1102,l),
(1447,1102,l)
);
}
);
userData = {
assembly = "NPUSHB[ ]	/* 52 values pushed */
75 42 8 3 1 4 1 74 7 1 4 4 5 93 6 1 5 5 32 75 10 8 3 3 1 1 0 93 9 2 2 0 0 33 0 76 65 64 63 62 41 17 27 17 41 17 17 47 17 11 8 29
CALL[ ]	/* CallFunction */";
};
width = 1990;
}
);
note = M;
unicode = 77;
}
{
glyphname = Q;
kernLeft = C;
kernRight = O;
layers = (
{
layerId = m01;
shapes = (
{
closed = 1;
nodes = (
(94,542.835,o),
(142.437,358.535,o),
(263.5,208.5,cs),
(341.5,111.833,o),
(449.333,39.333,o),
(588,-2,cs),
(654,-21.333,o),
(727.667,-31.667,o),
(809,-33,cs),
(939.652,-33,o),
(1013.956,-166.627,o),
(1198,-332,cs),
(1324.139,-445,o),
(1395.975,-446,o),
(1544,-446,cs),
(1609,-446,l),
(1609,-379,l),
(1569,-379,o),
(1535,-365.167,o),
(1487,-328.5,cs),
(1439,-291.833,o),
(1376.667,-233,o),
(1282,-145,cs),
(1165.966,-36.878,o),
(1097.677,-18.741,o),
(999,-16,cs),
(996.333,-16,o),
(993.333,-15.667,o),
(990,-15,c),
(1008,-11,o),
(1025.667,-6.333,o),
(1043,-1,cs),
(1256.329,67.265,o),
(1386.264,214.833,o),
(1458.5,371.5,cs),
(1509.833,482.833,o),
(1536,603.667,o),
(1536,717,cs),
(1536,880.176,o),
(1484.019,1065.448,o),
(1358.5,1220.5,cs),
(1279.167,1318.5,o),
(1171.167,1392.333,o),
(1034.5,1435,cs),
(966.167,1456.333,o),
(890.333,1467,o),
(807,1467,cs),
(552.142,1467,o),
(376.779,1354.354,o),
(269,1221,cs),
(155.494,1080.56,o),
(94,902.133,o),
(94,717,cs)
);
},
{
closed = 1;
nodes = (
(295,1058.602,o),
(464.077,1385,o),
(800,1385,cs),
(966.17,1385,o),
(1102.399,1295.415,o),
(1193,1157.5,cs),
(1287.788,1013.212,o),
(1332,835.358,o),
(1332,678,cs),
(1332,517.879,o),
(1284.543,366.08,o),
(1205,251.5,cs),
(1120.421,129.666,o),
(991.123,51,o),
(827,51,cs),
(648.75,51,o),
(510.425,147.622,o),
(423.5,288.5,cs),
(334.383,432.931,o),
(295,603.162,o),
(295,754,cs)
);
}
);
userData = {
assembly = "NPUSHB[ ]	/* 46 values pushed */
0 1 5 4 5 1 4 126 0 2 0 3 2 3 99 0 6 6 0 95 0 0 0 40 75 0 5 5 4 95 0 4 4 41 4 76 44 45 39 49 24 62 38 7 8 27
CALL[ ]	/* CallFunction */";
};
width = 1630;
},
{
layerId = "01037D14-118B-4CC1-B98A-141C2A413BDA";
shapes = (
{
closed = 1;
nodes = (
(73,547.22,o),
(115.683,363.792,o),
(230.5,210,cs),
(303.167,112.667,o),
(405.5,39.333,o),
(539.5,-2,cs),
(606.5,-22.667,o),
(682,-33,o),
(766,-33,cs),
(850,-33,o),
(911.5,-69.833,o),
(973.5,-126.5,cs),
(1049.029,-195.532,o),
(1087.407,-249.418,o),
(1185,-335,cs),
(1300.6,-437.158,o),
(1349.856,-446,o),
(1538,-446,cs),
(1626,-446,l),
(1626,-309,l),
(1580.667,-309,o),
(1556.167,-301.167,o),
(1519.5,-272.5,cs),
(1481.163,-242.527,o),
(1419.127,-181.434,o),
(1337,-104,cs),
(1227.49,-5.174,o),
(1163.499,11,o),
(1042,11,c),
(1042,13,l),
(1347.432,127.205,o),
(1504,442.954,o),
(1504,717,cs),
(1504,898.134,o),
(1448.817,1073.373,o),
(1334.5,1219.5,cs),
(1218.869,1367.307,o),
(1033.096,1467,o),
(792,1467,cs),
(538.448,1467,o),
(359.316,1354.919,o),
(250.5,1220.5,cs),
(132.792,1075.097,o),
(73,897.109,o),
(73,717,cs)
);
},
{
closed = 1;
nodes = (
(395,874.471,o),
(417.964,1010.481,o),
(477,1125.5,cs),
(536.85,1242.105,o),
(635.134,1317,o),
(777,1317,cs),
(915.667,1317,o),
(1016.333,1250.167,o),
(1083,1137.5,cs),
(1149.667,1024.833,o),
(1181,866,o),
(1181,682,cs),
(1181,555.337,o),
(1159.314,420.537,o),
(1100,306,cs),
(1040.978,192.027,o),
(944.379,117,o),
(807,117,cs),
(657.663,117,o),
(549.801,204.423,o),
(485,332,cs),
(419.38,461.189,o),
(395,612.098,o),
(395,741,cs)
);
}
);
userData = {
assembly = "NPUSHB[ ]	/* 46 values pushed */
0 1 5 4 5 1 4 126 0 2 0 3 2 3 99 0 6 6 0 95 0 0 0 40 75 0 5 5 4 95 0 4 4 41 4 76 42 44 39 49 24 43 38 7 8 27
CALL[ ]	/* CallFunction */";
};
width = 1576;
}
);
note = Q;
unicode = 81;
}
{
glyphname = R;
kernLeft = B;
layers = (
{
layerId = m01;
shapes = (
{
closed = 1;
nodes = (
(630.44,584.342,o),
(671.585,504.796,o),
(709,446,cs),
(846,227,ls),
(905.719,134.707,o),
(951.571,67.105,o),
(1029,0,c),
(1287,0,l),
(1287,68,l),
(1157.432,68,o),
(1105.704,153.658,o),
(1037,262,cs),
(897,481,ls),
(846.333,561,o),
(808.333,621.333,o),
(755,660,c),
(911,692,o),
(1006.667,753.333,o),
(1064,828,cs),
(1121.333,902.667,o),
(1139,989,o),
(1139,1069,cs),
(1139,1296.072,o),
(977.862,1427.976,o),
(582,1436,cs),
(423.333,1438.667,o),
(267.667,1436.667,o),
(113,1434,c),
(113,1343,l),
(261,1352,l),
(255.667,1310.667,o),
(254,1260,o),
(254,1204,cs),
(254,319,ls),
(254,170.279,o),
(264.812,73.235,o),
(113,68,c),
(113,0,l),
(574,0,l),
(574,90,l),
(426,82,l),
(431.333,116.667,o),
(433,169.333,o),
(433,244,cs),
(433,642,l),
(479.667,638,o),
(526.667,637.333,o),
(572,640,c)
);
},
{
closed = 1;
nodes = (
(433,1263.2,o),
(421.779,1358,o),
(574,1358,cs),
(826,1358,o),
(940,1252.333,o),
(940,1047,cs),
(940,810.602,o),
(784.145,725.005,o),
(560,717,cs),
(512,714.333,o),
(475.667,717.333,o),
(433,720,c),
(433,1114,l),
(433,1114,l),
(433,1114,l)
);
}
);
userData = {
assembly = "NPUSHB[ ]	/* 67 values pushed */
35 3 2 0 8 1 74 0 8 0 0 1 8 0 103 9 1 4 4 5 93 0 5 5 32 75 0 1 1 2 93 7 1 2 2 33 75 6 1 3 3 2 93 7 1 2 2 33 2 76 69 67 61 57 46 45 44 43 65 24 17 17 21 32 10 8 26
CALL[ ]	/* CallFunction */";
};
width = 1286;
},
{
layerId = "01037D14-118B-4CC1-B98A-141C2A413BDA";
shapes = (
{
closed = 1;
nodes = (
(1015,526.667,o),
(960.667,580,o),
(910,600,c),
(910,602,l),
(1032.667,636.667,o),
(1122.167,694.333,o),
(1181.5,765,cs),
(1240.833,835.667,o),
(1270.333,922.333,o),
(1269,1013,cs),
(1269,1170.333,o),
(1212.667,1276.167,o),
(1110,1343.5,cs),
(1007.333,1410.833,o),
(862.333,1438,o),
(685,1438,cs),
(102,1434,l),
(102,1276,l),
(256,1282,l),
(250.713,1247.637,o),
(248,1173.319,o),
(248,1098,cs),
(248,313,ls),
(248,147.844,o),
(195.372,140.492,o),
(102,135,c),
(102,0,l),
(710,0,l),
(710,158,l),
(536,152,l),
(541.333,186.667,o),
(544,262.333,o),
(544,337,cs),
(544,558,l),
(554,557.333,o),
(563.333,557,o),
(572,557,cs),
(588,557,o),
(596,557,o),
(596,557,c),
(622,557,ls),
(630.667,557,o),
(640.667,557.333,o),
(652,558,c),
(676,528.667,o),
(703.333,494,o),
(738,438,cs),
(888,193,ls),
(942.667,103.667,o),
(991,34.667,o),
(1039,0,c),
(1376,0,l),
(1376,135,l),
(1329.333,136.333,o),
(1294.5,150.333,o),
(1260.5,181,cs),
(1226.5,211.667,o),
(1192.333,259,o),
(1147,327,cs),
(1051,472,l),
(1051,472,l)
);
},
{
closed = 1;
nodes = (
(609.333,705,o),
(576,708,o),
(544,712,c),
(544,1132,ls),
(544,1276.024,o),
(595.202,1294,o),
(682,1294,cs),
(725.771,1294,o),
(787.979,1290.078,o),
(852.5,1252,cs),
(893.167,1228,o),
(926,1187.5,o),
(946,1125.5,cs),
(956,1094.5,o),
(961,1057,o),
(961,1013,cs),
(961,802.089,o),
(868.06,705,o),
(644,705,cs)
);
}
);
userData = {
assembly = "NPUSHB[ ]	/* 63 values pushed */
76 1 8 6 53 1 2 8 2 74 10 1 8 0 2 0 8 2 101 9 1 6 6 7 93 0 7 7 32 75 5 3 2 0 0 1 93 4 1 1 1 33 1 76 59 58 71 69 58 78 59 78 33 41 17 17 20 119 17 20 11 8 28
CALL[ ]	/* CallFunction */";
};
width = 1404;
}
);
note = R;
unicode = 82;
}
{
glyphname = U;
kernLeft = U;
kernRight = U;
layers = (
{
layerId = m01;
shapes = (
{
closed = 1;
nodes = (
(1336,1261.353,o),
(1324.953,1360.723,o),
(1478,1366,c),
(1478,1434,l),
(1097,1434,l),
(1097,1343,l),
(1244,1352,l),
(1240,1310.667,o),
(1238,1261.333,o),
(1238,1204,cs),
(1230,629,ls),
(1224.6,305.027,o),
(1100.474,84,o),
(806,84,cs),
(683.333,84,o),
(595.667,117,o),
(533,173,cs),
(501.667,201,o),
(476.167,234,o),
(456.5,272,cs),
(395.165,390.511,o),
(382,536.832,o),
(382,688,cs),
(382,1204,ls),
(382,1259.862,o),
(383.99,1366,o),
(523,1366,c),
(523,1434,l),
(63,1434,l),
(63,1346,l),
(210,1352,l),
(206.691,1318.914,o),
(202,1193.363,o),
(202,1114,cs),
(202,698,ls),
(202,191.962,o),
(343.379,-33,o),
(781,-33,cs),
(1191.415,-33,o),
(1329.343,282.995,o),
(1332,639,cs),
(1336,1114,l),
(1336,1114,l),
(1336,1114,l)
);
}
);
userData = {
assembly = "MPPEM[ ]	/* MeasurePixelPerEm */
PUSHB[ ]	/* 1 value pushed */
9
LT[ ]	/* LessThan */
IF[ ]	/* If */
NPUSHB[ ]	/* 31 values pushed */
7 1 3 2 1 1 3 112 5 1 1 1 2 94 6 1 2 2 32 75 0 4 4 0 95 0 0 0 41 0 76
ELSE[ ]	/* Else */
NPUSHB[ ]	/* 31 values pushed */
0 3 2 1 1 3 112 7 5 2 1 1 2 94 6 1 2 2 32 75 0 4 4 0 95 0 0 0 41 0 76
EIF[ ]	/* EndIf */
NPUSHB[ ]	/* 11 values pushed */
17 17 23 43 17 17 26 36 8 8 28
CALL[ ]	/* CallFunction */";
};
width = 1540;
},
{
layerId = "01037D14-118B-4CC1-B98A-141C2A413BDA";
shapes = (
{
closed = 1;
nodes = (
(1361,1284.098,o),
(1412.494,1293.6,o),
(1507,1299,c),
(1507,1434,l),
(1033,1434,l),
(1033,1276,l),
(1187,1282,l),
(1181.713,1247.637,o),
(1179,1173.319,o),
(1179,1098,cs),
(1179,561,ls),
(1179,265.73,o),
(1051.931,123,o),
(838,123,cs),
(752.667,123,o),
(667,143,o),
(603,207,cs),
(539,271,o),
(496,379.333,o),
(496,558,cs),
(496,1121,ls),
(496,1284.098,o),
(547.494,1293.6,o),
(642,1299,c),
(642,1434,l),
(53,1434,l),
(53,1276,l),
(207,1282,l),
(201.713,1247.637,o),
(199,1173.319,o),
(199,1098,cs),
(199,602,ls),
(199,425.845,o),
(229.866,271.13,o),
(320.5,153,cs),
(379.833,75.667,o),
(466.5,19.5,o),
(584.5,-10.5,cs),
(643.5,-25.5,o),
(711.667,-33,o),
(789,-33,cs),
(953,-33,o),
(1095.5,9.667,o),
(1197.5,111,cs),
(1299.5,212.333,o),
(1361,372,o),
(1361,608,cs),
(1361,1121,l),
(1361,1121,l)
);
}
);
userData = {
assembly = "NPUSHB[ ]	/* 36 values pushed */
7 5 3 3 1 1 2 93 6 1 2 2 32 75 0 4 4 0 95 0 0 0 41 0 76 17 17 41 41 17 17 43 36 8 8 28
CALL[ ]	/* CallFunction */";
};
width = 1556;
}
);
note = U;
unicode = 85;
}
{
glyphname = Y;
kernLeft = Y;
kernRight = Y;
layers = (
{
layerId = m01;
shapes = (
{
closed = 1;
nodes = (
(580,222,ls),
(580,132.836,o),
(550.628,71.847,o),
(441,68,c),
(441,0,l),
(922,0,l),
(922,90,l),
(752,82,l),
(756,116.667,o),
(758,170.667,o),
(758,244,c),
(756.667,244,o),
(757.667,482,o),
(759,614,c),
(955,982.667,o),
(1063.833,1183.167,o),
(1085.5,1215.5,cs),
(1107.167,1247.833,o),
(1129.667,1274.833,o),
(1153,1296.5,cs),
(1199.667,1339.833,o),
(1251,1362,o),
(1319,1366,c),
(1319,1434,l),
(901,1434,l),
(901,1343,l),
(1063,1350,l),
(1036.635,1321.877,o),
(1018.568,1289.396,o),
(976,1212,cs),
(946.667,1158.667,o),
(855.667,986.667,o),
(703,696,c),
(699,696,l),
(595.072,840.082,o),
(499.585,995.981,o),
(408,1143,cs),
(325.624,1273.207,o),
(327.32,1366,o),
(516,1366,c),
(516,1434,l),
(-12,1434,l),
(-12,1343,l),
(115,1348,l),
(125.667,1296,o),
(155.333,1225.333,o),
(226,1116,cs),
(581,553,l),
(580,319,l),
(580,319,l),
(580,319,l)
);
}
);
userData = {
assembly = "NPUSHB[ ]	/* 58 values pushed */
32 18 0 3 6 0 1 74 5 1 2 1 0 0 2 112 0 8 6 7 6 8 112 3 1 0 0 1 94 4 1 1 1 32 75 0 6 6 7 93 0 7 7 33 7 76 17 17 25 17 17 30 17 17 20 9 8 29
CALL[ ]	/* CallFunction */";
};
width = 1298;
},
{
layerId = "01037D14-118B-4CC1-B98A-141C2A413BDA";
shapes = (
{
closed = 1;
nodes = (
(1204.739,1228.847,o),
(1260.833,1282.972,o),
(1357,1299,c),
(1357,1434,l),
(905,1434,l),
(905,1276,l),
(1062,1284,l),
(1062,1282,l),
(1029.563,1244.929,o),
(971.469,1130.938,o),
(954,1096,cs),
(848,887,ls),
(822.667,835,o),
(802,792.5,o),
(786,759.5,cs),
(770,726.5,o),
(758.667,702.333,o),
(752,687,c),
(749,687,l),
(732.574,732.17,o),
(691.819,805.454,o),
(667,848,cs),
(653,872,o),
(646,884,o),
(646,884,c),
(489,1141,ls),
(470.333,1170.333,o),
(465.333,1196.333,o),
(464,1219,cs),
(464,1272.333,o),
(511,1300,o),
(587,1300,cs),
(591,1300,o),
(594.833,1299.833,o),
(598.5,1299.5,cs),
(602.167,1299.167,o),
(606,1299,o),
(610,1299,c),
(610,1434,l),
(7,1434,l),
(7,1276,l),
(106,1282,l),
(106,1237.544,o),
(142.026,1154.159,o),
(184,1087,cs),
(562,492,l),
(562,313,ls),
(562,152.92,o),
(510.652,137.784,o),
(416,135,c),
(416,0,l),
(1014,0,l),
(1014,158,l),
(850,152,l),
(855.287,186.363,o),
(858,260.681,o),
(858,336,cs),
(858,568,l),
(1125,1080,l),
(1125,1080,l)
);
}
);
userData = {
assembly = "NPUSHB[ ]	/* 51 values pushed */
42 32 23 16 0 5 0 4 1 74 57 1 4 1 73 5 1 4 4 3 93 6 1 3 3 32 75 2 1 0 0 1 93 0 1 1 33 1 76 56 55 54 52 65 29 17 17 37 7 8 25
CALL[ ]	/* CallFunction */";
};
width = 1365;
}
);
note = Y;
unicode = 89;
}
{
glyphname = bracketleft;
layers = (
{
layerId = m01;
shapes = (
{
closed = 1;
nodes = (
(711,-522,l),
(711,-399,l),
(308,-393,l),
(317,1417,l),
(707,1423,l),
(707,1546,l),
(164,1546,l),
(162,-522,l),
(162,-522,l)
);
}
);
userData = {
assembly = "NPUSHB[ ]	/* 28 values pushed */
0 1 1 0 93 0 0 0 34 75 0 2 2 3 93 0 3 3 37 3 76 17 17 17 16 4 8 24
CALL[ ]	/* CallFunction */";
};
width = 735;
},
{
layerId = "01037D14-118B-4CC1-B98A-141C2A413BDA";
shapes = (
{
closed = 1;
nodes = (
(788,-522,l),
(788,-377,l),
(385,-371,l),
(394,1395,l),
(784,1401,l),
(784,1546,l),
(129,1546,l),
(127,-522,l),
(127,-522,l)
);
}
);
userData = {
assembly = "NPUSHB[ ]	/* 28 values pushed */
0 1 1 0 93 0 0 0 34 75 0 2 2 3 93 0 3 3 37 3 76 17 17 17 16 4 8 24
CALL[ ]	/* CallFunction */";
};
width = 791;
}
);
note = bracketleft;
unicode = 91;
}
{
glyphname = backslash;
layers = (
{
layerId = m01;
shapes = (
{
closed = 1;
nodes = (
(1326,-96,l),
(758,1554,l),
(637,1554,l),
(1205,-96,l),
(1205,-96,l)
);
}
);
userData = {
assembly = "NPUSHB[ ]	/* 16 values pushed */
0 1 0 1 132 0 0 0 34 0 76 17 16 2 8 22
CALL[ ]	/* CallFunction */";
};
width = 1413;
},
{
layerId = "01037D14-118B-4CC1-B98A-141C2A413BDA";
shapes = (
{
closed = 1;
nodes = (
(1373,-96,l),
(805,1554,l),
(624,1554,l),
(1192,-96,l),
(1192,-96,l)
);
}
);
userData = {
assembly = "NPUSHB[ ]	/* 16 values pushed */
0 1 0 1 132 0 0 0 34 0 76 17 16 2 8 22
CALL[ ]	/* CallFunction */";
};
width = 1432;
}
);
note = backslash;
unicode = 92;
}
{
glyphname = bracketright;
layers = (
{
layerId = m01;
shapes = (
{
closed = 1;
nodes = (
(25,1546,l),
(25,1423,l),
(428,1417,l),
(419,-393,l),
(29,-399,l),
(29,-522,l),
(572,-522,l),
(574,1546,l),
(574,1546,l)
);
}
);
userData = {
assembly = "NPUSHB[ ]	/* 28 values pushed */
0 2 2 3 93 0 3 3 34 75 0 1 1 0 93 0 0 0 37 0 76 17 17 17 16 4 8 24
CALL[ ]	/* CallFunction */";
};
width = 735;
},
{
layerId = "01037D14-118B-4CC1-B98A-141C2A413BDA";
shapes = (
{
closed = 1;
nodes = (
(3,1546,l),
(3,1401,l),
(406,1395,l),
(397,-371,l),
(7,-377,l),
(7,-522,l),
(662,-522,l),
(664,1546,l),
(664,1546,l)
);
}
);
userData = {
assembly = "NPUSHB[ ]	/* 28 values pushed */
0 2 2 3 93 0 3 3 34 75 0 1 1 0 93 0 0 0 37 0 76 17 17 17 16 4 8 24
CALL[ ]	/* CallFunction */";
};
width = 791;
}
);
note = bracketright;
unicode = 93;
}
{
glyphname = grave;
layers = (
{
layerId = m01;
shapes = (
{
closed = 1;
nodes = (
(424,1235,l),
(252,1511,l),
(221.333,1555,o),
(189.5,1567,o),
(167.5,1567,cs),
(130.03,1567,o),
(104.626,1542.539,o),
(96.5,1517,cs),
(94.167,1509.667,o),
(93,1501.667,o),
(93,1493,cs),
(93,1478.333,o),
(98,1464.333,o),
(102,1455,cs),
(108,1439.667,o),
(119.667,1423,o),
(137,1405,cs),
(367,1188,l),
(367,1188,l)
);
}
);
userData = {
assembly = "PUSHB[ ]	/* 2 values pushed */
6 100
WCVTP[ ]	/* WriteCVTInPixels */
NPUSHB[ ]	/* 13 values pushed */
14 13 2 0 71 0 0 0 116 25 1 8 21
CALL[ ]	/* CallFunction */
PUSHB[ ]	/* 2 values pushed */
6 0
WCVTP[ ]	/* WriteCVTInPixels */";
};
width = 516;
},
{
layerId = "01037D14-118B-4CC1-B98A-141C2A413BDA";
shapes = (
{
closed = 1;
nodes = (
(488,1241,l),
(320,1527,ls),
(292,1572.333,o),
(244.667,1602,o),
(198,1602,cs),
(135.644,1602,o),
(91,1546.445,o),
(91,1492,cs),
(91,1449.333,o),
(113,1404.667,o),
(145,1374,c),
(394,1158,l),
(394,1158,l)
);
}
);
userData = {
assembly = "PUSHB[ ]	/* 2 values pushed */
6 100
WCVTP[ ]	/* WriteCVTInPixels */
NPUSHB[ ]	/* 13 values pushed */
13 12 2 0 71 0 0 0 116 39 1 8 21
CALL[ ]	/* CallFunction */
PUSHB[ ]	/* 2 values pushed */
6 0
WCVTP[ ]	/* WriteCVTInPixels */";
};
width = 578;
}
);
note = grave;
unicode = 96;
}
{
glyphname = c;
kernLeft = c;
kernRight = c;
layers = (
{
layerId = m01;
shapes = (
{
closed = 1;
nodes = (
(814,845.667,o),
(807,814.667,o),
(807,788,cs),
(807,751.145,o),
(833.117,693.449,o),
(902,696,cs),
(963.333,697.333,o),
(997,745.333,o),
(997,804,cs),
(997,870.667,o),
(959.667,933.333,o),
(893,980,cs),
(826.333,1026.667,o),
(731.333,1057,o),
(618,1057,cs),
(462.01,1057,o),
(326.374,988.926,o),
(232,881.5,cs),
(138.451,775.014,o),
(84,638.229,o),
(84,494,cs),
(84,162.489,o),
(310.978,-33,o),
(590,-33,cs),
(728.867,-33,o),
(911.552,39.716,o),
(1020,209,c),
(967,250,l),
(900.668,151.828,o),
(773.153,74,o),
(645,74,cs),
(539.667,74,o),
(451.333,123.167,o),
(390,206.5,cs),
(328.667,289.833,o),
(293,408,o),
(293,544,cs),
(293,685.333,o),
(329.333,795.667,o),
(388,869,cs),
(446.667,942.333,o),
(529.667,981,o),
(623,981,cs),
(684.749,981,o),
(801.284,965.413,o),
(838,871,c)
);
}
);
userData = {
assembly = "NPUSHB[ ]	/* 48 values pushed */
0 1 4 0 21 20 2 1 4 2 74 0 4 0 1 0 4 1 126 0 0 0 3 95 0 3 3 43 75 0 1 1 2 95 0 2 2 41 2 76 38 42 41 40 36 5 8 25
CALL[ ]	/* CallFunction */";
};
width = 1090;
},
{
layerId = "01037D14-118B-4CC1-B98A-141C2A413BDA";
shapes = (
{
closed = 1;
nodes = (
(713,698.017,o),
(747.651,623,o),
(846,623,cs),
(935.614,623,o),
(990,689.43,o),
(990,776,cs),
(990,919.6,o),
(855.2,1057,o),
(596,1057,cs),
(278.747,1057,o),
(63,796.37,o),
(63,490,cs),
(63,158.075,o),
(290.751,-33,o),
(567,-33,cs),
(641.667,-33,o),
(721,-22.167,o),
(801,14.5,cs),
(881,51.167,o),
(960.333,113.333,o),
(1035,216,c),
(941,307,l),
(869.594,214.437,o),
(754.527,150,o),
(645,150,cs),
(435.273,150,o),
(363,338.668,o),
(363,548,cs),
(363,666.667,o),
(387.5,757.5,o),
(429.5,819.5,cs),
(471.5,881.5,o),
(529.667,913,o),
(599,913,cs),
(639.473,913,o),
(708.966,897.789,o),
(738,845,c),
(720.667,818.333,o),
(713,780,o),
(713,756,cs)
);
}
);
userData = {
assembly = "NPUSHB[ ]	/* 49 values pushed */
3 0 2 4 0 24 23 2 1 4 2 74 0 4 0 1 0 4 1 126 0 0 0 3 95 0 3 3 43 75 0 1 1 2 95 0 2 2 41 2 76 40 40 41 40 39 5 8 25
CALL[ ]	/* CallFunction */";
};
width = 1060;
}
);
note = c;
unicode = 99;
}
{
glyphname = e;
kernLeft = c;
kernRight = e;
layers = (
{
layerId = m01;
shapes = (
{
closed = 1;
nodes = (
(764.371,977,o),
(825,820.945,o),
(825,678,c),
(303,678,l),
(336.333,888.667,o),
(444,977,o),
(604,977,cs)
);
},
{
closed = 1;
nodes = (
(1018,756,o),
(971,870.333,o),
(895,945,cs),
(819,1019.667,o),
(715.333,1057,o),
(602,1057,cs),
(293.324,1057,o),
(86,797.714,o),
(86,510,cs),
(86,177.947,o),
(303.241,-33,o),
(586,-33,cs),
(727.564,-33,o),
(920.033,33.432,o),
(1030,201,c),
(980,242,l),
(907.977,142.276,o),
(760.289,72,o),
(635,72,cs),
(395.009,72,o),
(294.333,277.313,o),
(297,592,c),
(1018,604,l),
(1018,604,l),
(1018,604,l)
);
}
);
userData = {
assembly = "NPUSHB[ ]	/* 56 values pushed */
21 20 2 3 2 1 74 0 1 0 2 3 1 2 101 6 1 0 0 5 95 0 5 5 43 75 0 3 3 4 95 0 4 4 41 4 76 1 0 37 35 27 25 16 14 10 9 4 3 0 8 1 8 7 8 20
CALL[ ]	/* CallFunction */";
};
width = 1110;
},
{
layerId = "01037D14-118B-4CC1-B98A-141C2A413BDA";
shapes = (
{
closed = 1;
nodes = (
(684.226,913,o),
(748.761,848.032,o),
(754,683,c),
(377,683,l),
(395.069,814.643,o),
(462.366,913,o),
(585,913,cs)
);
},
{
closed = 1;
nodes = (
(1038.333,683,o),
(1011.667,783.333,o),
(969,858,cs),
(947.667,895.333,o),
(922.167,926.667,o),
(892.5,952,cs),
(800.369,1030.674,o),
(688.819,1057,o),
(575,1057,cs),
(268.638,1057,o),
(63,800.619,o),
(63,510,cs),
(63,176.987,o),
(268.329,-33,o),
(569,-33,cs),
(709.078,-33,o),
(900.235,7.629,o),
(1046,217,c),
(954,304,l),
(863.907,193.314,o),
(740.539,150,o),
(653,150,cs),
(437.356,150,o),
(364,320.978,o),
(364,539,c),
(1037,551,l),
(1037,551,l)
);
}
);
userData = {
assembly = "NPUSHB[ ]	/* 56 values pushed */
23 22 2 3 2 1 74 0 1 0 2 3 1 2 101 6 1 0 0 5 95 0 5 5 43 75 0 3 3 4 95 0 4 4 41 4 76 1 0 39 37 29 27 18 16 12 11 6 5 0 10 1 10 7 8 20
CALL[ ]	/* CallFunction */";
};
width = 1102;
}
);
note = e;
unicode = 101;
}
{
glyphname = g;
layers = (
{
layerId = m01;
shapes = (
{
closed = 1;
nodes = (
(789.006,-75.012,o),
(954,-104.453,o),
(954,-256,cs),
(954,-372.241,o),
(817.338,-475,o),
(581,-475,cs),
(475.667,-475,o),
(388.167,-453.667,o),
(327.5,-415,cs),
(266.833,-376.333,o),
(233,-322,o),
(233,-254,cs),
(233,-174,o),
(275,-100.333,o),
(351,-51,c),
(415,-61.667,o),
(486,-64.333,o),
(562,-67,cs)
);
},
{
closed = 1;
nodes = (
(702.075,985,o),
(782,823.476,o),
(782,645,cs),
(782,483.815,o),
(705.165,365,o),
(554,365,cs),
(403.255,365,o),
(313,496.141,o),
(313,696,cs),
(313,861.675,o),
(398.608,985,o),
(544,985,cs)
);
},
{
closed = 1;
nodes = (
(1000,1025,o),
(1030.333,994.333,o),
(1077,993,cs),
(1139.194,990.409,o),
(1166,1045.487,o),
(1166,1078,cs),
(1166,1142,o),
(1126.333,1180,o),
(1057,1180,cs),
(948.214,1180,o),
(847.898,1094.375,o),
(808,980,c),
(732,1030.667,o),
(640,1057,o),
(548,1057,cs),
(333.276,1057,o),
(117,896.943,o),
(117,652,cs),
(117,510.304,o),
(196.281,399.315,o),
(323,340,c),
(203.454,318.747,o),
(119,226.22,o),
(119,129,cs),
(119,41,o),
(173,-5.333,o),
(261,-32,c),
(177.627,-69.652,o),
(72,-153.515,o),
(72,-278,cs),
(72,-346,o),
(107.667,-414.833,o),
(189,-467.5,cs),
(270.333,-520.167,o),
(399,-555,o),
(583,-555,cs),
(824.465,-555,o),
(1085,-433.227,o),
(1085,-213,cs),
(1085,8.342,o),
(895.637,80.668,o),
(581,94,cs),
(486.333,98,o),
(410.667,102.167,o),
(356,113.5,cs),
(301.333,124.833,o),
(266.333,144,o),
(257,176,cs),
(254.333,184.667,o),
(253,193,o),
(253,201,cs),
(253,244.597,o),
(307.786,301,o),
(411,301,cs),
(437.667,301,o),
(460.833,299.333,o),
(480.5,296,cs),
(500.167,292.667,o),
(522.667,291,o),
(548,291,cs),
(777.151,291,o),
(982,453.857,o),
(982,686,cs),
(982,780.667,o),
(940,867.333,o),
(872,930,c),
(887.195,999.896,o),
(926.796,1054.969,o),
(992,1065,c)
);
}
);
userData = {
assembly = "NPUSHB[ ]	/* 102 values pushed */
118 41 2 8 9 110 46 2 3 2 97 1 4 3 89 1 0 6 4 74 0 9 8 2 9 87 0 3 5 1 4 6 3 4 103 10 12 2 2 2 8 95 0 8 8 43 75 0 6 6 0 95 11 1 0 0 41 75 0 1 1 7 95 0 7 7 45 7 76 22 21 2 0 124 122 116 114 108 106 80 78 70 67 58 56 55 53 32 30 21 40 22 40 12 10 0 20 2 20 13 8 20
CALL[ ]	/* CallFunction */";
};
width = 1133;
},
{
layerId = "01037D14-118B-4CC1-B98A-141C2A413BDA";
shapes = (
{
closed = 1;
nodes = (
(684.333,-118.667,o),
(759,-131.833,o),
(807,-153.5,cs),
(855,-175.167,o),
(879,-207,o),
(879,-249,cs),
(879,-325.264,o),
(776.51,-413,o),
(583,-413,cs),
(411.433,-413,o),
(309,-344.646,o),
(309,-240,cs),
(309,-192,o),
(329.667,-132.667,o),
(375,-98,c),
(434.665,-108.848,o),
(524.777,-111.469,o),
(583,-114,cs)
);
},
{
closed = 1;
nodes = (
(669.147,919,o),
(725,772.527,o),
(725,631,cs),
(725,513.584,o),
(663.007,400,o),
(556,400,cs),
(443.252,400,o),
(381,532.358,o),
(381,677,cs),
(381,801.483,o),
(443.376,919,o),
(553,919,cs)
);
},
{
closed = 1;
nodes = (
(1169.356,985,o),
(1201,1056.042,o),
(1201,1109,cs),
(1201,1189,o),
(1151,1241,o),
(1059,1241,cs),
(929.528,1241,o),
(845.784,1122.344,o),
(799,993,c),
(734.268,1037.814,o),
(631.726,1057,o),
(554,1057,cs),
(318.971,1057,o),
(98,886.851,o),
(98,649,cs),
(98,502.126,o),
(181.846,395.636,o),
(300,351,c),
(300,349,l),
(148.779,303.899,o),
(100,197.812,o),
(100,129,cs),
(100,50.552,o),
(141.34,-20.383,o),
(252,-52,c),
(108.062,-105.977,o),
(58,-198.385,o),
(58,-287,cs),
(58,-356.333,o),
(85.833,-422.5,o),
(158.5,-472.5,cs),
(231.167,-522.5,o),
(347.667,-555,o),
(525,-555,cs),
(670.607,-555,o),
(808.528,-520.786,o),
(916.5,-462.5,cs),
(1030.031,-401.213,o),
(1104,-308.892,o),
(1104,-195,cs),
(1104,42.612,o),
(891.461,112.464,o),
(579,131,cs),
(483,136.333,o),
(417.333,143.333,o),
(376,154,cs),
(334.667,164.667,o),
(317,181.667,o),
(317,207,cs),
(317,245.667,o),
(363,269,o),
(423,269,cs),
(443.667,269,o),
(464.833,267.833,o),
(486.5,265.5,cs),
(508.167,263.167,o),
(528.333,262,o),
(547,262,cs),
(785.711,262,o),
(1012,429.676,o),
(1012,668,cs),
(1012,772,o),
(970,864,o),
(890,932,c),
(897.905,974.161,o),
(937.787,1056.026,o),
(975,1064,c),
(983.186,1020.342,o),
(1033.996,985,o),
(1074,985,cs)
);
}
);
userData = {
assembly = "NPUSHB[ ]	/* 109 values pushed */
126 1 8 9 118 1 10 8 102 1 4 3 65 1 6 4 92 5 2 0 6 5 74 0 9 13 1 10 2 9 10 103 0 3 5 1 4 6 3 4 103 0 6 11 1 0 1 6 0 103 12 1 2 2 8 95 0 8 8 43 75 0 1 1 7 95 0 7 7 45 7 76 41 41 22 21 2 0 41 130 41 130 124 122 114 112 83 81 71 69 63 61 60 58 32 30 21 40 22 40 14 12 0 20 2 20 14 8 20
CALL[ ]	/* CallFunction */";
};
width = 1140;
}
);
note = g;
unicode = 103;
}
{
glyphname = h;
kernLeft = h;
kernRight = h;
layers = (
{
layerId = m01;
shapes = (
{
closed = 1;
nodes = (
(192,162.499,o),
(193.523,61,o),
(69,61,c),
(69,0,l),
(487,0,l),
(487,84,l),
(358,78,l),
(366,124.667,o),
(368,162.333,o),
(368,217,cs),
(368,822,l),
(430.178,894.992,o),
(538.412,949,o),
(634,949,cs),
(796.667,949,o),
(868,833,o),
(868,597,cs),
(868,311,ls),
(868,162.117,o),
(870.096,61,o),
(747,61,c),
(747,0,l),
(1165,0,l),
(1165,84,l),
(1036,78,l),
(1044,124.667,o),
(1044,162.333,o),
(1044,217,cs),
(1042,599,ls),
(1040.667,755,o),
(1015.5,870.167,o),
(961.5,945.5,cs),
(907.5,1020.833,o),
(822.667,1057,o),
(704,1057,cs),
(583.188,1057,o),
(458.574,996.59,o),
(368,922,c),
(368,1546,l),
(309,1546,l),
(271.048,1511.211,o),
(213.295,1491,o),
(53,1491,c),
(53,1405,l),
(198,1413,l),
(191.333,1358.333,o),
(192,1322.667,o),
(192,1280,cs),
(192,311,l),
(192,311,l),
(192,311,l)
);
}
);
userData = {
assembly = "NPUSHB[ ]	/* 69 values pushed */
44 12 2 4 7 1 74 10 1 6 4 5 4 6 112 0 2 2 34 75 0 0 0 1 95 0 1 1 40 75 0 7 7 3 95 0 3 3 43 75 8 1 4 4 5 93 9 1 5 5 33 5 76 53 52 51 50 24 39 17 17 24 37 20 17 19 11 8 29
CALL[ ]	/* CallFunction */";
};
width = 1227;
},
{
layerId = "01037D14-118B-4CC1-B98A-141C2A413BDA";
shapes = (
{
closed = 1;
nodes = (
(1107,761.333,o),
(1082.833,875.667,o),
(1027.5,949,cs),
(972.167,1022.333,o),
(886.333,1057,o),
(761,1057,cs),
(676.939,1057,o),
(539.214,1003.971,o),
(463,943,c),
(463,1546,l),
(352,1546,l),
(337.333,1532.667,o),
(306.833,1518,o),
(255.5,1506,cs),
(204.167,1494,o),
(131.667,1485,o),
(37,1485,c),
(37,1330,l),
(181,1336,l),
(174.333,1274.667,o),
(173,1206.333,o),
(173,1157,cs),
(173,315,ls),
(173,204.125,o),
(164.967,133,o),
(51,133,c),
(51,0,l),
(588,0,l),
(588,156,l),
(455,150,l),
(460.545,213.769,o),
(463,289.207,o),
(463,329,cs),
(463,793,l),
(509.667,834.333,o),
(579.333,866.667,o),
(650,868,cs),
(763.333,868,o),
(814.667,787,o),
(816,607,cs),
(817,315,ls),
(817,204.125,o),
(808.967,133,o),
(695,133,c),
(695,0,l),
(1232,0,l),
(1232,156,l),
(1099,150,l),
(1104.545,213.769,o),
(1107,289.207,o),
(1107,329,cs),
(1107,604,l),
(1107,604,l)
);
}
);
userData = {
assembly = "NPUSHB[ ]	/* 69 values pushed */
49 1 3 10 21 1 0 3 2 74 0 3 10 0 10 3 0 126 0 9 9 34 75 0 7 7 8 95 0 8 8 40 75 0 10 10 43 75 6 4 2 3 0 0 1 94 5 1 1 1 33 1 76 55 53 48 47 17 24 17 17 24 39 17 17 21 11 8 29
CALL[ ]	/* CallFunction */";
};
width = 1271;
}
);
note = h;
unicode = 104;
}
{
glyphname = j;
layers = (
{
layerId = m01;
shapes = (
{
closed = 1;
nodes = (
(-180,-503.334,o),
(-126.05,-555,o),
(-18,-555,cs),
(92.667,-555,o),
(189.5,-513.333,o),
(259.5,-424,cs),
(329.5,-334.667,o),
(371,-197.667,o),
(371,-7,cs),
(371,1044,l),
(312,1044,l),
(280,1014.667,o),
(237.334,989,o),
(56,989,c),
(56,903,l),
(201,911,l),
(194.333,856.333,o),
(195,820.667,o),
(195,778,cs),
(191,-177,ls),
(191,-291.667,o),
(177.333,-383.333,o),
(132,-426,cs),
(96,-458,o),
(65.333,-461,o),
(48,-461,cs),
(32.667,-461,o),
(15.333,-457,o),
(-4,-449,c),
(-3.333,-445.667,o),
(-3,-442.667,o),
(-3,-440,cs),
(-3,-433.333,o),
(-3,-430,o),
(-3,-430,c),
(-3,-393.787,o),
(-26.706,-344,o),
(-92,-344,cs),
(-144,-344,o),
(-180,-390.333,o),
(-180,-441,cs)
);
},
{
closed = 1;
nodes = (
(382,1437.057,o),
(333.225,1492,o),
(273,1492,cs),
(212.793,1492,o),
(161,1437.382,o),
(161,1368,cs),
(161,1302.522,o),
(208.729,1248,o),
(271,1248,cs),
(334.04,1248,o),
(382,1306.489,o),
(382,1368,cs)
);
}
);
userData = {
assembly = "NPUSHB[ ]	/* 61 values pushed */
10 1 1 0 1 74 0 0 2 1 2 0 1 126 0 6 6 7 95 0 7 7 40 75 0 4 4 35 75 0 2 2 3 95 0 3 3 35 75 0 1 1 5 95 0 5 5 45 5 76 40 40 37 20 17 26 25 34 8 8 28
CALL[ ]	/* CallFunction */";
};
width = 526;
},
{
layerId = "01037D14-118B-4CC1-B98A-141C2A413BDA";
shapes = (
{
closed = 1;
nodes = (
(190,-324.376,o),
(178.172,-412,o),
(105,-412,cs),
(94.333,-412,o),
(75.667,-408.333,o),
(69,-403,c),
(71,-391,o),
(72,-379.667,o),
(72,-369,cs),
(72,-297,o),
(26,-247,o),
(-46,-247,cs),
(-129.952,-247,o),
(-180,-312.083,o),
(-180,-387,cs),
(-180,-474.95,o),
(-104.517,-555,o),
(43,-555,cs),
(287.291,-555,o),
(475,-376.204,o),
(475,4,cs),
(475,1044,l),
(364,1044,l),
(349.333,1030.667,o),
(318.833,1016,o),
(267.5,1004,cs),
(216.167,992,o),
(143.667,983,o),
(49,983,c),
(49,828,l),
(193,834,l),
(186.333,772.667,o),
(185,704.333,o),
(185,655,cs),
(190,-259,l),
(190,-259,l)
);
},
{
closed = 1;
nodes = (
(494,1485.062,o),
(430.809,1562,o),
(339,1562,cs),
(254.436,1562,o),
(183,1487.003,o),
(183,1393,cs),
(183,1299.194,o),
(248.857,1226,o),
(342,1226,cs),
(433.994,1226,o),
(494,1300.748,o),
(494,1393,cs)
);
}
);
userData = {
assembly = "NPUSHB[ ]	/* 61 values pushed */
32 30 2 5 4 1 74 0 4 0 5 5 4 112 0 6 6 7 95 0 7 7 42 75 0 2 2 35 75 0 0 0 1 95 0 1 1 35 75 0 5 5 3 96 0 3 3 45 3 76 40 41 38 40 37 20 17 19 8 8 28
CALL[ ]	/* CallFunction */";
};
width = 603;
}
);
note = j;
unicode = 106;
}
{
glyphname = l;
kernLeft = l;
kernRight = l;
layers = (
{
layerId = m01;
shapes = (
{
closed = 1;
nodes = (
(190,162.117,o),
(192.096,61,o),
(69,61,c),
(69,0,l),
(487,0,l),
(487,84,l),
(358,78,l),
(366,124.667,o),
(368,162.333,o),
(368,217,cs),
(366,1546,l),
(307,1546,l),
(269.048,1511.211,o),
(211.295,1491,o),
(51,1491,c),
(51,1405,l),
(196,1413,l),
(189.333,1358.333,o),
(190,1322.667,o),
(190,1280,cs),
(190,311,l),
(190,311,l),
(190,311,l)
);
}
);
userData = {
assembly = "NPUSHB[ ]	/* 42 values pushed */
0 5 3 4 3 5 112 0 2 2 34 75 0 0 0 1 95 0 1 1 40 75 0 3 3 4 93 0 4 4 33 4 76 17 17 20 20 17 19 6 8 26
CALL[ ]	/* CallFunction */";
};
width = 557;
},
{
layerId = "01037D14-118B-4CC1-B98A-141C2A413BDA";
shapes = (
{
closed = 1;
nodes = (
(352,1546,l),
(337.333,1532.667,o),
(306.833,1518,o),
(255.5,1506,cs),
(204.167,1494,o),
(131.667,1485,o),
(37,1485,c),
(37,1330,l),
(181,1336,l),
(174.333,1274.667,o),
(173,1206.333,o),
(173,1157,cs),
(173,315,ls),
(173,204.125,o),
(164.967,133,o),
(51,133,c),
(51,0,l),
(588,0,l),
(588,156,l),
(455,150,l),
(460.545,213.769,o),
(463,289.207,o),
(463,329,cs),
(463,1546,l),
(463,1546,l)
);
}
);
userData = {
assembly = "NPUSHB[ ]	/* 36 values pushed */
0 5 5 34 75 0 3 3 4 95 0 4 4 40 75 2 1 0 0 1 93 0 1 1 33 1 76 20 17 24 17 17 21 6 8 26
CALL[ ]	/* CallFunction */";
};
width = 639;
}
);
note = l;
unicode = 108;
}
{
glyphname = m;
kernLeft = m;
kernRight = h;
layers = (
{
layerId = m01;
shapes = (
{
closed = 1;
nodes = (
(211,162.117,o),
(213.096,61,o),
(90,61,c),
(90,0,l),
(508,0,l),
(508,84,l),
(379,78,l),
(387,124.667,o),
(387,162.333,o),
(387,217,cs),
(387,744,ls),
(387,764.667,o),
(386.833,784.167,o),
(386.5,802.5,cs),
(386.167,820.833,o),
(386,838,o),
(386,854,c),
(443.333,912.667,o),
(531,953,o),
(615,953,cs),
(776.333,953,o),
(841.333,831.667,o),
(840,597,cs),
(838,311,ls),
(836.667,237.667,o),
(837.5,175,o),
(823.5,131,cs),
(809.5,87,o),
(779.667,61,o),
(717,61,c),
(717,0,l),
(1135,0,l),
(1135,84,l),
(1006,78,l),
(1014,124.667,o),
(1014,162.333,o),
(1014,217,cs),
(1018,699,ls),
(1018,752.333,o),
(1011,802,o),
(997,848,c),
(1059.667,905.333,o),
(1149.667,949,o),
(1235,949,cs),
(1397.667,949,o),
(1469,833,o),
(1469,597,cs),
(1469,311,ls),
(1469,162.117,o),
(1471.096,61,o),
(1348,61,c),
(1348,0,l),
(1766,0,l),
(1766,84,l),
(1637,78,l),
(1645,124.667,o),
(1645,162.333,o),
(1645,217,cs),
(1647,599,ls),
(1652.366,923.622,o),
(1542.933,1057,o),
(1305,1057,cs),
(1183.135,1057,o),
(1051.831,993.062,o),
(965,919,c),
(913,1003,o),
(822.667,1057,o),
(684,1057,cs),
(575.918,1057,o),
(466.898,1005.366,o),
(383,935,c),
(380.333,984.333,o),
(377.667,1017.333,o),
(375,1044,c),
(316,1044,l),
(277.007,1008.256,o),
(234.004,989,o),
(74,989,c),
(74,903,l),
(219,911,l),
(211,864.333,o),
(211,820.667,o),
(211,778,cs),
(211,311,l),
(211,311,l),
(211,311,l)
);
}
);
userData = {
assembly = "NPUSHB[ ]	/* 85 values pushed */
22 14 2 0 8 74 52 2 5 0 2 74 15 11 2 7 5 6 5 7 112 12 1 8 8 2 95 4 3 2 2 2 43 75 0 0 0 1 95 0 1 1 35 75 13 9 2 5 5 6 93 14 10 2 6 6 33 6 76 86 85 84 83 82 81 72 70 63 62 61 60 59 58 39 17 17 24 38 39 20 17 19 16 8 29
CALL[ ]	/* CallFunction */";
};
width = 1831;
},
{
layerId = "01037D14-118B-4CC1-B98A-141C2A413BDA";
shapes = (
{
closed = 1;
nodes = (
(1109,680,o),
(1102.667,743,o),
(1092,799,c),
(1138.667,836.333,o),
(1193.667,864.667,o),
(1263,866,cs),
(1312.333,866,o),
(1353.833,853,o),
(1382.5,817,cs),
(1411.167,781,o),
(1429,721,o),
(1429,629,cs),
(1430,315,ls),
(1430,203.544,o),
(1421.377,133,o),
(1328,133,c),
(1328,0,l),
(1845,0,l),
(1845,156,l),
(1712,150,l),
(1717.545,213.769,o),
(1720,289.207,o),
(1720,329,cs),
(1720,631,ls),
(1720,788.333,o),
(1691,894.167,o),
(1635,961.5,cs),
(1579,1028.833,o),
(1494.333,1057,o),
(1385,1057,cs),
(1274.304,1057,o),
(1149.093,1004.186,o),
(1051,922,c),
(1001.667,1014,o),
(922.333,1057,o),
(797,1057,cs),
(690.542,1057,o),
(580.83,1005.736,o),
(499,943,c),
(496,943,l),
(487,1044,l),
(386,1044,l),
(371.333,1030.667,o),
(340.833,1016,o),
(289.5,1004,cs),
(238.167,992,o),
(165.667,983,o),
(71,983,c),
(71,828,l),
(215,834,l),
(208.333,772.667,o),
(207,709.333,o),
(207,660,cs),
(207,315,ls),
(207,204.125,o),
(198.967,133,o),
(85,133,c),
(85,0,l),
(612,0,l),
(612,156,l),
(489,150,l),
(494.545,213.769,o),
(497,289.207,o),
(497,329,cs),
(497,793,l),
(541,833,o),
(601.667,868,o),
(667,868,cs),
(713.667,868,o),
(750.5,855,o),
(776.5,819,cs),
(802.5,783,o),
(818,724.333,o),
(818,635,cs),
(819,315,ls),
(819,201.883,o),
(809.185,133,o),
(707,133,c),
(707,0,l),
(1234,0,l),
(1234,156,l),
(1101,150,l),
(1106.545,213.769,o),
(1109,289.207,o),
(1109,329,cs),
(1109,604,l),
(1109,604,l)
);
}
);
userData = {
assembly = "NPUSHB[ ]	/* 82 values pushed */
60 51 2 3 8 94 23 2 0 7 2 74 15 1 3 8 7 8 3 7 126 11 10 2 9 9 43 75 0 7 7 8 95 0 8 8 35 75 14 12 6 4 2 5 0 0 1 94 13 5 2 1 1 33 1 76 92 90 81 80 79 78 77 76 66 64 58 56 50 49 17 24 17 17 24 41 17 17 21 16 8 29
CALL[ ]	/* CallFunction */";
};
width = 1885;
}
);
note = m;
unicode = 109;
}
{
glyphname = r;
kernLeft = m;
layers = (
{
layerId = m01;
shapes = (
{
closed = 1;
nodes = (
(669.731,881.604,o),
(713.528,830,o),
(771,830,cs),
(845.821,830,o),
(873,892.124,o),
(873,928,cs),
(873,1019.676,o),
(802.045,1057,o),
(729,1057,cs),
(582.787,1057,o),
(446.458,943.54,o),
(385,842,c),
(382.333,942,o),
(379,1001.333,o),
(375,1044,c),
(316,1044,l),
(280.831,1011.762,o),
(246.073,989,o),
(137,989,cs),
(74,989,l),
(74,905,l),
(219,911,l),
(211,864.333,o),
(211,821.667,o),
(211,779,cs),
(211,311,ls),
(211,162.117,o),
(213.096,61,o),
(90,61,c),
(90,0,l),
(510,0,l),
(510,84,l),
(381,78,l),
(389,124.667,o),
(389,162.333,o),
(389,217,cs),
(387,720,l),
(458.373,854.816,o),
(571.609,947.728,o),
(678,945,c)
);
}
);
userData = {
assembly = "NPUSHB[ ]	/* 73 values pushed */
44 1 4 0 34 1 8 4 5 1 1 8 3 74 0 0 5 4 5 0 4 126 0 3 1 2 1 3 112 0 4 4 5 95 0 5 5 35 75 0 8 8 6 95 7 1 6 6 43 75 0 1 1 2 93 0 2 2 33 2 76 40 39 20 33 24 17 17 24 16 9 8 29
CALL[ ]	/* CallFunction */";
};
width = 887;
},
{
layerId = "01037D14-118B-4CC1-B98A-141C2A413BDA";
shapes = (
{
closed = 1;
nodes = (
(652.324,1057,o),
(552.157,942.462,o),
(497,868,c),
(494,868,l),
(485,1044,l),
(384,1044,l),
(369.333,1030.667,o),
(338.833,1016,o),
(287.5,1004,cs),
(236.167,992,o),
(163.667,983,o),
(69,983,c),
(69,828,l),
(213,834,l),
(206.333,772.667,o),
(205,709.333,o),
(205,660,cs),
(205,315,ls),
(205,204.125,o),
(196.967,133,o),
(83,133,c),
(83,0,l),
(620,0,l),
(620,156,l),
(487,150,l),
(492.545,213.769,o),
(495,289.207,o),
(495,329,cs),
(495,663,l),
(520.304,741.723,o),
(614.374,863,o),
(695,863,c),
(702.799,769.411,o),
(770.573,743,o),
(827,743,cs),
(929.351,743,o),
(971,821.342,o),
(971,887,cs),
(971,1004.104,o),
(889.714,1057,o),
(792,1057,cs)
);
}
);
userData = {
assembly = "NPUSHB[ ]	/* 77 values pushed */
48 1 2 7 20 1 3 1 2 74 0 2 7 6 7 2 6 126 0 6 6 7 95 0 7 7 35 75 0 1 1 0 95 8 9 2 0 0 43 75 5 1 3 3 4 94 0 4 4 33 4 76 1 0 47 46 42 41 40 39 31 30 29 28 27 26 16 15 11 9 0 53 1 53 10 8 20
CALL[ ]	/* CallFunction */";
};
width = 984;
}
);
note = r;
unicode = 114;
}
{
glyphname = u;
kernLeft = u;
kernRight = u;
layers = (
{
layerId = m01;
shapes = (
{
closed = 1;
nodes = (
(850,230,l),
(795.308,146.66,o),
(688.279,72,o),
(588,72,cs),
(506.667,72,o),
(451.833,98.5,o),
(416.5,156.5,cs),
(381.167,214.5,o),
(366,301.333,o),
(366,420,cs),
(366,1044,l),
(307,1044,l),
(272.468,1012.345,o),
(225.639,989,o),
(117,989,cs),
(53,989,l),
(53,905,l),
(194,911,l),
(186,864.333,o),
(186,820.667,o),
(186,778,cs),
(186,414,ls),
(186,78.13,o),
(297.129,-33,o),
(522,-33,cs),
(643.096,-33,o),
(771.186,38.186,o),
(856,123,c),
(858.667,84.333,o),
(863.333,46.667,o),
(870,0,c),
(1163,0,l),
(1163,86,l),
(1016,78,l),
(1020.539,125.657,o),
(1024,221.841,o),
(1024,270,cs),
(1026,1044,l),
(967,1044,l),
(932.348,1012.236,o),
(885.655,989,o),
(776,989,cs),
(713,989,l),
(713,905,l),
(860,911,l),
(852,864.333,o),
(850,821.667,o),
(850,755,cs),
(850,315,l),
(850,315,l),
(850,315,l)
);
}
);
userData = {
assembly = "NPUSHB[ ]	/* 62 values pushed */
58 24 2 3 0 1 74 8 1 2 2 35 75 6 1 0 0 1 95 7 1 1 1 35 75 9 1 3 3 4 93 0 4 4 33 75 9 1 3 3 5 95 0 5 5 41 5 76 54 52 20 33 24 39 17 22 20 33 19 10 8 29
CALL[ ]	/* CallFunction */";
};
width = 1223;
},
{
layerId = "01037D14-118B-4CC1-B98A-141C2A413BDA";
shapes = (
{
closed = 1;
nodes = (
(979,1044,l),
(964.333,1030.667,o),
(933.833,1016,o),
(882.5,1004,cs),
(831.167,992,o),
(759.667,983,o),
(665,983,c),
(665,828,l),
(809,834,l),
(802.333,772.667,o),
(801,704.333,o),
(801,655,cs),
(801,254,l),
(751.593,199.103,o),
(672.173,156,o),
(605,156,cs),
(501,156,o),
(458,237,o),
(458,417,cs),
(458,1044,l),
(346,1044,l),
(331.333,1030.667,o),
(300.833,1016,o),
(249.5,1004,cs),
(198.167,992,o),
(125.667,983,o),
(31,983,c),
(31,828,l),
(175,834,l),
(168.333,772.667,o),
(167,704.333,o),
(167,655,cs),
(167,420,ls),
(167,106.76,o),
(262.63,-33,o),
(507,-33,cs),
(638.116,-33,o),
(729.296,33.226,o),
(814,107,c),
(816,107,l),
(827,0,l),
(1216,0,l),
(1216,156,l),
(1083,150,l),
(1085.667,180.667,o),
(1087.667,216,o),
(1089,248,cs),
(1089.667,264,o),
(1090.333,291,o),
(1091,329,cs),
(1091,1044,l),
(1091,1044,l)
);
}
);
userData = {
assembly = "NPUSHB[ ]	/* 65 values pushed */
40 1 0 3 8 1 1 0 2 74 9 1 5 5 35 75 7 1 3 3 4 95 8 1 4 4 35 75 6 1 0 0 1 94 0 1 1 33 75 6 1 0 0 2 96 0 2 2 41 2 76 52 51 17 24 35 20 17 24 38 17 20 10 8 29
CALL[ ]	/* CallFunction */";
};
width = 1266;
}
);
note = u;
unicode = 117;
}
{
glyphname = w;
layers = (
{
layerId = m01;
shapes = (
{
closed = 1;
nodes = (
(121,946,l),
(127.667,914,o),
(143.333,866.667,o),
(174,780,cs),
(442,-6,l),
(520,-6,l),
(786,769,l),
(1054,-6,l),
(1136,-6,l),
(1431,800,ls),
(1464.908,896.508,o),
(1499.917,955.184,o),
(1638,963,c),
(1638,1024,l),
(1282,1024,l),
(1282,940,l),
(1401,947,l),
(1388.333,931.667,o),
(1377.167,911.833,o),
(1367.5,887.5,cs),
(1357.833,863.167,o),
(1283,648,o),
(1143,242,c),
(870,1024,l),
(786,1024,l),
(772,979.333,o),
(686.333,723.667,o),
(529,257,c),
(368,741,ls),
(322,873.588,o),
(325.916,957.779,o),
(446,963,c),
(446,1024,l),
(12,1024,l),
(12,940,l),
(12,940,l),
(12,940,l)
);
}
);
userData = {
assembly = "NPUSHB[ ]	/* 48 values pushed */
27 12 8 3 6 3 1 74 5 1 1 0 3 3 1 112 8 1 3 3 0 94 4 2 2 0 0 35 75 7 1 6 6 33 6 76 20 18 21 17 17 20 23 17 16 9 8 29
CALL[ ]	/* CallFunction */";
};
width = 1640;
},
{
layerId = "01037D14-118B-4CC1-B98A-141C2A413BDA";
shapes = (
{
closed = 1;
nodes = (
(608,510,ls),
(582.121,420.599,o),
(571.517,365.073,o),
(554,288,c),
(552,288,l),
(542.667,356,o),
(526,423,o),
(510,483,cs),
(441,733,ls),
(433,759.667,o),
(427.667,785.333,o),
(429,808,cs),
(429,856,o),
(449.667,889,o),
(507,893,c),
(507,1024,l),
(16,1024,l),
(16,868,l),
(96,872,l),
(110.296,807.666,o),
(117.58,785.955,o),
(147,704,cs),
(395,-6,l),
(598,-6,l),
(711,331,ls),
(726.69,375.455,o),
(790.408,584.589,o),
(804,682,c),
(806,682,l),
(815.422,647.454,o),
(861.921,476.544,o),
(879,431,c),
(1020,-6,l),
(1237,-6,l),
(1470,671,ls),
(1490.862,730.606,o),
(1547.308,893,o),
(1654,893,c),
(1654,1024,l),
(1265,1024,l),
(1265,868,l),
(1383,876,l),
(1383,874,l),
(1359.791,830.16,o),
(1344.69,782.591,o),
(1322,712,cs),
(1243,453,ls),
(1227,399.667,o),
(1204,330,o),
(1196,274,c),
(1194,274,l),
(1179.333,330,o),
(1160,401.667,o),
(1144,459,cs),
(980,1024,l),
(758,1024,l),
(758,1024,l)
);
}
);
userData = {
assembly = "NPUSHB[ ]	/* 49 values pushed */
60 53 32 4 4 3 0 1 74 7 5 2 3 0 0 1 93 9 8 6 3 1 1 35 75 4 1 3 3 33 3 76 0 0 0 67 0 67 17 17 22 29 21 17 17 46 10 8 28
CALL[ ]	/* CallFunction */";
};
width = 1660;
}
);
note = w;
unicode = 119;
}
{
glyphname = x;
layers = (
{
layerId = m01;
shapes = (
{
closed = 1;
nodes = (
(141,945,l),
(148.333,925.667,o),
(159.333,901.667,o),
(174,873,cs),
(188.667,844.333,o),
(280,718,o),
(448,494,c),
(263.333,254.667,o),
(163.833,128.333,o),
(149.5,115,cs),
(120.833,88.333,o),
(90.333,71.667,o),
(49,61,c),
(49,0,l),
(393,0,l),
(393,84,l),
(236,78,l),
(256,99.333,o),
(269.833,114,o),
(282.5,130,cs),
(288.833,138,o),
(361.667,237.333,o),
(501,428,c),
(717,162,ls),
(773.084,89.892,o),
(735.144,61,o),
(667,61,c),
(667,0,l),
(1063,0,l),
(1063,84,l),
(970,78,l),
(939.333,128.667,o),
(912,164,o),
(880,204,cs),
(598,555,l),
(771.333,761.667,o),
(867.5,873.5,o),
(886.5,890.5,cs),
(924.5,924.5,o),
(964,947,o),
(1020,963,c),
(1020,1024,l),
(684,1024,l),
(684,940,l),
(825,948,l),
(810.333,934,o),
(717.667,822.667,o),
(547,614,c),
(428,776,ls),
(326.829,914.444,o),
(342.891,957.604,o),
(467,963,c),
(467,1024,l),
(45,1024,l),
(45,940,l),
(45,940,l),
(45,940,l)
);
}
);
userData = {
assembly = "NPUSHB[ ]	/* 71 values pushed */
14 1 1 0 44 32 18 8 4 4 2 2 74 40 1 6 1 73 0 1 0 2 2 1 112 0 6 4 5 4 6 112 9 1 2 2 0 94 3 1 0 0 35 75 7 1 4 4 5 93 8 1 5 5 33 5 76 48 47 17 25 17 17 25 17 23 17 16 10 8 29
CALL[ ]	/* CallFunction */";
};
width = 1085;
},
{
layerId = "01037D14-118B-4CC1-B98A-141C2A413BDA";
shapes = (
{
closed = 1;
nodes = (
(819,730,ls),
(880.333,804.667,o),
(941,858.333,o),
(1025,893,c),
(1025,1024,l),
(664,1024,l),
(664,868,l),
(763,876,l),
(763,874,l),
(728.333,842,o),
(696.333,803,o),
(663,763,cs),
(586,670,l),
(584,670,l),
(489,780,ls),
(462.333,810.667,o),
(445,837.667,o),
(445,859,cs),
(445,877.667,o),
(460,890.333,o),
(496,893,c),
(496,1024,l),
(42,1024,l),
(42,868,l),
(99,872,l),
(115.568,822.295,o),
(181.322,745.013,o),
(216,705,cs),
(416,469,l),
(238,265,ls),
(182,201,o),
(138,153.667,o),
(82,131,c),
(82,0,l),
(421,0,l),
(421,156,l),
(328,148,l),
(328,150,l),
(348.644,163.763,o),
(401.825,220.555,o),
(420,246,c),
(515,360,l),
(517,360,l),
(638,232,ls),
(660,208,o),
(671.667,186.667,o),
(673,168,cs),
(673,157.333,o),
(667.667,148.833,o),
(657,142.5,cs),
(646.333,136.167,o),
(629,132.333,o),
(605,131,c),
(605,0,l),
(1088,0,l),
(1088,156,l),
(1018,152,l),
(991.333,201.333,o),
(957.333,242.333,o),
(920,285,cs),
(682,562,l),
(682,562,l)
);
}
);
userData = {
assembly = "NPUSHB[ ]	/* 56 values pushed */
56 39 2 5 6 60 46 29 13 4 0 5 25 1 1 0 3 74 7 1 5 5 6 93 8 1 6 6 35 75 3 2 2 0 0 1 93 4 1 1 1 33 1 76 17 45 17 27 17 59 17 17 19 9 8 29
CALL[ ]	/* CallFunction */";
};
width = 1122;
}
);
note = x;
unicode = 120;
}
{
glyphname = y;
kernLeft = y;
kernRight = y;
layers = (
{
layerId = m01;
shapes = (
{
closed = 1;
nodes = (
(266.667,-438.667,o),
(267,-428,o),
(267,-420,cs),
(267,-383.274,o),
(245.02,-331,o),
(182,-331,cs),
(128.121,-331,o),
(94,-379.634,o),
(94,-431,cs),
(94,-513.217,o),
(160.735,-555,o),
(248,-555,cs),
(432.179,-555,o),
(502.104,-360.799,o),
(627,-18,cs),
(810.333,492.667,o),
(908,762.333,o),
(920,791,cs),
(932,819.667,o),
(945,845.167,o),
(959,867.5,cs),
(987,912.167,o),
(1022.333,943,o),
(1073,963,c),
(1073,1024,l),
(752,1024,l),
(752,940,l),
(893,948,l),
(878.333,937.333,o),
(861.5,902.667,o),
(843.5,860,cs),
(834.5,838.667,o),
(759,621,o),
(617,207,c),
(437,584.333,o),
(343.333,788.833,o),
(336,820.5,cs),
(328.667,852.167,o),
(326.667,877.833,o),
(330,897.5,cs),
(336.667,936.833,o),
(365.667,958,o),
(423,962,cs),
(432,963,l),
(432,1024,l),
(8,1024,l),
(8,940,l),
(107,945,l),
(111,922.333,o),
(120.833,889.333,o),
(137.5,844,cs),
(145.833,821.333,o),
(156.333,795,o),
(169,765,cs),
(181.667,735,o),
(303.667,472.333,o),
(535,-23,c),
(475,-189.667,o),
(425.667,-312,o),
(391,-372,cs),
(371.667,-405.333,o),
(352.5,-427.167,o),
(333.5,-437.5,cs),
(314.5,-447.833,o),
(299,-453,o),
(287,-453,cs),
(279,-453,o),
(271.333,-451.333,o),
(264,-448,c)
);
}
);
userData = {
assembly = "NPUSHB[ ]	/* 57 values pushed */
31 17 2 1 2 23 8 2 6 1 46 1 0 6 3 74 0 6 1 0 1 6 0 126 3 1 1 1 2 93 4 1 2 2 35 75 0 0 0 5 95 0 5 5 45 5 76 40 42 17 42 17 26 33 7 8 27
CALL[ ]	/* CallFunction */";
};
width = 1081;
},
{
layerId = "01037D14-118B-4CC1-B98A-141C2A413BDA";
shapes = (
{
closed = 1;
nodes = (
(455,733,ls),
(443,759.667,o),
(434,787.667,o),
(434,813,cs),
(434,853,o),
(456,885,o),
(520,893,c),
(520,1024,l),
(10,1024,l),
(10,868,l),
(104,872,l),
(108,841.333,o),
(112.5,809.5,o),
(126.5,767.5,cs),
(140.5,725.5,o),
(163.333,671,o),
(202,595,cs),
(527,-54,l),
(503,-140.667,o),
(473.833,-224.5,o),
(442.5,-286.5,cs),
(411.167,-348.5,o),
(380,-390,o),
(352,-390,c),
(352,-388,ls),
(354,-378,o),
(355,-368.667,o),
(355,-360,cs),
(355,-294.6,o),
(306.98,-246,o),
(250,-246,cs),
(173.903,-246,o),
(117,-311.372,o),
(117,-387,cs),
(117,-489.331,o),
(200.103,-555,o),
(304,-555,cs),
(396,-555,o),
(462.667,-517.667,o),
(520,-439,cs),
(577.333,-360.333,o),
(626.667,-238.667,o),
(684,-72,cs),
(941,659,ls),
(983.667,783,o),
(1034.667,871.667,o),
(1120,893,c),
(1120,1024,l),
(756,1024,l),
(756,868,l),
(873,876,l),
(873,874,l),
(834.823,827.642,o),
(800.04,727.461,o),
(786,683,cs),
(726.971,503.229,o),
(680.947,343.179,o),
(657,274,c),
(655,274,l),
(655,274,l)
);
}
);
userData = {
assembly = "NPUSHB[ ]	/* 55 values pushed */
57 15 2 0 1 64 60 47 3 3 0 41 39 2 2 3 3 74 0 3 0 2 0 3 2 126 4 1 0 0 1 93 5 1 1 1 35 75 0 2 2 45 2 76 56 55 54 53 40 41 17 42 6 8 24
CALL[ ]	/* CallFunction */";
};
width = 1128;
}
);
note = y;
unicode = 121;
}
{
glyphname = braceleft;
layers = (
{
layerId = m01;
shapes = (
{
closed = 1;
nodes = (
(309.326,562.332,o),
(422,642.324,o),
(422,813,cs),
(423.333,837,o),
(418.667,879,o),
(412,943,cs),
(399,1082,ls),
(396.333,1112.667,o),
(395,1140.333,o),
(395,1163,cs),
(395,1388.012,o),
(445.171,1486,o),
(636,1486,cs),
(659,1486,l),
(659,1556,l),
(602,1556,ls),
(322.214,1556,o),
(237,1423.305,o),
(237,1134,cs),
(237,1073.333,o),
(240.5,1014.5,o),
(247.5,957.5,cs),
(254.5,900.5,o),
(258,845,o),
(258,791,cs),
(258,648.92,o),
(211.182,592,o),
(61,592,cs),
(14,592,l),
(14,486,l),
(61,486,ls),
(213.55,486,o),
(258,416.587,o),
(258,279,cs),
(258,162.488,o),
(237,5.622,o),
(237,-117,cs),
(237,-406.848,o),
(322.029,-555,o),
(602,-555,cs),
(659,-555,l),
(659,-498,l),
(647,-498,ls),
(446.695,-498,o),
(395,-378.289,o),
(395,-145,cs),
(395,-101.06,o),
(400.853,-35.413,o),
(415,130,cs),
(419,179.333,o),
(422,224,o),
(422,256,cs),
(422,427.142,o),
(308.904,513.088,o),
(192,537,c),
(192,541,l),
(192,541,l)
);
}
);
userData = {
assembly = "NPUSHB[ ]	/* 50 values pushed */
72 1 2 3 1 74 0 3 0 2 0 3 2 103 0 5 5 4 95 0 4 4 34 75 0 0 0 1 95 0 1 1 45 1 76 56 54 53 51 40 38 37 35 22 20 18 17 6 8 20
CALL[ ]	/* CallFunction */";
};
width = 684;
},
{
layerId = "01037D14-118B-4CC1-B98A-141C2A413BDA";
shapes = (
{
closed = 1;
nodes = (
(372.159,559.681,o),
(516,688.273,o),
(516,887,cs),
(516,976.253,o),
(494,1099.609,o),
(494,1163,cs),
(494,1373.758,o),
(554.603,1413,o),
(692,1413,cs),
(714,1413,ls),
(722,1413,o),
(730.333,1412.667,o),
(739,1412,c),
(739,1556,l),
(682,1556,ls),
(371.333,1556,o),
(217,1423.333,o),
(217,1134,cs),
(217,1073.333,o),
(220.5,1014.5,o),
(227.5,957.5,cs),
(234.5,900.5,o),
(238,845,o),
(238,791,cs),
(238,652.372,o),
(194.326,612,o),
(41,612,cs),
(-6,612,l),
(-6,466,l),
(41,466,ls),
(192.892,466,o),
(238,418.761,o),
(238,279,cs),
(238,162.488,o),
(217,5.622,o),
(217,-117,cs),
(217,-405,o),
(371.333,-555,o),
(682,-555,cs),
(739,-555,l),
(739,-410,l),
(733.667,-410,o),
(728.833,-410.167,o),
(724.5,-410.5,cs),
(720.167,-410.833,o),
(715.667,-411,o),
(711,-411,cs),
(558.539,-411,o),
(494,-365.391,o),
(494,-145,cs),
(494,-64.418,o),
(517,73.336,o),
(517,181,cs),
(517,380.369,o),
(371.542,512.731,o),
(172,537,c),
(172,541,l),
(172,541,l)
);
}
);
userData = {
assembly = "NPUSHB[ ]	/* 44 values pushed */
67 1 2 3 1 74 0 3 0 2 0 3 2 103 0 5 5 4 95 0 4 4 42 75 0 0 0 1 95 0 1 1 45 1 76 65 41 33 43 34 62 6 8 26
CALL[ ]	/* CallFunction */";
};
width = 754;
}
);
note = braceleft;
unicode = 123;
}
{
glyphname = bar;
layers = (
{
layerId = m01;
shapes = (
{
closed = 1;
nodes = (
(168,-555,l),
(307,-555,l),
(315,1556,l),
(162,1556,l),
(162,1556,l)
);
}
);
userData = {
assembly = "NPUSHB[ ]	/* 22 values pushed */
2 1 1 1 34 75 0 0 0 37 0 76 0 0 0 3 0 3 17 3 8 21
CALL[ ]	/* CallFunction */";
};
width = 473;
},
{
layerId = "01037D14-118B-4CC1-B98A-141C2A413BDA";
shapes = (
{
closed = 1;
nodes = (
(130,-555,l),
(399,-555,l),
(407,1556,l),
(124,1556,l),
(124,1556,l)
);
}
);
userData = {
assembly = "NPUSHB[ ]	/* 22 values pushed */
2 1 1 1 34 75 0 0 0 37 0 76 0 0 0 3 0 3 17 3 8 21
CALL[ ]	/* CallFunction */";
};
width = 531;
}
);
note = bar;
unicode = 124;
}
{
glyphname = braceright;
layers = (
{
layerId = m01;
shapes = (
{
closed = 1;
nodes = (
(375.096,513.088,o),
(262,427.142,o),
(262,256,cs),
(262,224,o),
(265,179.333,o),
(269,130,cs),
(283.147,-35.413,o),
(289,-101.06,o),
(289,-145,cs),
(289,-378.289,o),
(237.305,-498,o),
(37,-498,cs),
(25,-498,l),
(25,-555,l),
(82,-555,ls),
(361.971,-555,o),
(447,-406.848,o),
(447,-117,cs),
(447,5.622,o),
(426,162.488,o),
(426,279,cs),
(426,416.587,o),
(470.45,486,o),
(623,486,cs),
(670,486,l),
(670,592,l),
(623,592,ls),
(472.818,592,o),
(426,648.92,o),
(426,791,cs),
(426,845,o),
(429.5,900.5,o),
(436.5,957.5,cs),
(443.5,1014.5,o),
(447,1073.333,o),
(447,1134,cs),
(447,1423.305,o),
(361.786,1556,o),
(82,1556,cs),
(25,1556,l),
(25,1486,l),
(48,1486,ls),
(238.829,1486,o),
(289,1388.012,o),
(289,1163,cs),
(289,1140.333,o),
(287.667,1112.667,o),
(285,1082,cs),
(272,943,ls),
(265.333,879,o),
(260.667,837,o),
(262,813,cs),
(262,642.324,o),
(374.674,562.332,o),
(492,541,c),
(492,537,l),
(492,537,l)
);
}
);
userData = {
assembly = "NPUSHB[ ]	/* 44 values pushed */
0 2 0 3 5 2 3 103 0 0 0 1 95 0 1 1 34 75 0 5 5 4 95 0 4 4 45 4 76 56 54 53 51 38 36 35 33 22 20 19 17 6 8 20
CALL[ ]	/* CallFunction */";
};
width = 684;
},
{
layerId = "01037D14-118B-4CC1-B98A-141C2A413BDA";
shapes = (
{
closed = 1;
nodes = (
(382.458,512.731,o),
(237,380.369,o),
(237,181,cs),
(237,73.336,o),
(260,-64.418,o),
(260,-145,cs),
(260,-365.391,o),
(195.461,-411,o),
(43,-411,cs),
(38.333,-411,o),
(33.833,-410.833,o),
(29.5,-410.5,cs),
(25.167,-410.167,o),
(20.333,-410,o),
(15,-410,c),
(15,-555,l),
(72,-555,ls),
(382.667,-555,o),
(537,-405,o),
(537,-117,cs),
(537,5.622,o),
(516,162.488,o),
(516,279,cs),
(516,418.761,o),
(561.108,466,o),
(713,466,cs),
(760,466,l),
(760,612,l),
(713,612,ls),
(559.674,612,o),
(516,652.372,o),
(516,791,cs),
(516,845,o),
(519.5,900.5,o),
(526.5,957.5,cs),
(533.5,1014.5,o),
(537,1073.333,o),
(537,1134,cs),
(537,1423.333,o),
(382.667,1556,o),
(72,1556,cs),
(15,1556,l),
(15,1412,l),
(23.667,1412.667,o),
(32,1413,o),
(40,1413,cs),
(54.667,1413,o),
(62,1413,o),
(62,1413,c),
(199.397,1413,o),
(260,1373.758,o),
(260,1163,cs),
(260,1099.609,o),
(238,976.253,o),
(238,887,cs),
(238,688.273,o),
(381.841,559.681,o),
(582,541,c),
(582,537,l),
(582,537,l)
);
}
);
userData = {
assembly = "NPUSHB[ ]	/* 44 values pushed */
68 1 3 2 1 74 0 2 0 3 5 2 3 103 0 0 0 1 95 0 1 1 42 75 0 5 5 4 95 0 4 4 45 4 76 65 43 33 41 33 94 6 8 26
CALL[ ]	/* CallFunction */";
};
width = 754;
}
);
note = braceright;
unicode = 125;
}
{
glyphname = asciitilde;
layers = (
{
layerId = m01;
shapes = (
{
closed = 1;
nodes = (
(467.336,627,o),
(526.472,590.377,o),
(583,550,cs),
(634.848,512.966,o),
(705.167,473,o),
(805,473,cs),
(913,473,o),
(993,516,o),
(1049,580,c),
(1049,709,l),
(983.667,649,o),
(903.667,611,o),
(813,611,cs),
(735.05,611,o),
(678.317,648.415,o),
(626.5,688.5,cs),
(579.179,725.107,o),
(507.629,766,o),
(399,766,cs),
(290.753,766,o),
(227.802,729.151,o),
(139,657,c),
(139,528,l),
(211.837,580.026,o),
(277.402,627,o),
(391,627,cs)
);
}
);
userData = {
assembly = "PUSHB[ ]	/* 2 values pushed */
6 100
WCVTP[ ]	/* WriteCVTInPixels */
NPUSHB[ ]	/* 52 values pushed */
21 6 2 0 1 22 5 2 3 2 2 74 0 1 4 1 0 2 1 0 103 0 2 3 3 2 87 0 2 2 3 95 0 3 2 3 79 1 0 26 24 19 17 12 10 0 31 1 31 5 8 20
CALL[ ]	/* CallFunction */
PUSHB[ ]	/* 2 values pushed */
6 0
WCVTP[ ]	/* WriteCVTInPixels */";
};
width = 1188;
},
{
layerId = "01037D14-118B-4CC1-B98A-141C2A413BDA";
shapes = (
{
closed = 1;
nodes = (
(427.336,565,o),
(486.472,528.377,o),
(543,488,cs),
(594.848,450.966,o),
(665.167,411,o),
(765,411,cs),
(873,411,o),
(953,454,o),
(1009,518,c),
(1009,760,l),
(943.667,700,o),
(863.667,662,o),
(773,662,cs),
(695.05,662,o),
(638.317,699.415,o),
(586.5,739.5,cs),
(539.179,776.107,o),
(467.629,817,o),
(359,817,cs),
(250.753,817,o),
(187.802,780.151,o),
(99,708,c),
(99,466,l),
(171.837,518.026,o),
(237.402,565,o),
(351,565,cs)
);
}
);
userData = {
assembly = "PUSHB[ ]	/* 2 values pushed */
6 100
WCVTP[ ]	/* WriteCVTInPixels */
NPUSHB[ ]	/* 52 values pushed */
21 6 2 2 1 22 5 2 3 0 2 74 0 2 0 3 2 87 0 1 4 1 0 3 1 0 103 0 2 2 3 95 0 3 2 3 79 1 0 26 24 19 17 12 10 0 31 1 31 5 8 20
CALL[ ]	/* CallFunction */
PUSHB[ ]	/* 2 values pushed */
6 0
WCVTP[ ]	/* WriteCVTInPixels */";
};
width = 1106;
}
);
note = asciitilde;
unicode = 126;
}
{
glyphname = cent;
layers = (
{
layerId = m01;
shapes = (
{
closed = 1;
nodes = (
(804,847.667,o),
(797,816.667,o),
(797,790,cs),
(797,752.979,o),
(820.545,698,o),
(892,698,cs),
(951.633,698,o),
(987,746.186,o),
(987,806,cs),
(987,868.667,o),
(953,928.667,o),
(893,974,cs),
(833,1019.333,o),
(747,1050.333,o),
(643,1057,c),
(645,1274,l),
(512,1274,l),
(513,1057,l),
(250.837,1009.334,o),
(74,749.603,o),
(74,494,cs),
(74,191.458,o),
(263.713,-3.672,o),
(509,-33,c),
(510,-274,l),
(629,-274,l),
(630,-33,l),
(761.89,-16.85,o),
(914.897,60.062,o),
(1010,208,c),
(957,249,l),
(890.375,150.394,o),
(762.632,71,o),
(635,71,cs),
(529.667,71,o),
(441.333,121,o),
(380,205,cs),
(318.667,289,o),
(283,408,o),
(283,544,cs),
(283,685.333,o),
(319.333,795.333,o),
(378,870,cs),
(436.667,944.667,o),
(519.667,983,o),
(613,983,cs),
(668.284,983,o),
(790.018,970.667,o),
(828,873,c)
);
}
);
userData = {
assembly = "NPUSHB[ ]	/* 58 values pushed */
39 1 4 3 0 1 5 0 21 20 2 1 5 29 26 2 2 1 4 74 0 5 0 1 0 5 1 126 0 3 0 0 5 3 0 103 0 1 0 2 1 2 97 0 4 4 43 4 76 40 17 28 27 40 36 6 8 26
CALL[ ]	/* CallFunction */";
};
width = 1087;
},
{
layerId = "01037D14-118B-4CC1-B98A-141C2A413BDA";
shapes = (
{
closed = 1;
nodes = (
(754,698.017,o),
(788.651,623,o),
(887,623,cs),
(976.614,623,o),
(1031,689.43,o),
(1031,776,cs),
(1031,904.863,o),
(926.031,1028.696,o),
(710,1053,c),
(712,1282,l),
(531,1282,l),
(532,1047,l),
(275.471,996.752,o),
(104,764.646,o),
(104,490,cs),
(104,192.729,o),
(287.025,5.997,o),
(527,-26,c),
(528,-280,l),
(697,-280,l),
(698,-26,l),
(822.458,-10.112,o),
(953.482,47.197,o),
(1076,216,c),
(982,307,l),
(910.594,214.437,o),
(795.527,150,o),
(686,150,cs),
(476.273,150,o),
(404,338.668,o),
(404,548,cs),
(404,666.667,o),
(428.5,757.5,o),
(470.5,819.5,cs),
(512.5,881.5,o),
(570.667,913,o),
(640,913,cs),
(680.473,913,o),
(749.966,897.789,o),
(779,845,c),
(761.667,818.333,o),
(754,780,o),
(754,756,cs)
);
}
);
userData = {
assembly = "NPUSHB[ ]	/* 62 values pushed */
45 42 2 0 3 3 0 2 4 0 24 23 2 1 4 32 29 2 2 1 4 74 0 4 0 1 0 4 1 126 0 3 0 0 4 3 0 103 0 1 2 2 1 87 0 1 1 2 93 0 2 1 2 77 42 28 27 40 39 5 8 25
CALL[ ]	/* CallFunction */";
};
width = 1157;
}
);
note = cent;
unicode = 162;
}
{
glyphname = sterling;
layers = (
{
layerId = m01;
shapes = (
{
closed = 1;
nodes = (
(765.333,1264,o),
(762,1233.667,o),
(762,1219,cs),
(762,1187.542,o),
(782.383,1139,o),
(844,1139,cs),
(896,1139,o),
(926,1181.333,o),
(926,1228,cs),
(926,1274.667,o),
(906.5,1335,o),
(856.5,1383,cs),
(806.5,1431,o),
(726,1467,o),
(606,1467,cs),
(495.333,1467,o),
(400.667,1422.5,o),
(334,1344.5,cs),
(267.333,1266.5,o),
(227,1154,o),
(227,1018,cs),
(227,902,o),
(244,817,o),
(264,737,c),
(128,737,l),
(128,639,l),
(291,639,l),
(311,565.667,o),
(327,496,o),
(327,408,cs),
(327,332,o),
(304.667,269,o),
(274,221,c),
(174.755,193.008,o),
(96,119.242,o),
(96,43,cs),
(96,4.333,o),
(123.667,-33,o),
(173,-33,cs),
(238.432,-33,o),
(303.366,55.657,o),
(317,162,c),
(325,163.333,o),
(336,164,o),
(350,164,cs),
(438.985,164,o),
(522.15,117.056,o),
(601,65.5,cs),
(679.698,14.044,o),
(759.886,-33,o),
(843,-33,cs),
(973.632,-33,o),
(1046.607,86.832,o),
(1052,254,c),
(988,254,l),
(981.333,166,o),
(939.333,125,o),
(878,125,cs),
(779.685,125,o),
(651.921,248,o),
(468,248,cs),
(432,248,o),
(396.667,245.333,o),
(362,240,c),
(426,316,o),
(468,399,o),
(468,487,cs),
(468,540.333,o),
(462.667,589.667,o),
(456,639,c),
(749,639,l),
(749,737,l),
(439,737,l),
(415.784,845.34,o),
(390,966.693,o),
(390,1100,cs),
(390,1249.914,o),
(466.788,1389,o),
(622,1389,cs),
(718,1389,o),
(773.333,1341.333,o),
(788,1288,c)
);
}
);
userData = {
assembly = "NPUSHB[ ]	/* 86 values pushed */
0 1 12 0 22 1 7 3 2 74 0 12 0 1 0 12 1 126 5 1 3 2 7 2 3 7 126 0 7 4 2 7 4 124 10 1 1 9 1 2 3 1 2 101 0 0 0 11 95 0 11 11 40 75 0 4 4 6 95 8 1 6 6 41 6 76 87 85 79 77 70 69 68 67 37 37 36 18 35 40 17 25 34 13 8 29
CALL[ ]	/* CallFunction */";
};
width = 1122;
},
{
layerId = "01037D14-118B-4CC1-B98A-141C2A413BDA";
shapes = (
{
closed = 1;
nodes = (
(835,768,l),
(513,768,l),
(497,849.333,o),
(483,940,o),
(483,1048,cs),
(483,1173.342,o),
(529.337,1324,o),
(676,1324,cs),
(722.667,1324,o),
(750.667,1308,o),
(764,1292,c),
(737.333,1260,o),
(729,1221,o),
(729,1185,cs),
(729,1133.825,o),
(770.805,1060,o),
(863,1060,cs),
(949.389,1060,o),
(1000,1127.046,o),
(1000,1213,cs),
(1000,1265,o),
(976.667,1328.333,o),
(922,1379,cs),
(867.333,1429.667,o),
(780.667,1467,o),
(654,1467,cs),
(426.451,1467,o),
(223,1286.633,o),
(223,973,cs),
(223,891.667,o),
(232.333,828,o),
(247,768,c),
(132,768,l),
(132,597,l),
(293,600,l),
(307.667,544,o),
(318,486.333,o),
(318,417,cs),
(318,377.405,o),
(301.865,308.892,o),
(282,272,c),
(183.14,235.578,o),
(105,163.383,o),
(105,81,cs),
(105,20.756,o),
(136.053,-33,o),
(220,-33,cs),
(293.302,-33,o),
(365.718,49.698,o),
(389,148,c),
(467.719,144.251,o),
(555.514,99.9,o),
(622,56.5,cs),
(694.606,9.104,o),
(770.429,-33,o),
(850,-33,cs),
(1000.39,-33,o),
(1079.94,115.812,o),
(1088,320,c),
(954,320,l),
(951.333,279.333,o),
(942.5,249.5,o),
(927.5,230.5,cs),
(912.5,211.5,o),
(897.333,202,o),
(882,202,cs),
(802.778,202,o),
(729.657,305,o),
(576,305,cs),
(529.333,305,o),
(477.333,298.667,o),
(412,272,c),
(412,274,l),
(506.667,339.333,o),
(551,438,o),
(551,538,cs),
(551,560.667,o),
(549,584,o),
(545,604,c),
(835,610,l),
(835,610,l)
);
}
);
userData = {
assembly = "NPUSHB[ ]	/* 95 values pushed */
83 1 9 10 6 1 1 0 2 74 0 9 10 7 10 9 7 126 2 1 0 6 1 6 0 1 126 0 4 1 3 1 4 3 126 11 1 7 13 12 2 6 0 7 6 101 0 10 10 8 95 0 8 8 40 75 0 1 1 3 95 5 1 3 3 41 3 76 0 0 0 96 0 96 95 94 87 85 76 74 66 64 57 56 55 54 36 21 36 18 35 41 14 8 26
CALL[ ]	/* CallFunction */";
};
width = 1173;
}
);
note = sterling;
unicode = 163;
}
{
glyphname = currency;
layers = (
{
layerId = m01;
shapes = (
{
closed = 1;
nodes = (
(251,767,l),
(199,696.333,o),
(172,606.333,o),
(172,521,cs),
(172,437,o),
(195.667,352,o),
(245,284,c),
(125,148,l),
(208,82,l),
(313,213,l),
(374.333,166.333,o),
(452,138,o),
(548,138,cs),
(644,138,o),
(724,167.333,o),
(784,214,c),
(890,82,l),
(973,148,l),
(852,285,l),
(901.333,350.333,o),
(926,437,o),
(926,521,cs),
(926,606.333,o),
(899,695.333,o),
(847,766,c),
(973,910,l),
(890,976,l),
(779,838,l),
(715,888.667,o),
(641,918,o),
(549,918,cs),
(455.667,918,o),
(379.333,887.333,o),
(318,838,c),
(208,976,l),
(125,910,l),
(125,910,l)
);
},
{
closed = 1;
nodes = (
(701.901,845,o),
(750,658.544,o),
(750,554,cs),
(750,418.425,o),
(709.674,218,o),
(549,218,cs),
(388.326,218,o),
(348,418.425,o),
(348,554,cs),
(348,605.726,o),
(358.718,675.961,o),
(390.5,738.5,cs),
(421.865,800.219,o),
(475.799,845,o),
(549,845,cs)
);
}
);
userData = {
assembly = "NPUSHB[ ]	/* 71 values pushed */
35 9 2 2 0 34 28 16 10 7 1 6 3 2 27 25 19 17 4 1 3 3 74 8 1 0 72 26 18 2 1 71 0 0 4 1 2 3 0 2 103 0 3 1 1 3 87 0 3 3 1 95 0 1 3 1 79 37 36 49 47 36 57 37 57 23 21 35 5 8 21
CALL[ ]	/* CallFunction */";
};
width = 1096;
},
{
layerId = "01037D14-118B-4CC1-B98A-141C2A413BDA";
shapes = (
{
closed = 1;
nodes = (
(251,739,l),
(212.333,671,o),
(191,596,o),
(191,520,cs),
(191,443.333,o),
(209.333,373,o),
(246,309,c),
(128,175,l),
(277,56,l),
(374,178,l),
(430,144.667,o),
(499,126,o),
(579,126,cs),
(659.667,126,o),
(728.667,143.667,o),
(786,179,c),
(884,56,l),
(1032,175,l),
(914,309,l),
(950.667,373,o),
(969,443.333,o),
(969,520,cs),
(969,596.667,o),
(948.667,669.667,o),
(908,739,c),
(1032,880,l),
(884,998,l),
(782,870,l),
(726,904.667,o),
(660,927,o),
(580,927,cs),
(500,927,o),
(434,905.667,o),
(378,871,c),
(276,999,l),
(128,880,l),
(128,880,l)
);
},
{
closed = 1;
nodes = (
(685.628,777,o),
(720,628.694,o),
(720,550,cs),
(720,447.334,o),
(691.036,282,o),
(580,282,cs),
(468.785,282,o),
(441,449.212,o),
(441,550,cs),
(441,628.596,o),
(474.546,777,o),
(580,777,cs)
);
}
);
userData = {
assembly = "NPUSHB[ ]	/* 70 values pushed */
31 9 7 1 4 2 0 30 25 14 10 4 3 2 24 22 17 15 4 1 3 3 74 8 1 0 72 23 16 2 1 71 0 0 4 1 2 3 0 2 103 0 3 1 1 3 87 0 3 3 1 95 0 1 3 1 79 33 32 43 41 32 51 33 51 45 35 5 8 22
CALL[ ]	/* CallFunction */";
};
width = 1160;
}
);
note = currency;
unicode = 164;
}
{
glyphname = brokenbar;
layers = (
{
layerId = m01;
shapes = (
{
closed = 1;
nodes = (
(178,789,l),
(317,789,l),
(325,1556,l),
(172,1556,l),
(172,1556,l)
);
},
{
closed = 1;
nodes = (
(178,-555,l),
(317,-555,l),
(325,207,l),
(172,207,l),
(172,207,l)
);
}
);
userData = {
assembly = "NPUSHB[ ]	/* 41 values pushed */
0 0 0 1 93 4 1 1 1 34 75 5 1 3 3 2 93 0 2 2 37 2 76 4 4 0 0 4 7 4 7 6 5 0 3 0 3 17 6 8 21
CALL[ ]	/* CallFunction */";
};
width = 498;
},
{
layerId = "01037D14-118B-4CC1-B98A-141C2A413BDA";
shapes = (
{
closed = 1;
nodes = (
(144,767,l),
(361,767,l),
(369,1557,l),
(138,1557,l),
(138,1557,l)
);
},
{
closed = 1;
nodes = (
(144,-555,l),
(361,-555,l),
(369,231,l),
(138,231,l),
(138,231,l)
);
}
);
userData = {
assembly = "NPUSHB[ ]	/* 41 values pushed */
0 0 0 1 93 4 1 1 1 34 75 5 1 3 3 2 93 0 2 2 37 2 76 4 4 0 0 4 7 4 7 6 5 0 3 0 3 17 6 8 21
CALL[ ]	/* CallFunction */";
};
width = 507;
}
);
note = brokenbar;
unicode = 166;
}
{
glyphname = section;
layers = (
{
layerId = m01;
shapes = (
{
closed = 1;
nodes = (
(236,774,o),
(259.333,854.667,o),
(306,916,c),
(400.13,833.166,o),
(522.197,779.962,o),
(658,694.5,cs),
(774.486,621.194,o),
(861,527.323,o),
(861,385,cs),
(861,309,o),
(836.667,225,o),
(790,165,c),
(695.87,247.834,o),
(573.803,301.038,o),
(438,386.5,cs),
(320.214,460.624,o),
(236,554.407,o),
(236,698,cs)
);
},
{
closed = 1;
nodes = (
(170,-267.667,o),
(201.833,-332.5,o),
(262.5,-382.5,cs),
(323.167,-432.5,o),
(415,-467,o),
(535,-467,cs),
(673.864,-467,o),
(776.978,-411.655,o),
(836.5,-337,cs),
(896.187,-262.138,o),
(920,-174.5,o),
(920,-109,cs),
(920,-13,o),
(885.667,59,o),
(835,119,c),
(947.262,212.987,o),
(1016,340.969,o),
(1016,461,cs),
(1016,686.407,o),
(843,807.667,o),
(665,911.5,cs),
(577,962.833,o),
(489.5,1010.667,o),
(423.5,1064,cs),
(357.5,1117.333,o),
(314,1177.667,o),
(314,1255,cs),
(314,1347.625,o),
(379.208,1478,o),
(566,1478,cs),
(667.894,1478,o),
(750.613,1428.468,o),
(778,1360,c),
(759.333,1342.667,o),
(753,1307,o),
(753,1291,cs),
(753,1257.864,o),
(772.733,1207,o),
(839,1207,cs),
(894.486,1207,o),
(924,1253.421,o),
(924,1302,cs),
(924,1363.333,o),
(887,1427,o),
(823,1475,cs),
(759,1523,o),
(667.333,1556,o),
(558,1556,cs),
(415.397,1556,o),
(313.912,1502.023,o),
(254.5,1426.5,cs),
(188.562,1342.681,o),
(173,1252.736,o),
(173,1192,cs),
(173,1104,o),
(207,1022,o),
(259,962,c),
(148.372,869.381,o),
(78,742.22,o),
(78,622,cs),
(78,396.467,o),
(251.548,275.51,o),
(428.5,171.5,cs),
(593.543,74.49,o),
(779,-14.58,o),
(779,-172,cs),
(779,-263.192,o),
(714.068,-388,o),
(527,-388,cs),
(425.655,-388,o),
(326.469,-326.092,o),
(321,-255,c),
(335.667,-236.333,o),
(344,-206.667,o),
(344,-192,cs),
(344,-148.545,o),
(322.408,-100,o),
(262,-100,cs),
(205.165,-100,o),
(170,-153.088,o),
(170,-205,cs)
);
}
);
userData = {
assembly = "NPUSHB[ ]	/* 66 values pushed */
85 72 2 3 4 109 57 17 7 4 0 3 33 1 1 0 3 74 0 3 4 0 4 3 0 126 0 0 1 4 0 1 124 0 1 0 5 1 5 99 0 4 4 2 95 0 2 2 34 4 76 120 118 91 89 78 76 68 66 39 37 26 24 6 8 20
CALL[ ]	/* CallFunction */";
};
width = 1092;
},
{
layerId = "01037D14-118B-4CC1-B98A-141C2A413BDA";
shapes = (
{
closed = 1;
nodes = (
(325,722,o),
(335,767.667,o),
(355,809,c),
(424.276,756.575,o),
(522.659,706.547,o),
(634,630,cs),
(730.671,563.539,o),
(803,484.011,o),
(803,393,cs),
(803,350.333,o),
(791.667,300,o),
(773,260,c),
(704.971,311.481,o),
(609.297,360.032,o),
(494,440.5,cs),
(397.609,507.773,o),
(325,586.848,o),
(325,678,cs)
);
},
{
closed = 1;
nodes = (
(729,-238.456,o),
(668.303,-321,o),
(544,-321,cs),
(483.843,-321,o),
(419.371,-293.616,o),
(401,-249,c),
(418.333,-222.333,o),
(424,-193.333,o),
(424,-164,cs),
(424,-118.393,o),
(386.738,-46,o),
(296,-46,cs),
(214.745,-46,o),
(167,-110.144,o),
(167,-191,cs),
(167,-257.667,o),
(205.333,-327,o),
(272,-379,cs),
(338.667,-431,o),
(434,-467,o),
(546,-467,cs),
(695.333,-467,o),
(798.667,-408.5,o),
(864,-330.5,cs),
(929.333,-252.5,o),
(958,-155.667,o),
(958,-77,cs),
(958,19.766,o),
(912.25,89.231,o),
(876,145,c),
(966.291,235.291,o),
(1035,356.497,o),
(1035,463,cs),
(1035,661.071,o),
(895.196,781.653,o),
(748,878,cs),
(667.872,928.366,o),
(605.518,958.521,o),
(522.5,1024,cs),
(451.049,1080.356,o),
(398.934,1152.036,o),
(397,1241,c),
(399.688,1321.654,o),
(458.619,1410,o),
(582,1410,cs),
(643.333,1410,o),
(699,1380.667,o),
(719,1338,c),
(701.667,1311.333,o),
(696,1282.333,o),
(696,1253,cs),
(696,1208.149,o),
(730.285,1135,o),
(823,1135,cs),
(905.609,1135,o),
(953,1199.657,o),
(953,1280,cs),
(953,1346.667,o),
(914.667,1416,o),
(848,1468,cs),
(781.333,1520,o),
(686,1556,o),
(574,1556,cs),
(431.752,1556,o),
(326.002,1501.095,o),
(260.5,1423.5,cs),
(192.792,1343.292,o),
(168,1249.018,o),
(168,1174,cs),
(168,1094,o),
(185,1004,o),
(249,924,c),
(151.667,832,o),
(90,717,o),
(90,609,cs),
(90,408.423,o),
(234.841,286.531,o),
(385,190,cs),
(460.375,141.371,o),
(516.963,116.223,o),
(603,50.5,cs),
(676.127,-5.361,o),
(729,-74.44,o),
(729,-155,cs)
);
}
);
userData = {
assembly = "NPUSHB[ ]	/* 65 values pushed */
63 1 1 2 88 35 17 7 4 4 1 116 1 5 4 3 74 0 1 2 4 2 1 4 126 0 4 5 2 4 5 124 0 5 0 3 5 3 99 0 2 2 0 95 0 0 0 42 2 76 122 120 109 107 99 97 67 65 56 54 46 44 6 8 20
CALL[ ]	/* CallFunction */";
};
width = 1124;
}
);
note = section;
unicode = 167;
}
{
glyphname = dieresis;
layers = (
{
layerId = m01;
shapes = (
{
closed = 1;
nodes = (
(327,1433.256,o),
(287.028,1493,o),
(226,1493,cs),
(171.02,1493,o),
(123,1436.197,o),
(123,1369,cs),
(123,1301.624,o),
(169.5,1248,o),
(225,1248,cs),
(277.856,1248,o),
(327,1301.639,o),
(327,1369,cs)
);
},
{
closed = 1;
nodes = (
(669,1433.256,o),
(629.028,1493,o),
(568,1493,cs),
(513.02,1493,o),
(465,1436.197,o),
(465,1369,cs),
(465,1301.624,o),
(511.5,1248,o),
(567,1248,cs),
(619.856,1248,o),
(669,1301.639,o),
(669,1369,cs)
);
}
);
userData = {
assembly = "PUSHB[ ]	/* 2 values pushed */
6 100
WCVTP[ ]	/* WriteCVTInPixels */
NPUSHB[ ]	/* 26 values pushed */
3 1 1 0 0 1 87 3 1 1 1 0 95 2 1 0 1 0 79 40 40 40 36 4 8 24
CALL[ ]	/* CallFunction */
PUSHB[ ]	/* 2 values pushed */
6 0
WCVTP[ ]	/* WriteCVTInPixels */";
};
width = 793;
},
{
layerId = "01037D14-118B-4CC1-B98A-141C2A413BDA";
shapes = (
{
closed = 1;
nodes = (
(395,1467.395,o),
(338.194,1538,o),
(260,1538,cs),
(188.424,1538,o),
(123,1469.228,o),
(123,1382,cs),
(123,1296.318,o),
(185.53,1228,o),
(259,1228,cs),
(331.16,1228,o),
(395,1295.718,o),
(395,1382,cs)
);
},
{
closed = 1;
nodes = (
(751,1467.395,o),
(694.194,1538,o),
(616,1538,cs),
(544.424,1538,o),
(479,1469.228,o),
(479,1382,cs),
(479,1296.318,o),
(541.53,1228,o),
(615,1228,cs),
(687.16,1228,o),
(751,1295.718,o),
(751,1382,cs)
);
}
);
userData = {
assembly = "PUSHB[ ]	/* 2 values pushed */
6 100
WCVTP[ ]	/* WriteCVTInPixels */
NPUSHB[ ]	/* 26 values pushed */
3 1 1 0 0 1 87 3 1 1 1 0 95 2 1 0 1 0 79 40 40 40 36 4 8 24
CALL[ ]	/* CallFunction */
PUSHB[ ]	/* 2 values pushed */
6 0
WCVTP[ ]	/* WriteCVTInPixels */";
};
width = 874;
}
);
note = dieresis;
unicode = 168;
}
{
glyphname = logicalnot;
layers = (
{
layerId = m01;
shapes = (
{
closed = 1;
nodes = (
(950,581,l),
(957,322,l),
(1062,322,l),
(1062,700,l),
(150,705,l),
(150,578,l),
(150,578,l)
);
}
);
userData = {
assembly = "MPPEM[ ]	/* MeasurePixelPerEm */
PUSHB[ ]	/* 1 value pushed */
11
LT[ ]	/* LessThan */
IF[ ]	/* If */
NPUSHB[ ]	/* 22 values pushed */
0 1 2 2 1 111 0 0 2 2 0 85 0 0 0 2 93 0 2 0 2 77
ELSE[ ]	/* Else */
NPUSHB[ ]	/* 21 values pushed */
0 1 2 1 132 0 0 2 2 0 85 0 0 0 2 93 0 2 0 2 77
EIF[ ]	/* EndIf */
PUSHB[ ]	/* 6 values pushed */
17 17 16 3 8 23
CALL[ ]	/* CallFunction */";
};
width = 1212;
},
{
layerId = "01037D14-118B-4CC1-B98A-141C2A413BDA";
shapes = (
{
closed = 1;
nodes = (
(865,544,l),
(871,306,l),
(1050,306,l),
(1050,736,l),
(129,741,l),
(129,541,l),
(129,541,l)
);
}
);
userData = {
assembly = "MPPEM[ ]	/* MeasurePixelPerEm */
PUSHB[ ]	/* 1 value pushed */
11
LT[ ]	/* LessThan */
IF[ ]	/* If */
NPUSHB[ ]	/* 22 values pushed */
0 1 2 2 1 111 0 0 2 2 0 85 0 0 0 2 93 0 2 0 2 77
ELSE[ ]	/* Else */
NPUSHB[ ]	/* 21 values pushed */
0 1 2 1 132 0 0 2 2 0 85 0 0 0 2 93 0 2 0 2 77
EIF[ ]	/* EndIf */
PUSHB[ ]	/* 6 values pushed */
17 17 16 3 8 23
CALL[ ]	/* CallFunction */";
};
width = 1190;
}
);
note = logicalnot;
unicode = 172;
}
{
glyphname = registered;
layers = (
{
layerId = m01;
shapes = (
{
closed = 1;
nodes = (
(90,238.925,o),
(409.284,-102,o),
(897,-102,cs),
(1118.393,-102,o),
(1322.943,-16.578,o),
(1474,135.5,cs),
(1626.147,288.675,o),
(1710,492.236,o),
(1710,713,cs),
(1710,944.535,o),
(1626,1147.623,o),
(1485.5,1295,cs),
(1342.168,1445.349,o),
(1137.889,1536,o),
(901,1536,cs),
(667.917,1536,o),
(462.108,1445.113,o),
(318,1295,cs),
(176.055,1147.141,o),
(90,945.005,o),
(90,713,cs)
);
},
{
closed = 1;
nodes = (
(230,907.239,o),
(297.974,1085.354,o),
(412.5,1217.5,cs),
(529.883,1352.942,o),
(697.795,1436,o),
(897,1436,cs),
(1098.868,1436,o),
(1268.438,1353.132,o),
(1389,1217.5,cs),
(1508.253,1083.34,o),
(1575,902.367,o),
(1575,713,cs),
(1575,519.275,o),
(1507.222,343.95,o),
(1392.5,215.5,cs),
(1275.145,84.102,o),
(1105.201,2,o),
(903,2,cs),
(696.368,2,o),
(525.631,83.787,o),
(409,215.5,cs),
(294.503,344.803,o),
(230,518.525,o),
(230,713,cs)
);
},
{
closed = 1;
nodes = (
(778.667,659.333,o),
(806.333,658,o),
(833,658,cs),
(851.667,658,o),
(866,659,o),
(876,661,c),
(896.667,631,o),
(920,596.167,o),
(946,556.5,cs),
(972,516.833,o),
(1000,476,o),
(1030,434,cs),
(1098,338,o),
(1142.667,280.667,o),
(1184,270,c),
(1362,270,l),
(1362,340,l),
(1303.527,340,o),
(1264.309,364.536,o),
(1110,596,cs),
(1075.333,645.333,o),
(1045.667,669.333,o),
(1023,680,c),
(1023,682,l),
(1215.51,735.475,o),
(1272,867.849,o),
(1272,958,cs),
(1272,1118.555,o),
(1141.622,1230,o),
(840,1230,cs),
(717.086,1230,o),
(568.086,1222.69,o),
(514,1221,c),
(514,1135,l),
(617,1145,l),
(613,1118.333,o),
(613,1083,o),
(613,1047,cs),
(613,512,ls),
(613,410.962,o),
(612.024,350.649,o),
(514,348,c),
(514,279,l),
(862,279,l),
(862,360,l),
(760,356,l),
(762.667,381.333,o),
(764,414.333,o),
(764,461,cs),
(764,662,l),
(764,662,l)
);
},
{
closed = 1;
nodes = (
(764,1071.423,o),
(757.368,1142,o),
(886,1142,cs),
(1002.029,1142,o),
(1112,1074.651,o),
(1112,952,cs),
(1112,866.699,o),
(1065.359,812.911,o),
(1008.5,784,cs),
(946.357,752.402,o),
(881.882,744,o),
(837,744,cs),
(813,744,o),
(788.667,745.333,o),
(766,748,cs),
(764,748,l),
(764,969,l),
(764,969,l)
);
}
);
userData = {
assembly = "PUSHB[ ]	/* 2 values pushed */
6 100
WCVTP[ ]	/* WriteCVTInPixels */
NPUSHB[ ]	/* 92 values pushed */
70 1 12 7 110 71 2 11 12 87 1 10 11 3 74 0 0 0 3 7 0 3 103 0 7 0 12 11 7 12 103 0 11 0 10 4 11 10 103 6 1 4 8 5 4 87 0 8 9 1 5 2 8 5 101 0 2 1 1 2 87 0 2 2 1 95 0 1 2 1 79 127 125 115 112 108 104 98 97 96 95 106 17 17 25 44 42 44 38 13 8 28
CALL[ ]	/* CallFunction */
PUSHB[ ]	/* 2 values pushed */
6 0
WCVTP[ ]	/* WriteCVTInPixels */";
};
width = 1798;
},
{
layerId = "01037D14-118B-4CC1-B98A-141C2A413BDA";
shapes = (
{
closed = 1;
nodes = (
(1141,587.667,o),
(1117.667,621.333,o),
(1083,636,c),
(1083,637,l),
(1249.66,684.617,o),
(1312,793.501,o),
(1312,919,cs),
(1312,1125.528,o),
(1156.566,1200,o),
(921,1200,cs),
(534,1199,l),
(534,1092,l),
(638,1096,l),
(635.333,1073.333,o),
(632,1023.333,o),
(632,970,cs),
(632,452,ls),
(632,343.287,o),
(598.405,333.684,o),
(534,331,c),
(534,241,l),
(947,241,l),
(947,348,l),
(831,344,l),
(832.333,366.667,o),
(833,418.667,o),
(833,468,cs),
(833,609,l),
(840.333,608.333,o),
(847.333,608,o),
(854,608,cs),
(866,608,o),
(872,608,o),
(872,608,c),
(890,608,ls),
(896.667,608,o),
(903.667,608.333,o),
(911,609,c),
(929.521,584.305,o),
(978.827,487.464,o),
(1049,370,cs),
(1083.667,310,o),
(1121,266.333,o),
(1153,241,c),
(1368,241,l),
(1368,331,l),
(1304.599,333.642,o),
(1280.392,369.099,o),
(1220,461,cs),
(1165,549,l),
(1165,549,l)
);
},
{
closed = 1;
nodes = (
(867.333,725,o),
(855.667,725.667,o),
(833,731,c),
(833,975,ls),
(833,1063,o),
(862,1086,o),
(918,1086,cs),
(985.04,1086,o),
(1098,1067.656,o),
(1098,915,cs),
(1098,793.667,o),
(1027.333,725,o),
(890,725,cs)
);
},
{
closed = 1;
nodes = (
(95,207.76,o),
(439.45,-146,o),
(941,-146,cs),
(1172.803,-146,o),
(1384.044,-53.456,o),
(1536,99.5,cs),
(1692.747,257.278,o),
(1780,467.366,o),
(1780,694,cs),
(1780,932.919,o),
(1693.137,1140.964,o),
(1547,1295,cs),
(1398.211,1451.831,o),
(1187.813,1546,o),
(944,1546,cs),
(702.656,1546,o),
(489.383,1451.891,o),
(337,1296.5,cs),
(181.186,1137.61,o),
(95,925.71,o),
(95,697,cs)
);
},
{
closed = 1;
nodes = (
(240,894.445,o),
(310.258,1076.737,o),
(433.5,1211,cs),
(557.19,1345.752,o),
(733.82,1428,o),
(941,1428,cs),
(1150.122,1428,o),
(1324.403,1346.16,o),
(1447,1210.5,cs),
(1567.459,1077.206,o),
(1637,899.517,o),
(1637,697,cs),
(1637,302.086,o),
(1370.78,-28,o),
(947,-28,cs),
(733.81,-28,o),
(553.228,53.795,o),
(430.5,186.5,cs),
(308.998,317.88,o),
(240,495.105,o),
(240,697,cs)
);
}
);
userData = {
assembly = "PUSHB[ ]	/* 2 values pushed */
6 100
WCVTP[ ]	/* WriteCVTInPixels */
NPUSHB[ ]	/* 95 values pushed */
40 1 7 5 69 1 6 7 52 1 2 6 27 23 2 0 2 4 74 0 8 0 11 5 8 11 103 0 5 0 7 6 5 7 103 12 1 6 0 2 0 6 2 103 4 1 0 3 1 1 10 0 1 101 0 10 9 9 10 87 0 10 10 9 95 0 9 10 9 79 58 57 118 116 106 104 94 92 80 78 66 64 57 71 58 71 42 17 23 89 17 20 13 8 26
CALL[ ]	/* CallFunction */
PUSHB[ ]	/* 2 values pushed */
6 0
WCVTP[ ]	/* WriteCVTInPixels */";
};
width = 1874;
}
);
note = registered;
unicode = 174;
}
{
glyphname = macron;
layers = (
{
layerId = m01;
shapes = (
{
closed = 1;
nodes = (
(635,1319,l),
(635,1434,l),
(92,1434,l),
(92,1311,l),
(92,1311,l)
);
}
);
userData = {
assembly = "PUSHB[ ]	/* 2 values pushed */
6 100
WCVTP[ ]	/* WriteCVTInPixels */
NPUSHB[ ]	/* 21 values pushed */
0 0 1 1 0 85 0 0 0 1 93 0 1 0 1 77 17 16 2 8 22
CALL[ ]	/* CallFunction */
PUSHB[ ]	/* 2 values pushed */
6 0
WCVTP[ ]	/* WriteCVTInPixels */";
};
width = 727;
},
{
layerId = "01037D14-118B-4CC1-B98A-141C2A413BDA";
shapes = (
{
closed = 1;
nodes = (
(674,1292,l),
(674,1481,l),
(92,1481,l),
(92,1285,l),
(92,1285,l)
);
}
);
userData = {
assembly = "PUSHB[ ]	/* 2 values pushed */
6 100
WCVTP[ ]	/* WriteCVTInPixels */
NPUSHB[ ]	/* 21 values pushed */
0 0 1 1 0 85 0 0 0 1 93 0 1 0 1 77 17 16 2 8 22
CALL[ ]	/* CallFunction */
PUSHB[ ]	/* 2 values pushed */
6 0
WCVTP[ ]	/* WriteCVTInPixels */";
};
width = 766;
}
);
note = macron;
unicode = 175;
}
{
glyphname = degree;
layers = (
{
layerId = m01;
shapes = (
{
closed = 1;
nodes = (
(225,1260.685,o),
(301.111,1365,o),
(413,1365,cs),
(527.526,1365,o),
(604,1261.604,o),
(604,1148,cs),
(604,1030.633,o),
(525.04,933,o),
(415,933,cs),
(302.353,933,o),
(225,1031.795,o),
(225,1148,cs)
);
},
{
closed = 1;
nodes = (
(96,969.106,o),
(220.208,828,o),
(411,828,cs),
(583.285,828,o),
(733,969.34,o),
(733,1148,cs),
(733,1331.278,o),
(604.338,1467,o),
(417,1467,cs),
(244.627,1467,o),
(96,1327.609,o),
(96,1148,cs)
);
}
);
userData = {
assembly = "PUSHB[ ]	/* 2 values pushed */
6 100
WCVTP[ ]	/* WriteCVTInPixels */
NPUSHB[ ]	/* 31 values pushed */
0 2 0 1 0 2 1 103 0 0 3 3 0 87 0 0 0 3 95 0 3 0 3 79 40 40 40 36 4 8 24
CALL[ ]	/* CallFunction */
PUSHB[ ]	/* 2 values pushed */
6 0
WCVTP[ ]	/* WriteCVTInPixels */";
};
width = 829;
},
{
layerId = "01037D14-118B-4CC1-B98A-141C2A413BDA";
shapes = (
{
closed = 1;
nodes = (
(232,1237.278,o),
(297.364,1323,o),
(391,1323,cs),
(486.765,1323,o),
(552,1237.897,o),
(552,1139,cs),
(552,1042.958,o),
(489.77,955,o),
(392,955,cs),
(294.23,955,o),
(232,1042.958,o),
(232,1139,cs)
);
},
{
closed = 1;
nodes = (
(58,950.794,o),
(189.386,808,o),
(389,808,cs),
(571.101,808,o),
(726,952.061,o),
(726,1139,cs),
(726,1327.725,o),
(594.366,1467,o),
(394,1467,cs),
(212.667,1467,o),
(58,1325.667,o),
(58,1139,cs)
);
}
);
userData = {
assembly = "PUSHB[ ]	/* 2 values pushed */
6 100
WCVTP[ ]	/* WriteCVTInPixels */
NPUSHB[ ]	/* 31 values pushed */
0 2 0 1 0 2 1 103 0 0 3 3 0 87 0 0 0 3 95 0 3 0 3 79 40 40 40 36 4 8 24
CALL[ ]	/* CallFunction */
PUSHB[ ]	/* 2 values pushed */
6 0
WCVTP[ ]	/* WriteCVTInPixels */";
};
width = 782;
}
);
note = degree;
unicode = 176;
}
{
glyphname = acute;
layers = (
{
layerId = m01;
shapes = (
{
closed = 1;
nodes = (
(396.333,1423,o),
(408,1439.667,o),
(414,1455,cs),
(418,1464.333,o),
(423,1478.333,o),
(423,1493,cs),
(423,1527.386,o),
(403.377,1550.907,o),
(380.5,1560.5,cs),
(346.537,1574.742,o),
(303.53,1567.717,o),
(264,1511,c),
(92,1235,l),
(149,1188,l),
(379,1405,l),
(379,1405,l)
);
}
);
userData = {
assembly = "PUSHB[ ]	/* 2 values pushed */
6 100
WCVTP[ ]	/* WriteCVTInPixels */
NPUSHB[ ]	/* 12 values pushed */
1 1 0 71 0 0 0 116 20 1 8 21
CALL[ ]	/* CallFunction */
PUSHB[ ]	/* 2 values pushed */
6 0
WCVTP[ ]	/* WriteCVTInPixels */";
};
width = 516;
},
{
layerId = "01037D14-118B-4CC1-B98A-141C2A413BDA";
shapes = (
{
closed = 1;
nodes = (
(465,1404.667,o),
(487,1449.333,o),
(487,1492,cs),
(487,1545.596,o),
(442.425,1602,o),
(379,1602,cs),
(332.333,1602,o),
(286,1572.333,o),
(258,1527,cs),
(90,1241,l),
(184,1158,l),
(433,1374,l),
(433,1374,l)
);
}
);
userData = {
assembly = "PUSHB[ ]	/* 2 values pushed */
6 100
WCVTP[ ]	/* WriteCVTInPixels */
NPUSHB[ ]	/* 12 values pushed */
1 1 0 71 0 0 0 116 36 1 8 21
CALL[ ]	/* CallFunction */
PUSHB[ ]	/* 2 values pushed */
6 0
WCVTP[ ]	/* WriteCVTInPixels */";
};
width = 578;
}
);
note = acute;
unicode = 180;
}
{
glyphname = periodcentered;
layers = (
{
layerId = m01;
shapes = (
{
alignment = -1;
pos = (6,573);
ref = period;
}
);
userData = {
assembly = "PUSHB[ ]	/* 2 values pushed */
0 1
PUSHW[ ]	/* 1 value pushed */
573
PUSHB[ ]	/* 1 value pushed */
51
CALL[ ]	/* CallFunction */";
};
width = 512;
},
{
layerId = "01037D14-118B-4CC1-B98A-141C2A413BDA";
shapes = (
{
closed = 1;
nodes = (
(380,784.901,o),
(320.612,860,o),
(232,860,cs),
(153.467,860,o),
(83,789.858,o),
(83,699,cs),
(83,611.005,o),
(144.327,540,o),
(235,540,cs),
(322.583,540,o),
(380,610.883,o),
(380,699,cs)
);
}
);
userData = {
assembly = "NPUSHB[ ]	/* 21 values pushed */
0 1 0 0 1 87 0 1 1 0 95 0 0 1 0 79 40 36 2 8 22
CALL[ ]	/* CallFunction */";
};
width = 463;
}
);
note = periodcentered;
unicode = 183;
}
{
glyphname = cedilla;
layers = (
{
layerId = m01;
shapes = (
{
closed = 1;
nodes = (
(322.333,-116,o),
(267.667,-128,o),
(229,-152,c),
(285,16,l),
(170,16,l),
(111,-204,l),
(180,-238,l),
(206.667,-219.333,o),
(242.333,-208,o),
(273,-208,cs),
(309,-208,o),
(338,-225,o),
(338,-269,cs),
(338,-350.545,o),
(223.304,-402.274,o),
(92,-425,c),
(104,-494,l),
(174.055,-483.992,o),
(270.743,-465.265,o),
(357.5,-427.5,cs),
(443.803,-389.933,o),
(506,-330.541,o),
(506,-251,cs),
(506,-167,o),
(453,-116,o),
(369,-116,cs)
);
}
);
userData = {
assembly = "PUSHB[ ]	/* 2 values pushed */
6 100
WCVTP[ ]	/* WriteCVTInPixels */
NPUSHB[ ]	/* 50 values pushed */
26 23 2 1 0 1 74 22 10 2 1 71 3 1 0 2 1 2 0 1 126 0 2 0 1 2 85 0 2 2 1 95 0 1 2 1 79 1 0 25 24 20 18 0 28 1 28 4 8 20
CALL[ ]	/* CallFunction */
PUSHB[ ]	/* 2 values pushed */
6 0
WCVTP[ ]	/* WriteCVTInPixels */";
};
width = 598;
},
{
layerId = "01037D14-118B-4CC1-B98A-141C2A413BDA";
shapes = (
{
closed = 1;
nodes = (
(385.317,-109,o),
(319.383,-121.948,o),
(284,-141,c),
(282,-141,l),
(342,20,l),
(186,20,l),
(123,-240,l),
(199,-272,l),
(217.667,-257.333,o),
(250.333,-245,o),
(281,-245,cs),
(311.667,-245,o),
(338,-258,o),
(338,-294,cs),
(338,-334.272,o),
(295.187,-365.75,o),
(239.5,-386,cs),
(183.322,-406.429,o),
(124.696,-417.87,o),
(92,-424,c),
(108,-530,l),
(184.14,-520.238,o),
(296.18,-499.376,o),
(399.5,-454.5,cs),
(499.82,-410.927,o),
(573,-344.695,o),
(573,-252,cs),
(573,-152.201,o),
(506.984,-111.677,o),
(424,-109,cs)
);
}
);
userData = {
assembly = "PUSHB[ ]	/* 2 values pushed */
6 100
WCVTP[ ]	/* WriteCVTInPixels */
NPUSHB[ ]	/* 51 values pushed */
30 27 2 1 0 1 74 26 13 12 3 1 71 3 1 0 2 1 2 0 1 126 0 2 0 1 2 85 0 2 2 1 95 0 1 2 1 79 1 0 29 28 24 22 0 35 1 35 4 8 20
CALL[ ]	/* CallFunction */
PUSHB[ ]	/* 2 values pushed */
6 0
WCVTP[ ]	/* WriteCVTInPixels */";
};
width = 665;
}
);
note = cedilla;
unicode = 184;
}
{
glyphname = guillemotright;
kernLeft = guillemotright;
kernRight = guillemotright;
layers = (
{
layerId = m01;
shapes = (
{
closed = 1;
nodes = (
(687,703.333,o),
(598,865.333,o),
(446,956,c),
(438,958,o),
(430.667,952,o),
(424,938,cs),
(422,934,o),
(421.667,931.333,o),
(423,930,c),
(503.667,796.667,o),
(544,646,o),
(544,478,cs),
(544,312,o),
(500.333,160.667,o),
(413,24,cs),
(406.333,13.333,o),
(427.667,-2.333,o),
(437,-1,c),
(578.333,69.667,o),
(687,279.333,o),
(687,486,cs)
);
},
{
closed = 1;
nodes = (
(372,703.333,o),
(282.333,865.333,o),
(129,956,c),
(121,958,o),
(114.667,952,o),
(110,938,cs),
(108,933.333,o),
(107.333,930.667,o),
(108,930,cs),
(188,795.333,o),
(228,644.667,o),
(228,478,cs),
(228,311.333,o),
(185.333,160,o),
(100,24,c),
(89.333,13.333,o),
(111,-2.333,o),
(123,-1,c),
(263,69.667,o),
(372,279.333,o),
(372,486,cs)
);
}
);
userData = {
assembly = "PUSHB[ ]	/* 6 values pushed */
29 21 13 4 2 48
CALL[ ]	/* CallFunction */";
};
width = 797;
},
{
layerId = "01037D14-118B-4CC1-B98A-141C2A413BDA";
shapes = (
{
closed = 1;
nodes = (
(707,730,o),
(614.667,899.667,o),
(456,993,cs),
(453,995,l),
(450,996,ls),
(438,998.667,o),
(427.667,995.333,o),
(419,986,cs),
(414.333,981.333,o),
(410,975,o),
(406,967,cs),
(401.333,957.667,o),
(401,949,o),
(405,941,cs),
(484.333,809.667,o),
(524,662,o),
(524,498,cs),
(524,336,o),
(481.333,188.333,o),
(396,55,cs),
(386.667,39.667,o),
(390,25.333,o),
(406,12,cs),
(418,2,o),
(429.333,-2.333,o),
(440,-1,c),
(443,0,l),
(446,1,ls),
(596.667,75.667,o),
(707,291.333,o),
(707,506,cs)
);
},
{
closed = 1;
nodes = (
(168.667,808.667,o),
(208,660.833,o),
(208,498.5,cs),
(208,336.167,o),
(166.667,189,o),
(84,57,cs),
(73.333,38.333,o),
(78,22.667,o),
(90,12,cs),
(102,1.333,o),
(114,-3,o),
(126,-1,cs),
(129,0,l),
(132,1,ls),
(281.333,75.667,o),
(392,292.667,o),
(392,506,cs),
(392,730,o),
(297.667,898.333,o),
(139,993,cs),
(136,995,l),
(133,996,ls),
(114.333,1000,o),
(100.667,990,o),
(92,966,c),
(87.333,957.333,o),
(86.667,949.333,o),
(90,942,c)
);
}
);
userData = {
assembly = "PUSHB[ ]	/* 6 values pushed */
39 27 18 6 2 48
CALL[ ]	/* CallFunction */";
};
width = 797;
}
);
note = guillemotright;
unicode = 187;
}
{
glyphname = circumflex;
layers = (
{
layerId = m01;
shapes = (
{
closed = 1;
nodes = (
(143,1208,l),
(408,1417,l),
(412,1417,l),
(672,1194,l),
(727,1260,l),
(422,1593,l),
(418,1593,l),
(92,1268,l),
(92,1268,l)
);
}
);
userData = {
assembly = "PUSHB[ ]	/* 4 values pushed */
3 0 1 48
CALL[ ]	/* CallFunction */";
};
width = 819;
},
{
layerId = "01037D14-118B-4CC1-B98A-141C2A413BDA";
shapes = (
{
closed = 1;
nodes = (
(176,1166,l),
(438,1365,l),
(440,1365,l),
(701,1151,l),
(789,1256,l),
(461,1603,l),
(440,1603,l),
(90,1264,l),
(90,1264,l)
);
}
);
userData = {
assembly = "PUSHB[ ]	/* 2 values pushed */
6 100
WCVTP[ ]	/* WriteCVTInPixels */
NPUSHB[ ]	/* 16 values pushed */
7 6 4 3 2 5 0 71 0 0 0 116 16 1 8 21
CALL[ ]	/* CallFunction */
PUSHB[ ]	/* 2 values pushed */
6 0
WCVTP[ ]	/* WriteCVTInPixels */";
};
width = 879;
}
);
note = circumflex;
unicode = 710;
}
{
glyphname = caron;
layers = (
{
layerId = m01;
shapes = (
{
closed = 1;
nodes = (
(676,1577,l),
(412,1350,l),
(408,1350,l),
(147,1573,l),
(92,1507,l),
(397,1174,l),
(401,1174,l),
(727,1518,l),
(727,1518,l)
);
}
);
userData = {
assembly = "PUSHB[ ]	/* 4 values pushed */
6 0 1 48
CALL[ ]	/* CallFunction */";
};
width = 819;
},
{
layerId = "01037D14-118B-4CC1-B98A-141C2A413BDA";
shapes = (
{
closed = 1;
nodes = (
(693,1619,l),
(445,1404,l),
(443,1404,l),
(178,1619,l),
(90,1514,l),
(423,1167,l),
(444,1167,l),
(779,1521,l),
(779,1521,l)
);
}
);
userData = {
assembly = "PUSHB[ ]	/* 2 values pushed */
6 100
WCVTP[ ]	/* WriteCVTInPixels */
NPUSHB[ ]	/* 16 values pushed */
7 6 4 3 2 5 0 72 0 0 0 116 16 1 8 21
CALL[ ]	/* CallFunction */
PUSHB[ ]	/* 2 values pushed */
6 0
WCVTP[ ]	/* WriteCVTInPixels */";
};
width = 869;
}
);
note = caron;
unicode = 711;
}
{
glyphname = uni02C9;
layers = (
{
layerId = m01;
shapes = (
{
closed = 1;
nodes = (
(565,1349,l),
(22,1349,l),
(22,1226,l),
(565,1234,l),
(565,1234,l)
);
}
);
userData = {
assembly = "PUSHB[ ]	/* 2 values pushed */
6 100
WCVTP[ ]	/* WriteCVTInPixels */
NPUSHB[ ]	/* 27 values pushed */
0 0 1 1 0 85 0 0 0 1 93 2 1 1 0 1 77 0 0 0 3 0 3 17 3 8 21
CALL[ ]	/* CallFunction */
PUSHB[ ]	/* 2 values pushed */
6 0
WCVTP[ ]	/* WriteCVTInPixels */";
};
width = 600;
},
{
layerId = "01037D14-118B-4CC1-B98A-141C2A413BDA";
shapes = (
{
closed = 1;
nodes = (
(604,1367,l),
(22,1367,l),
(22,1171,l),
(604,1178,l),
(604,1178,l)
);
}
);
userData = {
assembly = "PUSHB[ ]	/* 2 values pushed */
6 100
WCVTP[ ]	/* WriteCVTInPixels */
NPUSHB[ ]	/* 27 values pushed */
0 0 1 1 0 85 0 0 0 1 93 2 1 1 0 1 77 0 0 0 3 0 3 17 3 8 21
CALL[ ]	/* CallFunction */
PUSHB[ ]	/* 2 values pushed */
6 0
WCVTP[ ]	/* WriteCVTInPixels */";
};
width = 600;
}
);
note = uni02C9;
unicode = 713;
}
{
glyphname = breve;
layers = (
{
layerId = m01;
shapes = (
{
closed = 1;
nodes = (
(441.667,1237,o),
(503.333,1263.333,o),
(554,1316,cs),
(592.667,1356.667,o),
(625,1413,o),
(651,1485,c),
(596,1509,l),
(556.406,1435.091,o),
(470.393,1362,o),
(375,1362,cs),
(281.518,1362,o),
(191.611,1431.059,o),
(152,1505,c),
(92,1475,l),
(141.075,1317.443,o),
(259.408,1237,o),
(369,1237,cs)
);
}
);
userData = {
assembly = "PUSHB[ ]	/* 2 values pushed */
6 100
WCVTP[ ]	/* WriteCVTInPixels */
NPUSHB[ ]	/* 35 values pushed */
17 16 6 5 4 1 72 0 1 0 0 1 87 0 1 1 0 95 2 1 0 1 0 79 1 0 12 10 0 20 1 20 3 8 20
CALL[ ]	/* CallFunction */
PUSHB[ ]	/* 2 values pushed */
6 0
WCVTP[ ]	/* WriteCVTInPixels */";
};
width = 743;
},
{
layerId = "01037D14-118B-4CC1-B98A-141C2A413BDA";
shapes = (
{
closed = 1;
nodes = (
(548.739,1229,o),
(665.078,1305.215,o),
(737,1505,c),
(605,1564,l),
(566.134,1491.45,o),
(514.758,1418,o),
(418,1418,cs),
(321.914,1418,o),
(266.122,1486.654,o),
(224,1563,c),
(90,1495,l),
(122,1396.333,o),
(173.667,1330.5,o),
(231,1288.5,cs),
(288.333,1246.5,o),
(352.667,1229,o),
(410,1229,cs)
);
}
);
userData = {
assembly = "PUSHB[ ]	/* 2 values pushed */
6 100
WCVTP[ ]	/* WriteCVTInPixels */
NPUSHB[ ]	/* 35 values pushed */
17 16 6 5 4 1 72 0 1 0 0 1 87 0 1 1 0 95 2 1 0 1 0 79 1 0 12 10 0 21 1 21 3 8 20
CALL[ ]	/* CallFunction */
PUSHB[ ]	/* 2 values pushed */
6 0
WCVTP[ ]	/* WriteCVTInPixels */";
};
width = 827;
}
);
note = breve;
unicode = 728;
}
{
glyphname = ring;
layers = (
{
layerId = m01;
shapes = (
{
closed = 1;
nodes = (
(384,1495,o),
(418,1440,o),
(418,1352,cs),
(418,1277.333,o),
(380.667,1231,o),
(330,1231,cs),
(270.697,1231,o),
(233,1291.337,o),
(233,1372,cs),
(233,1452,o),
(277.333,1495,o),
(324,1495,cs)
);
},
{
closed = 1;
nodes = (
(225.252,1559,o),
(125,1477.002,o),
(125,1362,cs),
(125,1226.704,o),
(226.917,1167,o),
(328,1167,cs),
(421.175,1167,o),
(526,1237.804,o),
(526,1374,cs),
(526,1496.543,o),
(417.663,1559,o),
(324,1559,cs)
);
}
);
userData = {
assembly = "PUSHB[ ]	/* 2 values pushed */
6 100
WCVTP[ ]	/* WriteCVTInPixels */
NPUSHB[ ]	/* 45 values pushed */
5 1 2 4 1 0 1 2 0 103 0 1 3 3 1 87 0 1 1 3 95 0 3 1 3 79 15 14 1 0 25 23 14 33 15 33 9 7 0 13 1 13 6 8 20
CALL[ ]	/* CallFunction */
PUSHB[ ]	/* 2 values pushed */
6 0
WCVTP[ ]	/* WriteCVTInPixels */";
};
width = 651;
},
{
layerId = "01037D14-118B-4CC1-B98A-141C2A413BDA";
shapes = (
{
closed = 1;
nodes = (
(409,1505,o),
(446,1469.333,o),
(446,1376,cs),
(446,1312,o),
(412.667,1278,o),
(378,1278,cs),
(330,1278,o),
(295,1319.333,o),
(295,1406,cs),
(295,1475.333,o),
(330.333,1503.667,o),
(365,1505,cs)
);
},
{
closed = 1;
nodes = (
(240.498,1628,o),
(125,1524.769,o),
(125,1389,cs),
(125,1237.594,o),
(252.271,1153,o),
(369,1153,cs),
(484.257,1153,o),
(609,1245.795,o),
(609,1397,cs),
(609,1553.561,o),
(481.05,1628,o),
(366,1628,cs)
);
}
);
userData = {
assembly = "PUSHB[ ]	/* 2 values pushed */
6 100
WCVTP[ ]	/* WriteCVTInPixels */
NPUSHB[ ]	/* 45 values pushed */
5 1 2 4 1 0 1 2 0 103 0 1 3 3 1 87 0 1 1 3 95 0 3 1 3 79 13 12 1 0 23 21 12 31 13 31 7 5 0 11 1 11 6 8 20
CALL[ ]	/* CallFunction */
PUSHB[ ]	/* 2 values pushed */
6 0
WCVTP[ ]	/* WriteCVTInPixels */";
};
width = 734;
}
);
note = ring;
unicode = 730;
}
{
glyphname = ogonek;
layers = (
{
layerId = m01;
shapes = (
{
closed = 1;
nodes = (
(317.769,33.923,o),
(92,-120.974,o),
(92,-322,cs),
(92,-443.649,o),
(177.374,-531,o),
(309,-531,cs),
(407.9,-531,o),
(499.065,-466.722,o),
(553,-402,c),
(518,-365,l),
(479.333,-398.333,o),
(434.333,-421,o),
(385,-421,cs),
(316.691,-421,o),
(258,-366.116,o),
(258,-281,cs),
(258,-120.383,o),
(385.03,-10.895,o),
(528,50,c),
(528,104,l),
(528,104,l)
);
}
);
userData = {
assembly = "PUSHB[ ]	/* 2 values pushed */
6 100
WCVTP[ ]	/* WriteCVTInPixels */
NPUSHB[ ]	/* 21 values pushed */
29 14 13 0 4 0 72 0 0 1 0 131 0 1 1 116 39 41 2 8 22
CALL[ ]	/* CallFunction */
PUSHB[ ]	/* 2 values pushed */
6 0
WCVTP[ ]	/* WriteCVTInPixels */";
};
width = 645;
},
{
layerId = "01037D14-118B-4CC1-B98A-141C2A413BDA";
shapes = (
{
closed = 1;
nodes = (
(434.333,92.333,o),
(319.667,28,o),
(233,-52,cs),
(146.333,-132,o),
(90,-228.333,o),
(90,-331,cs),
(90,-476.224,o),
(185.295,-542,o),
(312,-542,cs),
(409.333,-542,o),
(510,-481,o),
(582,-385,c),
(510,-297,l),
(467.333,-335.667,o),
(422,-356,o),
(382,-356,cs),
(323.333,-356,o),
(293,-320,o),
(293,-268,cs),
(293,-155.216,o),
(429.469,-50.471,o),
(553,1,c),
(553,131,l),
(553,131,l)
);
}
);
userData = {
assembly = "PUSHB[ ]	/* 2 values pushed */
6 100
WCVTP[ ]	/* WriteCVTInPixels */
NPUSHB[ ]	/* 33 values pushed */
12 1 1 0 1 74 25 11 0 3 0 72 0 0 1 1 0 87 0 0 0 1 95 0 1 0 1 79 37 39 2 8 22
CALL[ ]	/* CallFunction */
PUSHB[ ]	/* 2 values pushed */
6 0
WCVTP[ ]	/* WriteCVTInPixels */";
};
width = 672;
}
);
note = ogonek;
unicode = 731;
}
{
glyphname = tilde;
layers = (
{
layerId = m01;
shapes = (
{
closed = 1;
nodes = (
(357.698,1364,o),
(424.522,1253,o),
(551,1253,cs),
(627.215,1253,o),
(717.076,1319.229,o),
(760,1448,c),
(700,1479,l),
(668,1419,o),
(611,1380,o),
(551,1380,cs),
(461.392,1380,o),
(410.62,1489,o),
(281,1489,cs),
(204.085,1486.348,o),
(106.268,1407.896,o),
(72,1313,c),
(133,1278,l),
(171.667,1338,o),
(232.333,1364,o),
(283,1364,cs)
);
}
);
userData = {
assembly = "PUSHB[ ]	/* 2 values pushed */
6 100
WCVTP[ ]	/* WriteCVTInPixels */
NPUSHB[ ]	/* 52 values pushed */
18 17 2 2 1 4 3 2 3 0 2 74 0 2 0 3 2 87 0 1 4 1 0 3 1 0 103 0 2 2 3 95 0 3 2 3 79 1 0 24 22 15 13 10 8 0 27 1 27 5 8 20
CALL[ ]	/* CallFunction */
PUSHB[ ]	/* 2 values pushed */
6 0
WCVTP[ ]	/* WriteCVTInPixels */";
};
width = 831;
},
{
layerId = "01037D14-118B-4CC1-B98A-141C2A413BDA";
shapes = (
{
closed = 1;
nodes = (
(392.089,1322,o),
(450.244,1243,o),
(559,1243,cs),
(639.754,1243,o),
(745.812,1311.76,o),
(802,1483,c),
(686,1542,l),
(651.333,1478,o),
(607,1439,o),
(559,1439,cs),
(460.538,1439,o),
(436.788,1517,o),
(309,1517,cs),
(216.794,1517,o),
(111.863,1427.355,o),
(70,1307,c),
(184,1239,l),
(226.328,1302.493,o),
(279.884,1322,o),
(312,1322,cs)
);
}
);
userData = {
assembly = "PUSHB[ ]	/* 2 values pushed */
6 100
WCVTP[ ]	/* WriteCVTInPixels */
NPUSHB[ ]	/* 55 values pushed */
20 1 1 0 6 1 2 3 2 74 19 1 0 72 5 1 2 71 0 1 3 2 1 87 0 0 4 1 3 2 0 3 103 0 1 1 2 95 0 2 1 2 79 0 0 0 29 0 29 39 35 42 5 8 23
CALL[ ]	/* CallFunction */
PUSHB[ ]	/* 2 values pushed */
6 0
WCVTP[ ]	/* WriteCVTInPixels */";
};
width = 872;
}
);
note = tilde;
unicode = 732;
}
{
glyphname = hungarumlaut;
layers = (
{
layerId = m01;
shapes = (
{
closed = 1;
nodes = (
(386.667,1440.333,o),
(399,1472.667,o),
(399,1498,cs),
(399,1525.188,o),
(379.401,1558,o),
(336,1558,cs),
(312,1558,o),
(280.667,1545.667,o),
(246,1503,c),
(61,1245,l),
(113,1196,l),
(344,1399,l),
(344,1399,l)
);
},
{
closed = 1;
nodes = (
(726.667,1429.667,o),
(745,1461.667,o),
(745,1491,cs),
(745,1521.36,o),
(723.222,1556,o),
(678,1556,cs),
(652.667,1556,o),
(620,1543,o),
(584,1503,cs),
(371,1266,l),
(410,1214,l),
(676,1395,l),
(676,1395,l)
);
}
);
userData = {
assembly = "PUSHB[ ]	/* 2 values pushed */
6 100
WCVTP[ ]	/* WriteCVTInPixels */
NPUSHB[ ]	/* 15 values pushed */
14 1 2 0 71 1 1 0 0 116 43 36 2 8 22
CALL[ ]	/* CallFunction */
PUSHB[ ]	/* 2 values pushed */
6 0
WCVTP[ ]	/* WriteCVTInPixels */";
};
width = 797;
},
{
layerId = "01037D14-118B-4CC1-B98A-141C2A413BDA";
shapes = (
{
closed = 1;
nodes = (
(425.667,1446,o),
(453,1494,o),
(453,1538,cs),
(453,1580.169,o),
(418.995,1626,o),
(368,1626,cs),
(320,1626,o),
(267.333,1585.667,o),
(230,1531,cs),
(60,1271,l),
(154,1188,l),
(391,1414,l),
(391,1414,l)
);
},
{
closed = 1;
nodes = (
(776.545,1417.409,o),
(820,1467.032,o),
(820,1518,cs),
(820,1562,o),
(783,1602,o),
(735,1602,cs),
(688.333,1602,o),
(633,1571.667,o),
(589,1521,cs),
(387,1287,l),
(466,1190,l),
(732,1384,l),
(732,1384,l)
);
}
);
userData = {
assembly = "PUSHB[ ]	/* 2 values pushed */
6 100
WCVTP[ ]	/* WriteCVTInPixels */
NPUSHB[ ]	/* 16 values pushed */
22 15 1 3 0 71 1 1 0 0 116 45 20 2 8 22
CALL[ ]	/* CallFunction */
PUSHB[ ]	/* 2 values pushed */
6 0
WCVTP[ ]	/* WriteCVTInPixels */";
};
width = 877;
}
);
note = hungarumlaut;
unicode = 733;
}
{
glyphname = Omega;
layers = (
{
layerId = m01;
shapes = (
{
closed = 1;
nodes = (
(1453,0,l),
(1465,276,l),
(1404,276,l),
(1404,157.867,o),
(1326.133,133,o),
(1152,133,cs),
(982,133,l),
(982,135,l),
(1216.209,222.828,o),
(1477,470.767,o),
(1477,776,cs),
(1477,940.28,o),
(1426.648,1109.647,o),
(1318,1242,cs),
(1244.667,1331.333,o),
(1145.333,1399.333,o),
(1016,1438,cs),
(951.333,1457.333,o),
(879,1467,o),
(799,1467,cs),
(644.333,1467,o),
(518.333,1426.667,o),
(417,1360,cs),
(366.333,1326.667,o),
(322.167,1287.667,o),
(284.5,1243,cs),
(172.763,1110.498,o),
(117,941.287,o),
(117,776,cs),
(117,467.759,o),
(341.328,210.126,o),
(615,135,c),
(615,133,l),
(470,133,ls),
(295.867,133,o),
(218,157.867,o),
(218,276,c),
(156,276,l),
(167,0,l),
(705,0,l),
(705,154,l),
(615.667,164.667,o),
(519.667,224,o),
(445,328,cs),
(370.333,432,o),
(318,581.333,o),
(318,772,cs),
(318,930.093,o),
(363.226,1080.882,o),
(440.5,1192.5,cs),
(521.435,1309.405,o),
(645.321,1385,o),
(797,1385,cs),
(949.87,1385,o),
(1068.88,1308.194,o),
(1150,1185.5,cs),
(1226.89,1069.204,o),
(1270,912.605,o),
(1270,741,cs),
(1270,583.667,o),
(1225,449.5,o),
(1157,347.5,cs),
(1089,245.5,o),
(999.333,178,o),
(910,154,c),
(910,0,l),
(910,0,l)
);
}
);
userData = {
assembly = "NPUSHB[ ]	/* 49 values pushed */
24 0 2 3 2 1 74 6 1 2 0 3 3 2 112 0 0 0 4 95 0 4 4 40 75 5 1 3 3 1 94 7 1 1 1 33 1 76 17 20 59 44 36 17 28 43 8 8 28
CALL[ ]	/* CallFunction */";
};
width = 1599;
},
{
layerId = "01037D14-118B-4CC1-B98A-141C2A413BDA";
shapes = (
{
closed = 1;
nodes = (
(378,200,ls),
(294.327,200,o),
(238,223.648,o),
(238,333,c),
(108,333,l),
(124,0,l),
(762,0,l),
(762,223,l),
(679.333,232.333,o),
(590.333,287.667,o),
(521,381,cs),
(451.667,474.333,o),
(403,605.333,o),
(403,768,cs),
(403,902.748,o),
(431.981,1035.538,o),
(493.5,1141,cs),
(557.002,1249.86,o),
(662.612,1322,o),
(805,1322,cs),
(1097.091,1322,o),
(1188,1035.115,o),
(1188,755,cs),
(1188,609.667,o),
(1147.667,486,o),
(1085,394,cs),
(1022.333,302,o),
(939,241.667,o),
(851,223,c),
(851,0,l),
(1493,0,l),
(1509,333,l),
(1379,333,l),
(1379,223.648,o),
(1322.673,200,o),
(1239,200,cs),
(1015,205,l),
(1015,207,l),
(1282.38,287.214,o),
(1480,542.339,o),
(1480,811,cs),
(1480,975.957,o),
(1422.353,1136.21,o),
(1309,1260.5,cs),
(1194.166,1386.414,o),
(1020.217,1467,o),
(799,1467,cs),
(587.192,1467,o),
(411.472,1380.968,o),
(294.5,1251,cs),
(178.459,1122.066,o),
(115,957.947,o),
(115,792,cs),
(115,508.934,o),
(314.119,276.226,o),
(607,207,c),
(607,205,l),
(607,205,l)
);
}
);
userData = {
assembly = "NPUSHB[ ]	/* 49 values pushed */
57 35 2 1 2 1 74 6 1 2 4 1 1 2 112 0 4 4 0 95 0 0 0 40 75 7 1 1 1 3 94 5 1 3 3 33 3 76 36 17 28 42 17 20 59 43 8 8 28
CALL[ ]	/* CallFunction */";
};
width = 1610;
}
);
note = Omega;
unicode = 937;
}
{
glyphname = pi;
layers = (
{
layerId = m01;
shapes = (
{
closed = 1;
nodes = (
(102.109,145,o),
(51,121.447,o),
(51,58,cs),
(51,-3.333,o),
(97,-33,o),
(149,-33,cs),
(243.338,-33,o),
(329.263,33.37,o),
(368,147,cs),
(393.314,222.942,o),
(408.607,362.084,o),
(413.5,503,cs),
(416.833,599,o),
(419,694.667,o),
(419,784,cs),
(419,866,o),
(419,907,o),
(419,907,c),
(474.333,903.667,o),
(530.333,898,o),
(587,890,cs),
(643.667,882,o),
(705,876.333,o),
(771,873,c),
(771,845.667,o),
(770.833,810,o),
(770.5,766,cs),
(770.167,722,o),
(770,674.833,o),
(770,624.5,cs),
(770,574.167,o),
(769.667,523.167,o),
(769,471.5,cs),
(768.333,419.833,o),
(768,372.833,o),
(768,330.5,cs),
(768,288.167,o),
(767.833,253.167,o),
(767.5,225.5,cs),
(767.167,197.833,o),
(767,182.667,o),
(767,180,cs),
(767,98.94,o),
(793.934,-33,o),
(935,-33,cs),
(1009.084,-33,o),
(1092.86,20.344,o),
(1128,69,c),
(1103,102,l),
(1079,84.667,o),
(1052.667,77,o),
(1034,77,cs),
(970.174,77,o),
(946,135.252,o),
(946,268,cs),
(948,885,l),
(1026.155,911.052,o),
(1087.966,973.044,o),
(1118,1014,c),
(1083,1057,l),
(1005.455,1019.565,o),
(953.253,1010,o),
(884,1010,cs),
(826.667,1010,o),
(747,1019.5,o),
(655,1029.5,cs),
(563,1039.5,o),
(459.333,1049,o),
(354,1049,cs),
(224.088,1049,o),
(137.387,979.002,o),
(79,910,c),
(112,865,l),
(179.59,898.795,o),
(233.857,910,o),
(335,910,c),
(335,778,ls),
(335,630.197,o),
(327.992,427.847,o),
(301.5,289.5,cs),
(283.5,195.5,o),
(254.667,127.333,o),
(212,114,c),
(189.333,134.667,o),
(164,145,o),
(136,145,cs)
);
}
);
userData = {
assembly = "NPUSHB[ ]	/* 102 values pushed */
31 1 3 2 36 1 6 1 14 1 0 6 45 2 2 4 0 46 1 5 4 5 74 15 1 1 1 73 30 1 2 72 0 6 1 0 1 6 0 126 0 4 0 5 0 4 5 126 0 3 3 35 75 7 1 1 1 2 95 0 2 2 43 75 9 1 0 0 5 95 8 1 5 5 41 5 76 1 0 80 78 66 65 64 63 52 50 42 41 26 24 21 19 10 9 0 86 1 86 10 8 20
CALL[ ]	/* CallFunction */";
};
width = 1186;
},
{
layerId = "01037D14-118B-4CC1-B98A-141C2A413BDA";
shapes = (
{
closed = 1;
nodes = (
(127.709,232,o),
(50,189.62,o),
(50,100,cs),
(50,18.436,o),
(114.751,-33,o),
(189,-33,cs),
(293,-33,o),
(366.667,33.667,o),
(412,163,cs),
(459.729,298.231,o),
(461,611.157,o),
(461,815,c),
(541.503,805.711,o),
(700.225,794.502,o),
(751,791,c),
(751,721.297,o),
(748,510.24,o),
(748,279,cs),
(748,167,o),
(752,-33,o),
(968,-33,cs),
(1067.556,-33,o),
(1152.621,25.946,o),
(1214,98,c),
(1152,188,l),
(1132,177.333,o),
(1111.667,170,o),
(1093,170,cs),
(1055.667,170,o),
(1028,196.333,o),
(1028,279,cs),
(1028,368.333,o),
(1028.333,457.667,o),
(1029,547,cs),
(1029.667,636.333,o),
(1030,725.667,o),
(1030,815,c),
(1098.039,846.403,o),
(1172.511,911.873,o),
(1209,964,c),
(1133,1066,l),
(1043.667,1022,o),
(978,1011,o),
(922,1011,cs),
(696.696,1011,o),
(577.961,1047,o),
(374,1047,cs),
(237.981,1047,o),
(123.439,960.314,o),
(52,873,c),
(120,768,l),
(188,800,o),
(261,814.667,o),
(317,820,c),
(317,716.979,o),
(316.21,587.099,o),
(308,466,cs),
(300.073,349.077,o),
(285.378,249.486,o),
(257,213,c),
(236.333,225.667,o),
(209.667,232,o),
(177,232,cs)
);
}
);
userData = {
assembly = "NPUSHB[ ]	/* 87 values pushed */
62 32 27 13 9 5 5 2 12 1 0 5 41 2 2 3 0 42 1 4 3 4 74 26 1 1 72 0 5 2 0 2 5 0 126 0 3 0 4 0 3 4 126 0 1 1 43 75 0 2 2 35 75 7 1 0 0 4 95 6 1 4 4 41 4 76 1 0 71 69 58 57 48 46 38 37 24 22 19 17 0 79 1 79 8 8 20
CALL[ ]	/* CallFunction */";
};
width = 1255;
}
);
note = pi;
unicode = 960;
}
{
glyphname = uni060C;
layers = (
{
layerId = m01;
shapes = (
{
closed = 1;
nodes = (
(376.667,0,o),
(431,64,o),
(431,132,cs),
(431,226.667,o),
(380,278,o),
(284,278,c),
(286.667,407.333,o),
(345.667,516,o),
(427,576,cs),
(428.333,577.333,o),
(429.667,578.333,o),
(431,579,c),
(441.667,590.333,o),
(441.667,600.333,o),
(431,609,cs),
(418.333,620.333,o),
(401.333,619.667,o),
(380,607,cs),
(275.606,542.757,o),
(213.708,443.3,o),
(181,337,cs),
(159.667,267.667,o),
(154,214.667,o),
(154,164,cs),
(154,69.333,o),
(206,0,o),
(302,0,cs)
);
}
);
userData = {
assembly = "NPUSHB[ ]	/* 23 values pushed */
0 1 1 0 95 2 1 0 0 19 0 76 1 0 19 18 0 23 1 23 3 7 20
CALL[ ]	/* CallFunction */";
};
width = 586;
},
{
layerId = "01037D14-118B-4CC1-B98A-141C2A413BDA";
shapes = (
{
closed = 1;
nodes = (
(397.667,1,o),
(452,56.667,o),
(452,158,cs),
(452,248,o),
(401.667,300.667,o),
(301,316,c),
(302.333,406.667,o),
(384.333,533,o),
(459,589,cs),
(467.667,595,o),
(474.333,601.333,o),
(479,608,cs),
(493,626.667,o),
(492.667,641,o),
(478,651,cs),
(460.667,663,o),
(438,661,o),
(410,645,cs),
(220.667,531.667,o),
(133,384.667,o),
(133,186,cs),
(133,68.667,o),
(187,1,o),
(295,1,cs)
);
}
);
userData = {
assembly = "NPUSHB[ ]	/* 20 values pushed */
15 1 0 72 1 1 0 0 20 0 76 1 0 0 19 1 19 2 7 20
CALL[ ]	/* CallFunction */";
};
width = 586;
}
);
note = uni060C;
unicode = 1548;
}
{
glyphname = uni060D;
layers = (
{
layerId = m01;
shapes = (
{
closed = 1;
nodes = (
(55,-168,l),
(157,-199,l),
(713,1426,l),
(611,1457,l),
(611,1457,l)
);
}
);
userData = {
assembly = "PUSHB[ ]	/* 4 values pushed */
3 1 1 48
CALL[ ]	/* CallFunction */";
};
width = 828;
},
{
layerId = "01037D14-118B-4CC1-B98A-141C2A413BDA";
shapes = (
{
closed = 1;
nodes = (
(55,-168,l),
(184,-209,l),
(740,1416,l),
(611,1457,l),
(611,1457,l)
);
}
);
userData = {
assembly = "PUSHB[ ]	/* 4 values pushed */
3 1 1 48
CALL[ ]	/* CallFunction */";
};
width = 828;
}
);
note = uni060D;
unicode = 1549;
}
{
glyphname = uni0615;
layers = (
{
anchors = (
{
name = _top;
pos = (767,2009);
}
);
layerId = m01;
shapes = (
{
closed = 1;
nodes = (
(1091,2230.107,o),
(1055.26,2196.521,o),
(995,2175,cs),
(939.146,2155.052,o),
(861.94,2150,o),
(790,2150,cs),
(674,2150,l),
(787.333,2315.333,o),
(882,2395,o),
(978,2395,cs),
(1044.667,2395,o),
(1091,2354.667,o),
(1091,2284,cs)
);
},
{
closed = 1;
nodes = (
(875.333,2512,o),
(750,2393.333,o),
(626,2156,c),
(626,2782,l),
(535,2729,l),
(566,2150,l),
(426,2150,ls),
(408,2150,o),
(399,2145.667,o),
(399,2137,cs),
(399,2130.333,o),
(406,2120.333,o),
(420,2107,cs),
(480,2050,l),
(739,2050,ls),
(874.6,2050,o),
(1003.149,2081.893,o),
(1087.5,2151,cs),
(1142.833,2196.333,o),
(1178,2263,o),
(1178,2343,cs),
(1178,2379.41,o),
(1170.487,2408.522,o),
(1155.5,2433.5,cs),
(1145.5,2450.167,o),
(1132.833,2465.167,o),
(1117.5,2476.5,cs),
(1084.378,2500.981,o),
(1050.116,2512,o),
(1002,2512,cs)
);
}
);
userData = {
assembly = "PUSHB[ ]	/* 2 values pushed */
6 100
WCVTP[ ]	/* WriteCVTInPixels */
NPUSHB[ ]	/* 53 values pushed */
40 1 1 0 1 74 39 38 2 4 72 5 1 4 0 0 1 4 0 103 3 1 1 2 2 1 87 3 1 1 1 2 93 0 2 1 2 77 14 14 14 41 14 41 37 35 31 29 50 34 6 7 22
CALL[ ]	/* CallFunction */
PUSHB[ ]	/* 2 values pushed */
6 0
WCVTP[ ]	/* WriteCVTInPixels */";
};
width = 0;
},
{
anchors = (
{
name = _top;
pos = (767,2009);
}
);
layerId = "01037D14-118B-4CC1-B98A-141C2A413BDA";
shapes = (
{
closed = 1;
nodes = (
(1091,2230.107,o),
(1055.26,2196.521,o),
(995,2175,cs),
(939.146,2155.052,o),
(861.94,2150,o),
(790,2150,cs),
(674,2150,l),
(787.333,2315.333,o),
(882,2395,o),
(978,2395,cs),
(1044.667,2395,o),
(1091,2354.667,o),
(1091,2284,cs)
);
},
{
closed = 1;
nodes = (
(875.333,2512,o),
(750,2393.333,o),
(626,2156,c),
(626,2782,l),
(535,2729,l),
(566,2150,l),
(426,2150,ls),
(408,2150,o),
(399,2145.667,o),
(399,2137,cs),
(399,2130.333,o),
(406,2120.333,o),
(420,2107,cs),
(480,2050,l),
(739,2050,ls),
(874.6,2050,o),
(1003.149,2081.893,o),
(1087.5,2151,cs),
(1142.833,2196.333,o),
(1178,2263,o),
(1178,2343,cs),
(1178,2379.41,o),
(1170.487,2408.522,o),
(1155.5,2433.5,cs),
(1145.5,2450.167,o),
(1132.833,2465.167,o),
(1117.5,2476.5,cs),
(1084.378,2500.981,o),
(1050.116,2512,o),
(1002,2512,cs)
);
}
);
userData = {
assembly = "PUSHB[ ]	/* 2 values pushed */
6 100
WCVTP[ ]	/* WriteCVTInPixels */
NPUSHB[ ]	/* 53 values pushed */
40 1 1 0 1 74 39 38 2 4 72 5 1 4 0 0 1 4 0 103 3 1 1 2 2 1 87 3 1 1 1 2 93 0 2 1 2 77 14 14 14 41 14 41 37 35 31 29 50 34 6 7 22
CALL[ ]	/* CallFunction */
PUSHB[ ]	/* 2 values pushed */
6 0
WCVTP[ ]	/* WriteCVTInPixels */";
};
width = 0;
}
);
note = uni0615;
unicode = 1557;
}
{
glyphname = uni061B;
layers = (
{
layerId = m01;
shapes = (
{
closed = 1;
nodes = (
(379.739,490,o),
(435,552.28,o),
(435,622,cs),
(435,716.667,o),
(384,768,o),
(288,768,c),
(290.667,897.333,o),
(349.667,1006,o),
(431,1066,cs),
(435,1069,l),
(445.667,1080.333,o),
(445.667,1090.333,o),
(435,1099,cs),
(422.333,1110.333,o),
(405.333,1109.667,o),
(384,1097,cs),
(279.606,1032.757,o),
(217.708,933.3,o),
(185,827,cs),
(163.667,757.667,o),
(158,704.667,o),
(158,654,cs),
(158,559.333,o),
(210,490,o),
(306,490,cs)
);
},
{
closed = 1;
nodes = (
(475.258,1,o),
(477.268,267,o),
(299,267,cs),
(224.333,267,o),
(164,207.667,o),
(164,133,cs),
(164,61,o),
(227,1,o),
(299,1,cs)
);
}
);
userData = {
assembly = "NPUSHB[ ]	/* 35 values pushed */
0 1 4 1 0 3 1 0 103 0 3 3 2 95 0 2 2 19 2 76 1 0 34 32 28 26 18 17 0 23 1 23 5 7 20
CALL[ ]	/* CallFunction */";
};
width = 595;
},
{
layerId = "01037D14-118B-4CC1-B98A-141C2A413BDA";
shapes = (
{
closed = 1;
nodes = (
(397.667,511,o),
(452,566.667,o),
(452,668,cs),
(452,758,o),
(401.667,810.667,o),
(301,826,c),
(302.333,916.667,o),
(384.333,1043,o),
(459,1099,cs),
(467.667,1105,o),
(474.333,1111.333,o),
(479,1118,cs),
(493,1136.667,o),
(492.667,1151,o),
(478,1161,cs),
(460.667,1173,o),
(438,1171,o),
(410,1155,cs),
(220.667,1041.667,o),
(133,894.667,o),
(133,696,cs),
(133,578.667,o),
(187,511,o),
(295,511,cs)
);
},
{
closed = 1;
nodes = (
(446,237,o),
(377,303,o),
(293,303,cs),
(207.667,303,o),
(141,235.333,o),
(141,150,cs),
(141,70,o),
(211.667,2,o),
(293,2,cs),
(377,2,o),
(446,70.333,o),
(446,153,cs)
);
}
);
userData = {
assembly = "NPUSHB[ ]	/* 34 values pushed */
15 1 0 72 3 1 0 2 0 131 0 2 2 1 95 0 1 1 20 1 76 1 0 30 28 24 22 0 19 1 19 4 7 20
CALL[ ]	/* CallFunction */";
};
width = 586;
}
);
note = uni061B;
unicode = 1563;
}
{
glyphname = uni061F;
layers = (
{
layerId = m01;
shapes = (
{
closed = 1;
nodes = (
(509.667,1,o),
(570,61.667,o),
(570,135,cs),
(570,208.333,o),
(509.667,267,o),
(435,267,cs),
(360.333,267,o),
(300,207.667,o),
(300,133,cs),
(300,61,o),
(363,1,o),
(435,1,cs)
);
},
{
closed = 1;
nodes = (
(559,1345,o),
(632,1251.667,o),
(632,1121,cs),
(632,1084.333,o),
(618,1041.667,o),
(590,993,c),
(641,963,l),
(701.667,1023.667,o),
(732,1103,o),
(732,1201,cs),
(732,1385,o),
(618.667,1514,o),
(428,1514,cs),
(228,1514,o),
(90,1375.667,o),
(90,1173,cs),
(90,1091.667,o),
(117,1017.667,o),
(157,967,cs),
(197,916.333,o),
(248,871,o),
(296,831,cs),
(344,791,o),
(385.833,754.667,o),
(410.5,708,cs),
(422.833,684.667,o),
(429,660,o),
(429,634,cs),
(429,606,o),
(416.667,588.333,o),
(392,581,c),
(381.244,575.622,o),
(384.594,581.275,o),
(375.5,574,cs),
(372.167,571.333,o),
(373.333,566,o),
(376,558,cs),
(390,500,ls),
(396.667,478.667,o),
(407,480,o),
(423,488,c),
(476.333,502.667,o),
(521,568.667,o),
(521,638,cs),
(521,732.667,o),
(478.333,820.167,o),
(425,879.5,cs),
(398.333,909.167,o),
(371.667,937.667,o),
(345,965,cs),
(291.667,1019.667,o),
(249,1080.667,o),
(249,1142,cs),
(249,1264.667,o),
(332.333,1345,o),
(447,1345,cs)
);
}
);
userData = {
assembly = "NPUSHB[ ]	/* 43 values pushed */
51 50 26 3 1 2 1 74 4 1 2 2 3 95 0 3 3 18 75 0 1 1 0 95 0 0 0 19 0 76 11 10 46 44 10 55 11 55 20 34 5 7 22
CALL[ ]	/* CallFunction */";
};
width = 822;
},
{
layerId = "01037D14-118B-4CC1-B98A-141C2A413BDA";
shapes = (
{
closed = 1;
nodes = (
(517,2,o),
(586,69,o),
(586,153,cs),
(586,237,o),
(517,301.667,o),
(433,303,cs),
(347.667,301.667,o),
(281,235.333,o),
(281,150,cs),
(281,70,o),
(351.667,2,o),
(433,2,cs)
);
},
{
closed = 1;
nodes = (
(561,1294,o),
(621,1233,o),
(621,1141,cs),
(621,1100.333,o),
(603.667,1049,o),
(569,987,c),
(642,947,l),
(694,1013.667,o),
(736,1133.333,o),
(736,1216,cs),
(736,1412,o),
(617.667,1532,o),
(427,1532,cs),
(217.667,1532,o),
(64,1384.333,o),
(64,1171,cs),
(64,1081.667,o),
(120.333,993.333,o),
(191,928,cs),
(226.333,895.333,o),
(261.5,864,o),
(296.5,834,cs),
(366.5,774,o),
(423,708.333,o),
(423,651,cs),
(423,628.333,o),
(408,613,o),
(378,605,cs),
(356,598.333,o),
(348,586.667,o),
(354,570,cs),
(372,524,ls),
(379.333,506,o),
(392,500,o),
(410,506,cs),
(497.333,539.333,o),
(541,594.333,o),
(541,671,cs),
(541,761.667,o),
(500.5,838.833,o),
(450.5,891.5,cs),
(425.5,917.833,o),
(400.333,943.167,o),
(375,967.5,cs),
(324.333,1016.167,o),
(284,1076,o),
(284,1140,cs),
(284,1226.667,o),
(366.333,1294,o),
(457,1294,cs)
);
}
);
userData = {
assembly = "NPUSHB[ ]	/* 40 values pushed */
45 44 2 1 2 1 74 0 3 4 1 2 1 3 2 103 0 1 1 0 95 0 0 0 20 0 76 12 11 39 37 11 49 12 49 36 34 5 7 22
CALL[ ]	/* CallFunction */";
};
width = 825;
}
);
note = uni061F;
unicode = 1567;
}
{
glyphname = uni0621;
layers = (
{
anchors = (
{
name = bottom;
pos = (418,-48);
},
{
name = top;
pos = (409,1057);
}
);
layerId = m01;
shapes = (
{
closed = 1;
nodes = (
(638,697.333,o),
(554,757,o),
(432,757,cs),
(286.667,757,o),
(146,597.333,o),
(146,432,cs),
(146,371.333,o),
(178.667,307.667,o),
(244,241,c),
(186.455,217.023,o),
(153.019,203.006,o),
(150,202,c),
(110,15,l),
(272.667,110.333,o),
(441.667,163,o),
(617,173,c),
(698,304,ls),
(710.667,323.333,o),
(717,338.667,o),
(717,350,cs),
(717,360,o),
(710.667,365,o),
(698,365,cs),
(670,365,o),
(576,349.667,o),
(416,319,c),
(324,319,o),
(242,369.667,o),
(242,443,cs),
(242,503,o),
(322,589,o),
(450,589,cs),
(504.667,589,o),
(571.333,570,o),
(650,532,c),
(684,578,l),
(684,578,l)
);
}
);
userData = {
assembly = "NPUSHB[ ]	/* 58 values pushed */
29 1 2 0 12 1 1 2 22 1 3 1 3 74 17 1 3 71 0 2 0 1 0 2 1 126 0 4 0 0 2 4 0 103 0 1 3 3 1 87 0 1 1 3 95 0 3 1 3 79 42 21 17 20 33 5 7 25
CALL[ ]	/* CallFunction */";
};
width = 827;
},
{
anchors = (
{
name = bottom;
pos = (419,-48);
},
{
name = top;
pos = (410,1057);
}
);
layerId = "01037D14-118B-4CC1-B98A-141C2A413BDA";
shapes = (
{
closed = 1;
nodes = (
(734.333,343.667,o),
(744,366.667,o),
(744,382,cs),
(744,407.173,o),
(724.276,410.3,o),
(689,402,c),
(687.667,401.333,o),
(642.667,393.667,o),
(554,379,cs),
(522.188,373.546,o),
(456.035,359.938,o),
(434,357,cs),
(424,355.667,o),
(411,355,o),
(395,355,cs),
(327,355,o),
(261,396.333,o),
(261,463,cs),
(261,513.667,o),
(306.833,557.333,o),
(359.5,576,cs),
(385.833,585.333,o),
(411.667,590,o),
(437,590,cs),
(498.333,590,o),
(571.667,569,o),
(657,527,c),
(706,595,l),
(652.667,733.667,o),
(566.667,806,o),
(432,806,cs),
(358.667,806,o),
(281.333,763.667,o),
(224,701,cs),
(166.667,638.333,o),
(127,545,o),
(127,453,cs),
(127,393,o),
(155,331,o),
(211,267,c),
(172.333,251,o),
(146.333,240,o),
(133,234,c),
(82,-4,l),
(266,104,o),
(448,163.333,o),
(628,174,c),
(715,313,l),
(715,313,l)
);
}
);
userData = {
assembly = "MPPEM[ ]	/* MeasurePixelPerEm */
PUSHB[ ]	/* 1 value pushed */
10
LT[ ]	/* LessThan */
IF[ ]	/* If */
NPUSHB[ ]	/* 18 values pushed */
16 1 2 1 17 1 3 2 6 1 0 3 3 74 3 1 0 71
ELSE[ ]	/* Else */
NPUSHB[ ]	/* 18 values pushed */
16 1 2 1 17 1 4 2 6 1 0 3 3 74 3 1 0 71
EIF[ ]	/* EndIf */
MPPEM[ ]	/* MeasurePixelPerEm */
PUSHB[ ]	/* 1 value pushed */
10
LT[ ]	/* LessThan */
IF[ ]	/* If */
NPUSHB[ ]	/* 26 values pushed */
0 1 0 2 3 1 2 103 4 1 3 0 0 3 87 4 1 3 3 0 95 0 0 3 0 79
ELSE[ ]	/* Else */
NPUSHB[ ]	/* 32 values pushed */
0 4 2 3 2 4 3 126 0 1 0 2 4 1 2 103 0 3 0 0 3 87 0 3 3 0 95 0 0 3 0 79
EIF[ ]	/* EndIf */
PUSHB[ ]	/* 8 values pushed */
22 37 36 42 17 5 7 25
CALL[ ]	/* CallFunction */";
};
width = 827;
}
);
note = uni0621;
unicode = 1569;
}
{
glyphname = uni0627;
layers = (
{
anchors = (
{
name = bottom;
pos = (231,-230);
},
{
name = top;
pos = (206,1624);
}
);
layerId = m01;
shapes = (
{
closed = 1;
nodes = (
(282.333,1532.667,o),
(269.667,1540,o),
(243,1512,cs),
(128,1389,l),
(176,1006.333,o),
(202,283.333,o),
(202,-6,c),
(270,28.667,o),
(304,93,o),
(304,187,cs),
(304,841.667,o),
(297.667,1274.667,o),
(285,1486,cs)
);
}
);
userData = {
assembly = "PUSHB[ ]	/* 4 values pushed */
9 4 1 48
CALL[ ]	/* CallFunction */";
};
width = 464;
},
{
anchors = (
{
name = bottom;
pos = (264,-212);
},
{
name = top;
pos = (219,1656);
}
);
layerId = "01037D14-118B-4CC1-B98A-141C2A413BDA";
shapes = (
{
closed = 1;
nodes = (
(307.667,1575,o),
(288.333,1559.333,o),
(257,1528,cs),
(98,1358,l),
(132,1122.667,o),
(154.333,668.667,o),
(165,-4,c),
(243.667,14.667,o),
(307,89.167,o),
(335,172.5,cs),
(349,214.167,o),
(356,256.333,o),
(356,299,cs),
(356,480.246,o),
(356.396,628.921,o),
(353.5,863.5,cs),
(352.833,917.5,o),
(350.667,1048,o),
(348,1136,cs),
(345.401,1221.756,o),
(342.719,1340.455,o),
(337,1492,cs),
(334.333,1547.333,o),
(327,1575,o),
(315,1575,cs)
);
}
);
userData = {
assembly = "NPUSHB[ ]	/* 21 values pushed */
17 15 2 0 71 1 1 0 0 18 0 76 1 0 0 19 1 19 2 7 20
CALL[ ]	/* CallFunction */";
};
width = 464;
}
);
note = uni0627;
unicode = 1575;
}
{
glyphname = uni062D;
layers = (
{
anchors = (
{
name = bottom;
pos = (639,-826);
},
{
name = top;
pos = (597,1120);
}
);
layerId = m01;
shapes = (
{
closed = 1;
nodes = (
(202,30.667,o),
(316.833,190.667,o),
(493.5,292,cs),
(670.167,393.333,o),
(896.333,456.667,o),
(1135,470,c),
(1207,640,ls),
(1207.667,641.333,o),
(1208,643,o),
(1208,645,cs),
(1208,649.667,o),
(1203.333,652,o),
(1194,652,cs),
(1111.333,652.667,o),
(1036,663.333,o),
(968,684,cs),
(631.333,781.333,o),
(438,831,o),
(388,833,cs),
(269.333,833,o),
(173.333,743,o),
(100,563,c),
(159,527,l),
(223,607,o),
(292.667,647,o),
(368,647,cs),
(463.924,647,o),
(648.794,591.888,o),
(776,567,c),
(557.503,529.897,o),
(366.827,421.117,o),
(242.5,258,cs),
(159.167,148.667,o),
(108,3,o),
(108,-157,cs),
(108,-476.333,o),
(322.667,-636,o),
(752,-636,cs),
(980.667,-636,o),
(1125.333,-572.667,o),
(1186,-446,cs),
(1190.667,-434,o),
(1193,-427,o),
(1193,-425,cs),
(1193,-424.333,o),
(1192.667,-423.667,o),
(1192,-423,c),
(1192,-422,l),
(1017.333,-442.667,o),
(874,-453,o),
(762,-453,cs),
(647.333,-453,o),
(550,-445,o),
(450,-417,cs),
(400,-403,o),
(357.167,-385.167,o),
(321.5,-363.5,cs),
(250.167,-320.167,o),
(202,-245.333,o),
(202,-152,cs)
);
}
);
userData = {
assembly = "NPUSHB[ ]	/* 54 values pushed */
38 30 29 23 4 5 2 8 1 0 5 2 74 0 3 0 2 5 3 2 103 0 4 0 5 0 4 5 103 0 0 1 1 0 87 0 0 0 1 95 0 1 0 1 79 21 18 35 42 39 37 6 7 26
CALL[ ]	/* CallFunction */";
};
width = 1318;
},
{
anchors = (
{
name = bottom;
pos = (644,-826);
},
{
name = top;
pos = (595,1218);
}
);
layerId = "01037D14-118B-4CC1-B98A-141C2A413BDA";
shapes = (
{
closed = 1;
nodes = (
(238.333,605.667,o),
(306.333,648,o),
(373,648,cs),
(479.266,648,o),
(561.126,618.375,o),
(678,595,c),
(522,553.667,o),
(380.333,465.333,o),
(271,344,cs),
(161.667,222.667,o),
(94,50.333,o),
(94,-135,cs),
(94,-464.333,o),
(322,-637,o),
(718,-637,cs),
(954.667,-637,o),
(1115,-549,o),
(1199,-373,cs),
(1227,-315.667,o),
(1222,-311,o),
(1138,-327,cs),
(1015.333,-350.333,o),
(893.333,-362,o),
(772,-362,cs),
(633.333,-362,o),
(512.333,-344,o),
(407,-304,cs),
(301.667,-264,o),
(236,-189.667,o),
(236,-91,cs),
(236,45,o),
(313,164.5,o),
(429,246.5,cs),
(487,287.5,o),
(555.667,323.833,o),
(635,355.5,cs),
(793.667,418.833,o),
(959,453.667,o),
(1139,471,c),
(1234,696,l),
(1241.073,717.219,o),
(1243.002,712.013,o),
(1246,730,cs),
(1247.901,741.408,o),
(1235.671,746,o),
(1220,746,cs),
(1200,746,ls),
(1121.333,746,o),
(1047.667,756.333,o),
(979,777,cs),
(634.333,877,o),
(437.667,927,o),
(389,927,cs),
(280.333,927,o),
(177.667,809.667,o),
(81,575,c),
(169,521,l),
(169,521,l)
);
}
);
userData = {
assembly = "NPUSHB[ ]	/* 50 values pushed */
47 41 2 2 4 1 74 0 1 0 4 0 1 4 126 0 0 0 4 2 0 4 103 0 2 3 3 2 87 0 2 2 3 95 0 3 2 3 79 46 44 34 32 27 25 34 33 5 7 22
CALL[ ]	/* CallFunction */";
};
width = 1315;
}
);
note = uni062D;
unicode = 1581;
}
{
glyphname = uni062F;
layers = (
{
anchors = (
{
name = bottom;
pos = (484,-216);
},
{
name = top;
pos = (475,1230);
}
);
layerId = m01;
shapes = (
{
closed = 1;
nodes = (
(184,350.667,o),
(185.333,369,o),
(188,393,c),
(132,403,l),
(117.333,352.333,o),
(110,304,o),
(110,258,cs),
(110,86,o),
(211,0,o),
(413,0,cs),
(614.333,0,o),
(770.167,43.833,o),
(865.5,152.5,cs),
(913.167,206.833,o),
(937,273.667,o),
(937,353,cs),
(937,559.667,o),
(810.333,745.333,o),
(525,968,cs),
(514.333,976.667,o),
(505.333,981,o),
(498,981,cs),
(491.333,981,o),
(486.667,975,o),
(484,963,cs),
(442,778,l),
(708,582.667,o),
(841,433.333,o),
(841,330,cs),
(841,288.667,o),
(800.667,255.333,o),
(746,238,cs),
(718.667,229.333,o),
(685.833,222.167,o),
(647.5,216.5,cs),
(570.833,205.167,o),
(509.667,203,o),
(435,203,cs),
(267.667,203,o),
(184,248,o),
(184,338,cs)
);
}
);
userData = {
assembly = "NPUSHB[ ]	/* 30 values pushed */
27 26 10 3 0 1 1 74 0 1 0 1 131 0 0 0 2 96 0 2 2 19 2 76 39 40 49 3 7 23
CALL[ ]	/* CallFunction */";
};
width = 1047;
},
{
anchors = (
{
name = bottom;
pos = (484,-216);
},
{
name = top;
pos = (475,1250);
}
);
layerId = "01037D14-118B-4CC1-B98A-141C2A413BDA";
shapes = (
{
closed = 1;
nodes = (
(969,691.333,o),
(820.667,914.333,o),
(524,1105,cs),
(518.667,1109,o),
(514,1109,o),
(510,1105,cs),
(506,1101,o),
(502.667,1092.667,o),
(500,1080,cs),
(436,789,l),
(514.667,742.333,o),
(642.5,647.833,o),
(744.5,544.5,cs),
(795.5,492.833,o),
(821,454,o),
(821,428,cs),
(821,394.981,o),
(772.187,365.245,o),
(678,352,cs),
(592.667,340,o),
(516.333,335,o),
(439,335,cs),
(286.333,335,o),
(210,376.333,o),
(210,459,cs),
(210,473,o),
(211.333,494,o),
(214,522,c),
(122,541,l),
(96.667,445,o),
(84,373.333,o),
(84,326,cs),
(84,108.667,o),
(187.667,2,o),
(413,2,cs),
(783.667,2,o),
(969,146.667,o),
(969,436,cs)
);
}
);
userData = {
assembly = "NPUSHB[ ]	/* 21 values pushed */
21 7 2 1 72 0 1 1 0 95 0 0 0 20 0 76 56 33 2 7 22
CALL[ ]	/* CallFunction */";
};
width = 1047;
}
);
note = uni062F;
unicode = 1583;
}
{
glyphname = uni0631;
layers = (
{
anchors = (
{
name = bottom;
pos = (341,-713);
},
{
name = top;
pos = (488,933);
}
);
layerId = m01;
shapes = (
{
closed = 1;
nodes = (
(329,-544,o),
(445.5,-456.333,o),
(535.5,-335,cs),
(625.5,-213.667,o),
(694,-42,o),
(694,106,cs),
(694,264,o),
(643,412,o),
(541,550,cs),
(523.667,573.333,o),
(510,574,o),
(500,552,cs),
(418,357,l),
(534.667,237.667,o),
(593,137,o),
(593,55,cs),
(593,-25,o),
(535.167,-128,o),
(438.5,-224,cs),
(341.833,-320,o),
(180.667,-411,o),
(2,-455,cs),
(-10,-458.333,o),
(-13.333,-464.667,o),
(-8,-474,cs),
(-0.667,-487.333,o),
(21.667,-499.333,o),
(59,-510,cs),
(135,-532.667,o),
(195.667,-544,o),
(241,-544,cs)
);
}
);
userData = {
assembly = "NPUSHB[ ]	/* 18 values pushed */
13 1 0 72 1 1 0 0 116 1 0 0 22 1 22 2 7 20
CALL[ ]	/* CallFunction */";
};
width = 794;
},
{
anchors = (
{
name = bottom;
pos = (341,-713);
},
{
name = top;
pos = (488,933);
}
);
layerId = "01037D14-118B-4CC1-B98A-141C2A413BDA";
shapes = (
{
closed = 1;
nodes = (
(721,122,o),
(718.333,159.667,o),
(713,197,cs),
(690.333,353,o),
(635.667,484.667,o),
(549,592,cs),
(522.292,625.83,o),
(509.495,632.114,o),
(493,595,cs),
(385,351,l),
(513.667,215,o),
(578,115.333,o),
(578,52,cs),
(578,-7.881,o),
(489.14,-129.084,o),
(342,-251,cs),
(248.667,-328.333,o),
(114.667,-402.667,o),
(-16,-440,cs),
(-48.667,-449.333,o),
(-65,-459.667,o),
(-65,-471,cs),
(-65,-509.529,o),
(150.124,-552,o),
(299,-552,cs),
(381.667,-552,o),
(432,-539,o),
(464,-515,cs),
(480,-503,o),
(498.667,-484.667,o),
(520,-460,cs),
(554.667,-420,o),
(586.333,-372.667,o),
(615,-318,cs),
(685.667,-185.333,o),
(721,-51.333,o),
(721,84,cs)
);
}
);
userData = {
assembly = "NPUSHB[ ]	/* 13 values pushed */
22 12 2 0 72 0 0 0 116 39 1 7 21
CALL[ ]	/* CallFunction */";
};
width = 794;
}
);
note = uni0631;
unicode = 1585;
}
{
glyphname = uni0633;
layers = (
{
anchors = (
{
name = bottom;
pos = (646,-790);
},
{
name = top;
pos = (1683,1043);
}
);
layerId = m01;
shapes = (
{
closed = 1;
nodes = (
(2073,2,o),
(2223,164.333,o),
(2223,327,cs),
(2223,456.333,o),
(2195.333,573.667,o),
(2140,679,cs),
(2131.333,695.667,o),
(2121,693.333,o),
(2109,672,cs),
(2027,526,l),
(2078.333,412,o),
(2104,334.333,o),
(2104,293,cs),
(2104,232.333,o),
(2045.667,202,o),
(1929,202,cs),
(1781,202,o),
(1713.333,263,o),
(1728,387,cs),
(1738,466,l),
(1654,478,l),
(1636,374,ls),
(1616.667,258.667,o),
(1545.667,201,o),
(1423,201,cs),
(1308.333,201,o),
(1237.333,223.667,o),
(1210,269,cs),
(1196,292.333,o),
(1171.667,337.667,o),
(1137,405,cs),
(1124.333,429.667,o),
(1110,429.333,o),
(1094,404,cs),
(1010,270,l),
(1119.333,69.333,o),
(1176.333,-83,o),
(1181,-187,c),
(1089,-317.667,o),
(877.667,-401,o),
(659,-401,cs),
(359.667,-401,o),
(210,-298.667,o),
(210,-94,cs),
(210,-29.333,o),
(227,61.333,o),
(261,178,c),
(204,202,l),
(141.333,60.667,o),
(110,-67,o),
(110,-181,cs),
(110,-459.667,o),
(291,-599,o),
(653,-599,cs),
(885,-599,o),
(1075,-517.667,o),
(1187,-351,cs),
(1243,-267.667,o),
(1271,-169,o),
(1271,-55,cs),
(1271,-13,o),
(1268.333,25.667,o),
(1263,61,c),
(1304.333,19.667,o),
(1357,-1,o),
(1421,-1,cs),
(1503.667,-1,o),
(1583.333,51,o),
(1660,155,c),
(1716,53,o),
(1803,2,o),
(1921,2,cs)
);
}
);
userData = {
assembly = "NPUSHB[ ]	/* 60 values pushed */
17 6 2 3 0 4 24 1 3 0 2 74 45 37 36 26 16 5 4 72 0 3 0 2 3 2 99 5 1 4 4 0 95 1 6 2 0 0 19 0 76 1 0 42 40 34 32 22 20 13 11 5 3 0 52 1 52 7 7 20
CALL[ ]	/* CallFunction */";
};
width = 2333;
},
{
anchors = (
{
name = bottom;
pos = (636,-790);
},
{
name = top;
pos = (1686,1126);
}
);
layerId = "01037D14-118B-4CC1-B98A-141C2A413BDA";
shapes = (
{
closed = 1;
nodes = (
(2046.333,0,o),
(2158.333,101.167,o),
(2213,236.5,cs),
(2240.333,304.167,o),
(2254,374.333,o),
(2254,447,cs),
(2254,589,o),
(2221.333,713.667,o),
(2156,821,cs),
(2131.315,862.142,o),
(2121.626,866.346,o),
(2102,832,cs),
(1970,604,l),
(2045.333,494,o),
(2083,429,o),
(2083,409,cs),
(2083,358.333,o),
(2033.667,333,o),
(1935,333,cs),
(1797.667,333,o),
(1738.667,388,o),
(1752,500,cs),
(1763,587,l),
(1642,605,l),
(1623,493,ls),
(1605.667,386.333,o),
(1541.333,333,o),
(1430,333,cs),
(1300.667,333,o),
(1259.333,358,o),
(1206,454,cs),
(1179.333,503.333,o),
(1161.333,535.333,o),
(1152,550,cs),
(1129.522,587.464,o),
(1120.759,578.701,o),
(1090,530,cs),
(967,324,l),
(1038.333,208.667,o),
(1104.333,66.333,o),
(1165,-103,c),
(1067.667,-223,o),
(874,-289,o),
(642,-289,cs),
(394,-289,o),
(235,-204.333,o),
(235,-19,cs),
(235,51,o),
(253.333,131.667,o),
(290,223,c),
(200,261,l),
(128.667,97,o),
(93,-46.667,o),
(93,-170,cs),
(93,-456.667,o),
(279,-600,o),
(651,-600,cs),
(841.667,-600,o),
(997.667,-545.167,o),
(1111,-440.5,cs),
(1224.333,-335.833,o),
(1289.333,-169.333,o),
(1292,40,c),
(1335.333,13.333,o),
(1379.667,0,o),
(1425,0,cs),
(1497.667,0,o),
(1576,51,o),
(1660,153,c),
(1729.333,51,o),
(1815,0,o),
(1917,0,cs)
);
}
);
userData = {
assembly = "NPUSHB[ ]	/* 60 values pushed */
26 16 15 6 2 5 0 4 24 1 3 0 2 74 49 41 40 3 4 72 0 3 0 2 3 2 99 5 1 4 4 0 95 1 6 2 0 0 20 0 76 1 0 46 44 38 36 22 20 12 10 5 3 0 60 1 60 7 7 20
CALL[ ]	/* CallFunction */";
};
width = 2333;
}
);
note = uni0633;
unicode = 1587;
}
{
glyphname = uni0635;
layers = (
{
anchors = (
{
name = bottom;
pos = (646,-790);
},
{
name = top;
pos = (2047,1235);
}
);
layerId = m01;
shapes = (
{
closed = 1;
nodes = (
(1305,205,o),
(1234,227.667,o),
(1210,269,cs),
(1196,292.333,o),
(1171.667,337.667,o),
(1137,405,cs),
(1124.333,429.667,o),
(1110,429.333,o),
(1094,404,cs),
(1010,270,l),
(1119.333,69.333,o),
(1176.333,-83,o),
(1181,-187,c),
(1089,-317.667,o),
(877.667,-401,o),
(659,-401,cs),
(359.667,-401,o),
(210,-298.667,o),
(210,-94,cs),
(210,-29.333,o),
(227,61.333,o),
(261,178,c),
(204,202,l),
(141.333,60.667,o),
(110,-67,o),
(110,-181,cs),
(110,-459.667,o),
(291,-599,o),
(653,-599,cs),
(885,-599,o),
(1075,-517.667,o),
(1187,-351,cs),
(1243,-267.667,o),
(1271,-169,o),
(1271,-55,cs),
(1271,-13,o),
(1268.333,25.667,o),
(1263,61,c),
(1313.667,20.333,o),
(1399.333,0,o),
(1520,0,cs),
(1618,0,ls),
(1828.04,0,o),
(2066.466,22.639,o),
(2243.5,110.5,cs),
(2378.368,177.434,o),
(2460,283.94,o),
(2460,428,cs),
(2460,608,o),
(2338,749,o),
(2130,749,cs),
(2022,749,o),
(1892.667,685.333,o),
(1770,580,cs),
(1647.333,474.667,o),
(1533.667,349,o),
(1423,201,c)
);
},
{
closed = 1;
nodes = (
(1607.667,281,o),
(1640.333,316,o),
(1723,388,cs),
(1764.333,424,o),
(1801.833,452.167,o),
(1835.5,472.5,cs),
(1902.833,513.167,o),
(1997.333,550,o),
(2080,550,cs),
(2228,550,o),
(2340,463.667,o),
(2340,353,cs),
(2340,297,o),
(2282,257.667,o),
(2166,235,cs),
(2050,212.333,o),
(1869.667,201,o),
(1625,201,cs),
(1533,201,l),
(1533,201,l)
);
}
);
userData = {
assembly = "NPUSHB[ ]	/* 61 values pushed */
39 1 4 6 30 29 19 3 1 4 37 1 3 1 3 74 0 0 0 6 4 0 6 103 0 3 0 2 3 2 99 5 7 2 4 4 1 95 0 1 1 19 1 76 0 0 54 52 48 46 0 45 0 45 39 38 72 36 8 7 24
CALL[ ]	/* CallFunction */";
};
width = 2570;
},
{
anchors = (
{
name = bottom;
pos = (636,-790);
},
{
name = top;
pos = (2050,1278);
}
);
layerId = "01037D14-118B-4CC1-B98A-141C2A413BDA";
shapes = (
{
closed = 1;
nodes = (
(1179.333,503.333,o),
(1161.333,535.333,o),
(1152,550,cs),
(1144,564.667,o),
(1136.833,572,o),
(1129.5,572,cs),
(1117.187,572,o),
(1111.345,565.242,o),
(1101,548,cs),
(1099,544.667,o),
(1095.333,538.667,o),
(1090,530,cs),
(967,324,l),
(1038.333,208.667,o),
(1104.333,66.333,o),
(1165,-103,c),
(1067.667,-223,o),
(874,-289,o),
(642,-289,cs),
(480.667,-289,o),
(362.167,-257.5,o),
(289.5,-175.5,cs),
(253.167,-134.5,o),
(235,-82.333,o),
(235,-19,cs),
(235,51,o),
(253.333,131.667,o),
(290,223,c),
(200,261,l),
(128.667,97,o),
(93,-46.667,o),
(93,-170,cs),
(93,-456.667,o),
(279,-600,o),
(651,-600,cs),
(841.667,-600,o),
(997.667,-545.167,o),
(1111,-440.5,cs),
(1224.333,-335.833,o),
(1289.333,-169.333,o),
(1292,40,c),
(1347.333,13.333,o),
(1424.667,0,o),
(1524,0,cs),
(1653,0,ls),
(1851.667,0,o),
(2017.667,24.167,o),
(2155,79.5,cs),
(2223.667,107.167,o),
(2281.667,141.667,o),
(2329,183,cs),
(2423.667,265.667,o),
(2478,385,o),
(2478,533,cs),
(2478,751.667,o),
(2347,893,o),
(2139,893,cs),
(1910.333,893,o),
(1670.667,708.333,o),
(1420,339,c),
(1298.667,340.333,o),
(1254,367.333,o),
(1206,454,cs)
);
},
{
closed = 1;
nodes = (
(2323,369.333,o),
(2167.333,335,o),
(1856,335,cs),
(1576,335,l),
(1656,400.333,o),
(1674.333,416.167,o),
(1757,471.5,cs),
(1798.333,499.167,o),
(1834.5,519.833,o),
(1865.5,533.5,cs),
(1927.5,560.833,o),
(2020.667,588,o),
(2106,588,cs),
(2223.333,588,o),
(2323,530,o),
(2323,438,cs)
);
}
);
userData = {
assembly = "NPUSHB[ ]	/* 52 values pushed */
38 27 26 17 4 2 0 36 1 4 2 2 74 0 1 0 5 0 1 5 103 0 4 0 3 4 3 99 6 1 0 0 2 95 0 2 2 20 2 76 59 57 52 50 41 37 55 33 18 7 7 25
CALL[ ]	/* CallFunction */";
};
width = 2570;
}
);
note = uni0635;
unicode = 1589;
}
{
glyphname = uni0637;
layers = (
{
anchors = (
{
name = bottom;
pos = (745,-221);
},
{
name = top;
pos = (549,1634);
}
);
layerId = m01;
shapes = (
{
closed = 1;
nodes = (
(636,1539.528,o),
(622.244,1545.327,o),
(591,1512,cs),
(478,1390,l),
(484,1364,o),
(491.167,1306.833,o),
(499.5,1218.5,cs),
(516.167,1041.833,o),
(536.667,671.333,o),
(542,306,c),
(458,201,l),
(125,199,ls),
(97,199,o),
(83,178.667,o),
(103,160,cs),
(176,93,ls),
(214.667,57,o),
(234.5,39.667,o),
(296.5,17,cs),
(327.5,5.667,o),
(360.333,0,o),
(395,0,cs),
(654,0,ls),
(873.066,0,o),
(1113.801,22.173,o),
(1286.5,110.5,cs),
(1421.316,179.452,o),
(1495,286.826,o),
(1495,428,cs),
(1495,608,o),
(1374,749,o),
(1166,749,cs),
(1016.667,749,o),
(845.667,637.667,o),
(653,415,c),
(636,1492,l),
(636,1492,l)
);
},
{
closed = 1;
nodes = (
(642.667,281,o),
(675.167,316,o),
(758.5,388,cs),
(800.167,424,o),
(837.833,452.167,o),
(871.5,472.5,cs),
(938.833,513.167,o),
(1033.333,550,o),
(1116,550,cs),
(1264,550,o),
(1375,463.667,o),
(1375,353,cs),
(1375,297,o),
(1317,257.667,o),
(1201,235,cs),
(1085,212.333,o),
(905,201,o),
(661,201,cs),
(568,201,l),
(568,201,l)
);
}
);
userData = {
assembly = "NPUSHB[ ]	/* 39 values pushed */
25 1 2 2 4 1 74 29 1 0 72 0 0 0 4 2 0 4 103 3 1 2 2 1 93 0 1 1 19 1 76 36 42 38 72 34 5 7 25
CALL[ ]	/* CallFunction */";
};
width = 1605;
},
{
anchors = (
{
name = bottom;
pos = (735,-221);
},
{
name = top;
pos = (568,1634);
}
);
layerId = "01037D14-118B-4CC1-B98A-141C2A413BDA";
shapes = (
{
closed = 1;
nodes = (
(477.667,1184,o),
(503,870.333,o),
(513,417,c),
(495,395,o),
(473.333,367.667,o),
(448,335,c),
(125,333,ls),
(82.333,333,o),
(61,324.333,o),
(61,307,cs),
(61,290.333,o),
(82.333,264.667,o),
(125,230,cs),
(204.333,165.333,o),
(283.333,106,o),
(362,52,cs),
(412.667,17.333,o),
(473,0,o),
(543,0,cs),
(684,0,ls),
(926.77,1.958,o),
(1135.102,39.957,o),
(1280,127.5,cs),
(1424.92,215.056,o),
(1509,342.206,o),
(1509,533,cs),
(1509,751.667,o),
(1378,893,o),
(1170,893,cs),
(1024,893,o),
(865.333,799,o),
(694,611,c),
(678,1504,ls),
(678,1551.98,o),
(673.823,1589.314,o),
(651,1576,cs),
(643,1571.333,o),
(636,1566,o),
(630,1560,cs),
(624,1554,o),
(613.667,1543.667,o),
(599,1529,cs),
(437,1358,l),
(437,1358,l)
);
},
{
closed = 1;
nodes = (
(1354,369.333,o),
(1198.333,335,o),
(887,335,cs),
(607,335,l),
(687,400.333,o),
(705.333,416.167,o),
(788,471.5,cs),
(829.333,499.167,o),
(865.5,519.833,o),
(896.5,533.5,cs),
(958.5,560.833,o),
(1051.667,588,o),
(1137,588,cs),
(1254.333,588,o),
(1354,530,o),
(1354,438,cs)
);
}
);
userData = {
assembly = "NPUSHB[ ]	/* 38 values pushed */
8 1 3 0 32 1 2 3 2 74 0 0 0 3 2 0 3 103 4 1 2 2 1 95 0 1 1 20 1 76 37 38 38 56 41 5 7 25
CALL[ ]	/* CallFunction */";
};
width = 1605;
}
);
note = uni0637;
unicode = 1591;
}
{
glyphname = uni0639;
layers = (
{
anchors = (
{
name = bottom;
pos = (654,-826);
},
{
name = top;
pos = (695,1390);
}
);
layerId = m01;
shapes = (
{
closed = 1;
nodes = (
(642.333,-455,o),
(541.5,-445,o),
(443.5,-417,cs),
(394.5,-403,o),
(352.833,-385,o),
(318.5,-363,cs),
(249.833,-319,o),
(204,-247.667,o),
(204,-157,cs),
(204,-54.333,o),
(261.667,42.333,o),
(351,113,cs),
(395.667,148.333,o),
(447,180.333,o),
(505,209,cs),
(673.858,292.459,o),
(890.831,338.057,o),
(1056,340,c),
(1118,513,ls),
(1120,520.333,o),
(1121,526,o),
(1121,530,cs),
(1121,540.667,o),
(1115,546,o),
(1103,546,cs),
(1099,546,o),
(1095.667,545.667,o),
(1093,545,cs),
(951,527,ls),
(825.667,507,o),
(731.667,492.333,o),
(669,483,c),
(659,483,ls),
(629.667,483,o),
(592.333,500.667,o),
(547,536,cs),
(470.333,595.333,o),
(432,641.667,o),
(432,675,cs),
(432,706.333,o),
(456.333,743,o),
(505,785,cs),
(562.333,834.333,o),
(634.333,859,o),
(721,859,cs),
(793,859,o),
(878.333,839.333,o),
(977,800,c),
(1013,843,l),
(945,984.333,o),
(839,1055,o),
(695,1055,cs),
(581.667,1055,o),
(456.5,964.833,o),
(386.5,845.5,cs),
(351.5,785.833,o),
(334,727.667,o),
(334,671,cs),
(334,565,o),
(374.333,467,o),
(455,377,c),
(225,237,o),
(110,61,o),
(110,-151,cs),
(110,-329.667,o),
(166.667,-455.333,o),
(280,-530,cs),
(393.333,-604.667,o),
(542,-636,o),
(750,-636,cs),
(983.333,-636,o),
(1125.333,-578,o),
(1188,-446,cs),
(1192.667,-434,o),
(1195,-427,o),
(1195,-425,cs),
(1195,-424.333,o),
(1194.667,-423.667,o),
(1194,-423,c),
(1194,-422.333,o),
(1194,-422,o),
(1194,-422,c),
(1012,-444,o),
(867.667,-455,o),
(761,-455,cs)
);
}
);
userData = {
assembly = "NPUSHB[ ]	/* 84 values pushed */
27 26 2 5 3 18 1 6 4 2 1 0 6 3 74 0 5 3 4 3 5 4 126 0 4 6 3 4 6 124 0 6 0 3 6 0 124 0 2 0 3 5 2 3 103 7 1 0 1 1 0 87 7 1 0 0 1 96 0 1 0 1 80 1 0 49 48 44 41 37 36 30 28 25 23 12 10 0 60 1 60 8 7 20
CALL[ ]	/* CallFunction */";
};
width = 1305;
},
{
anchors = (
{
name = bottom;
pos = (644,-826);
},
{
name = top;
pos = (696,1429);
}
);
layerId = "01037D14-118B-4CC1-B98A-141C2A413BDA";
shapes = (
{
closed = 1;
nodes = (
(946.333,-639,o),
(1116.333,-549.667,o),
(1199,-375,cs),
(1213.281,-343.841,o),
(1217.423,-326.885,o),
(1200.5,-323.5,cs),
(1183.833,-320.167,o),
(1175.333,-322.333,o),
(1138,-329,cs),
(1011.333,-352.333,o),
(889.667,-364,o),
(773,-364,cs),
(615.328,-364,o),
(456.879,-338.716,o),
(350,-275,cs),
(280.667,-233.667,o),
(236,-169.667,o),
(236,-91,cs),
(236,39.667,o),
(347.333,142.833,o),
(514,199.5,cs),
(680.667,256.167,o),
(864.667,285.333,o),
(1054,288,c),
(1140,537,l),
(1150.667,579.667,o),
(1135.333,599.333,o),
(1094,594,cs),
(972.667,578.667,o),
(831,558,o),
(669,532,c),
(664,532,ls),
(629.333,532,o),
(456,650.667,o),
(456,676,cs),
(456,746.667,o),
(617.333,826,o),
(720,826,cs),
(796.667,826,o),
(885.667,805.667,o),
(987,765,c),
(1039,829,l),
(960.333,991.667,o),
(846.333,1073,o),
(697,1073,cs),
(561,1073,o),
(428.5,976.833,o),
(358.5,849.5,cs),
(323.5,785.833,o),
(306,722,o),
(306,658,cs),
(306,580.667,o),
(343.333,498.333,o),
(418,411,c),
(202,273,o),
(94,93,o),
(94,-129,cs),
(94,-462.333,o),
(326.333,-639,o),
(713,-639,cs)
);
}
);
userData = {
assembly = "NPUSHB[ ]	/* 74 values pushed */
13 1 2 1 19 14 2 3 2 5 1 4 3 3 74 0 3 2 4 2 3 4 126 0 4 5 2 4 5 124 0 1 0 2 3 1 2 103 0 5 0 0 5 87 0 5 5 0 96 6 1 0 5 0 80 1 0 41 39 30 29 22 21 17 15 12 10 0 49 1 49 7 7 20
CALL[ ]	/* CallFunction */";
};
width = 1305;
}
);
note = uni0639;
unicode = 1593;
}
{
glyphname = uni0640;
layers = (
{
anchors = (
{
name = bottom;
pos = (148,-195);
},
{
name = top;
pos = (149,1371);
}
);
layerId = m01;
shapes = (
{
closed = 1;
nodes = (
(-24.333,199,o),
(-36.667,192,o),
(-42,178,cs),
(-47.333,164,o),
(-50,139.333,o),
(-50,104,cs),
(-50,94,ls),
(-50,23.333,o),
(-45,0,o),
(-5,0,cs),
(284,0,ls),
(292.667,0,o),
(299.833,8.333,o),
(305.5,25,cs),
(311.167,41.667,o),
(314,65,o),
(314,95,cs),
(314,102,ls),
(314,132.667,o),
(311.167,156.5,o),
(305.5,173.5,cs),
(299.833,190.5,o),
(292.667,199,o),
(284,199,cs),
(-5,199,l),
(-5,199,l)
);
}
);
userData = {
assembly = "NPUSHB[ ]	/* 23 values pushed */
2 1 0 0 1 93 0 1 1 19 1 76 1 0 10 7 0 15 1 15 3 7 20
CALL[ ]	/* CallFunction */";
};
width = 279;
},
{
anchors = (
{
name = bottom;
pos = (148,-177);
},
{
name = top;
pos = (149,1391);
}
);
layerId = "01037D14-118B-4CC1-B98A-141C2A413BDA";
shapes = (
{
closed = 1;
nodes = (
(314,260.333,o),
(312.333,290.5,o),
(309,307.5,cs),
(305.667,324.5,o),
(297.667,333,o),
(285,333,cs),
(-5,333,ls),
(-25,333,o),
(-37.5,324.833,o),
(-42.5,308.5,cs),
(-47.5,292.167,o),
(-50,262.333,o),
(-50,219,cs),
(-50,113,ls),
(-50,70.333,o),
(-47.5,40.833,o),
(-42.5,24.5,cs),
(-37.5,8.167,o),
(-25,0,o),
(-5,0,cs),
(285,0,ls),
(297.667,0,o),
(305.667,8.333,o),
(309,25,cs),
(312.333,41.667,o),
(314,71.333,o),
(314,114,cs),
(314,217,l),
(314,217,l)
);
}
);
userData = {
assembly = "NPUSHB[ ]	/* 16 values pushed */
0 1 1 0 93 0 0 0 20 0 76 37 50 2 7 22
CALL[ ]	/* CallFunction */";
};
width = 279;
}
);
note = uni0640;
unicode = 1600;
}
{
glyphname = uni0643;
layers = (
{
anchors = (
{
name = bottom;
pos = (886,-267);
},
{
name = top;
pos = (969,1412);
}
);
layerId = m01;
shapes = (
{
closed = 1;
nodes = (
(1031.667,-57,o),
(1149.167,-52.167,o),
(1284.5,-31.5,cs),
(1419.833,-10.833,o),
(1496.167,26.333,o),
(1575.5,89,cs),
(1654.833,151.667,o),
(1694.167,240.5,o),
(1717.5,366.5,cs),
(1729.167,429.5,o),
(1734.667,502.333,o),
(1734,585,cs),
(1724,1505,ls),
(1724,1525.667,o),
(1720.333,1536,o),
(1713,1536,cs),
(1709,1536,o),
(1700.667,1529.667,o),
(1688,1517,cs),
(1576,1400,l),
(1583.18,1355.126,o),
(1592.397,1240.607,o),
(1600,1048,cs),
(1604,946.667,o),
(1605.833,897.333,o),
(1610.5,760,cs),
(1612.833,691.333,o),
(1615,634.333,o),
(1617,589,cs),
(1619.667,482.333,o),
(1621,427.333,o),
(1621,424,cs),
(1621,344,o),
(1587.833,283.167,o),
(1520.5,242.5,cs),
(1486.833,222.167,o),
(1448.5,205.167,o),
(1405.5,191.5,cs),
(1319.5,164.167,o),
(1187.333,150.333,o),
(1062,145,cs),
(999.333,142.333,o),
(927,141,o),
(845,141,cs),
(639.667,141,o),
(483.833,163.333,o),
(377.5,208,cs),
(271.167,252.667,o),
(218,316,o),
(218,398,cs),
(218,454.667,o),
(236.333,530,o),
(273,624,c),
(214,647,l),
(147.333,547,o),
(110,426.667,o),
(110,324,cs),
(110,70,o),
(353.667,-57,o),
(841,-57,cs)
);
},
{
closed = 1;
nodes = (
(1195,853,o),
(1140,916.667,o),
(1030,936,cs),
(927.333,954,o),
(876,978.333,o),
(876,1009,cs),
(876,1061.667,o),
(959.667,1096,o),
(1127,1112,c),
(1164,1218,ls),
(1166,1224,o),
(1167,1229,o),
(1167,1233,cs),
(1167,1246.333,o),
(1157,1253,o),
(1137,1253,cs),
(1130.333,1253,o),
(1125,1252.667,o),
(1121,1252,cs),
(906.333,1226.667,o),
(799,1149,o),
(799,1019,cs),
(799,909.667,o),
(856,843,o),
(970,819,cs),
(1062,799,o),
(1108,773.667,o),
(1108,743,cs),
(1108,691,o),
(1048.333,665,o),
(929,665,cs),
(852.333,665,o),
(779.333,677.333,o),
(710,702,c),
(696,561,l),
(766,537.667,o),
(843,526,o),
(927,526,cs),
(1080.333,526,o),
(1195,605,o),
(1195,745,cs)
);
}
);
userData = {
assembly = "NPUSHB[ ]	/* 59 values pushed */
62 48 2 3 4 47 6 5 3 2 3 2 74 33 1 4 72 0 4 3 4 131 0 3 0 2 1 3 2 103 0 1 1 0 96 5 1 0 0 24 0 76 1 0 61 58 51 49 46 44 13 10 0 41 1 40 6 7 20
CALL[ ]	/* CallFunction */";
};
width = 1894;
},
{
anchors = (
{
name = bottom;
pos = (876,-267);
},
{
name = top;
pos = (966,1444);
}
);
layerId = "01037D14-118B-4CC1-B98A-141C2A413BDA";
shapes = (
{
closed = 1;
nodes = (
(1012.998,1275.111,o),
(916.862,1245.385,o),
(860,1198,cs),
(820,1164.667,o),
(794,1111.667,o),
(794,1049,cs),
(794,937,o),
(852.333,868.667,o),
(969,844,cs),
(1014.333,834,o),
(1048,823,o),
(1070,811,cs),
(1092,799,o),
(1103,786.333,o),
(1103,773,cs),
(1103,724.333,o),
(1045,700,o),
(929,700,cs),
(852.333,700,o),
(780,712.333,o),
(712,737,cs),
(706,739,l),
(705,732,l),
(691,591,l),
(691,588,l),
(694,586,l),
(764.667,562.667,o),
(842.333,551,o),
(927,551,cs),
(1083,551,o),
(1200,631,o),
(1200,775,cs),
(1200,885.667,o),
(1141.667,951,o),
(1031,971,cs),
(931,988.333,o),
(881,1011,o),
(881,1039,cs),
(881,1088.333,o),
(963,1121,o),
(1127,1137,cs),
(1131,1137,l),
(1132,1140,l),
(1169,1246,ls),
(1171,1252.667,o),
(1172,1258.333,o),
(1172,1263,cs),
(1172,1279.667,o),
(1160.333,1288,o),
(1137,1288,cs),
(1130.333,1288,o),
(1124.667,1287.667,o),
(1120,1287,cs)
);
},
{
closed = 1;
nodes = (
(1562.667,1132.667,o),
(1585,860.667,o),
(1585,542,cs),
(1585,476.667,o),
(1569.833,425.167,o),
(1526.5,388.5,cs),
(1483.167,351.833,o),
(1450.167,325,o),
(1369.5,309,cs),
(1176.011,270.622,o),
(1096.799,275,o),
(850,275,cs),
(642.667,275,o),
(490.833,292.667,o),
(394.5,328,cs),
(298.167,363.333,o),
(250,423.667,o),
(250,509,cs),
(250,558.333,o),
(268,628,o),
(304,718,c),
(213,755,l),
(135.667,638.333,o),
(97,518.667,o),
(97,396,cs),
(97,226.667,o),
(158.167,111.5,o),
(285.5,41.5,cs),
(412.833,-28.5,o),
(584.333,-57,o),
(831,-57,cs),
(979,-57,o),
(1084.167,-53,o),
(1199.5,-41,cs),
(1257.167,-35,o),
(1307.5,-26.833,o),
(1350.5,-16.5,cs),
(1436.5,4.167,o),
(1524.5,37.167,o),
(1582.5,84.5,cs),
(1640.5,131.833,o),
(1692.667,195.5,o),
(1722,277.5,cs),
(1751.333,359.5,o),
(1768,462.333,o),
(1768,589,cs),
(1768,605,l),
(1759,1504,ls),
(1759,1553.867,o),
(1753.738,1589.345,o),
(1732,1576.5,cs),
(1717.333,1567.833,o),
(1706.667,1558.333,o),
(1680,1529,cs),
(1518,1358,l),
(1518,1358,l)
);
}
);
userData = {
assembly = "NPUSHB[ ]	/* 47 values pushed */
68 67 24 4 4 2 0 21 1 1 2 2 74 0 0 2 0 131 0 2 0 1 4 2 1 103 0 4 4 3 95 0 3 3 19 3 76 76 72 61 58 39 47 48 5 7 23
CALL[ ]	/* CallFunction */";
};
width = 1894;
}
);
note = uni0643;
unicode = 1603;
}
{
glyphname = uni0644;
layers = (
{
anchors = (
{
name = bottom;
pos = (646,-790);
},
{
name = top;
pos = (596,1034);
}
);
layerId = m01;
shapes = (
{
closed = 1;
nodes = (
(1219,1538.528,o),
(1205.244,1544.327,o),
(1174,1511,cs),
(1061,1389,l),
(1071.667,1336.333,o),
(1082.333,1195.5,o),
(1093,966.5,cs),
(1103.667,737.5,o),
(1119,352.333,o),
(1139,-189,c),
(1039,-322.333,o),
(865,-401,o),
(629,-401,cs),
(349.667,-401,o),
(210,-298.667,o),
(210,-94,cs),
(210,-29.333,o),
(227,61.333,o),
(261,178,c),
(204,202,l),
(141.333,59.333,o),
(110,-68.333,o),
(110,-181,cs),
(110,-459.667,o),
(281,-599,o),
(623,-599,cs),
(799,-599,o),
(951.333,-551.833,o),
(1062,-464.5,cs),
(1172.667,-377.167,o),
(1239,-239,o),
(1239,-71,cs),
(1239,-69,o),
(1238.833,-66,o),
(1238.5,-62,cs),
(1238.167,-58,o),
(1238,-55,o),
(1238,-53,cs),
(1219,1491,l),
(1219,1491,l)
);
}
);
userData = {
assembly = "NPUSHB[ ]	/* 28 values pushed */
24 21 14 13 4 1 72 0 1 0 0 1 87 0 1 1 0 95 0 0 1 0 79 39 40 2 7 22
CALL[ ]	/* CallFunction */";
};
width = 1399;
},
{
anchors = (
{
name = bottom;
pos = (646,-790);
},
{
name = top;
pos = (596,1034);
}
);
layerId = "01037D14-118B-4CC1-B98A-141C2A413BDA";
shapes = (
{
closed = 1;
nodes = (
(1235,1553.982,o),
(1229.687,1589.505,o),
(1207.5,1576,cs),
(1192.167,1566.667,o),
(1184,1558.333,o),
(1156,1529,cs),
(994,1358,l),
(1030.667,1139.333,o),
(1071,644.333,o),
(1115,-127,c),
(1033.667,-234.333,o),
(874.667,-288,o),
(638,-288,cs),
(372.667,-288,o),
(240,-198.333,o),
(240,-19,cs),
(240,66.333,o),
(257.667,127,o),
(295,223,c),
(205,261,l),
(133.667,97,o),
(98,-43.667,o),
(98,-161,cs),
(98,-453.667,o),
(273.667,-600,o),
(625,-600,cs),
(809,-600,o),
(964.833,-548.833,o),
(1081.5,-449.5,cs),
(1198.167,-350.167,o),
(1266,-186.333,o),
(1262,19,cs),
(1235,1504,l),
(1235,1504,l)
);
}
);
userData = {
assembly = "NPUSHB[ ]	/* 28 values pushed */
20 18 11 10 4 1 72 0 1 0 0 1 87 0 1 1 0 95 0 0 1 0 79 40 37 2 7 22
CALL[ ]	/* CallFunction */";
};
width = 1399;
}
);
note = uni0644;
unicode = 1604;
}
{
glyphname = uni0645;
layers = (
{
anchors = (
{
name = bottom;
pos = (215,-858);
},
{
name = top;
pos = (583,1033);
}
);
layerId = m01;
shapes = (
{
closed = 1;
nodes = (
(423.333,388,o),
(485.333,466,o),
(566,466,cs),
(687.333,466,o),
(786,362.667,o),
(854,184,c),
(856.667,174.667,o),
(853,171.333,o),
(845,174,cs),
(691,212.667,o),
(536,232,o),
(380,232,c)
);
},
{
closed = 1;
nodes = (
(911.667,92,o),
(946,140,o),
(946,180,cs),
(946,310.667,o),
(877.5,470.167,o),
(763.5,573.5,cs),
(706.5,625.167,o),
(647,651,o),
(585,651,cs),
(446.333,651,o),
(352.667,510.333,o),
(304,229,c),
(170.667,160.333,o),
(106,20.667,o),
(110,-190,cs),
(120,-721,ls),
(120,-725.667,o),
(120.333,-730,o),
(121,-734,cs),
(123,-758.667,o),
(130.333,-765.333,o),
(143,-754,cs),
(149,-748.667,o),
(164,-726.333,o),
(188,-687,cs),
(225.333,-629,o),
(243.333,-577,o),
(242,-531,cs),
(235,30,l),
(261,42,o),
(306,48,o),
(370,48,cs),
(452,48,o),
(570.333,37.333,o),
(725,16,cs),
(740.333,14,o),
(754,13,o),
(766,13,cs),
(798.667,13,o),
(824.333,20.667,o),
(843,36,cs)
);
}
);
userData = {
assembly = "NPUSHB[ ]	/* 39 values pushed */
18 2 2 2 0 1 74 25 1 2 71 0 4 0 1 0 4 1 103 0 0 0 2 95 3 1 2 2 19 2 76 46 35 18 38 16 5 7 25
CALL[ ]	/* CallFunction */";
};
width = 1056;
},
{
anchors = (
{
name = bottom;
pos = (215,-858);
},
{
name = top;
pos = (583,1033);
}
);
layerId = "01037D14-118B-4CC1-B98A-141C2A413BDA";
shapes = (
{
closed = 1;
nodes = (
(423.667,403.333,o),
(445.833,448.667,o),
(494.5,494,cs),
(518.833,516.667,o),
(543.667,528,o),
(569,528,cs),
(683.667,528,o),
(773.333,441,o),
(832,317,c),
(692,345.667,o),
(551,360.667,o),
(409,362,c)
);
},
{
closed = 1;
nodes = (
(929.667,104,o),
(969,188.667,o),
(969,294,cs),
(969,450,o),
(889.833,615.667,o),
(770.5,713,cs),
(710.833,761.667,o),
(649.667,786,o),
(587,786,cs),
(441,786,o),
(342,643.333,o),
(290,358,c),
(159.333,286,o),
(94,126.667,o),
(94,-120,cs),
(94,-148,l),
(104,-673,ls),
(105.333,-732.333,o),
(110.333,-762,o),
(119,-762,cs),
(129,-762,o),
(148.333,-740.333,o),
(177,-697,cs),
(257,-574.333,o),
(292.667,-479.667,o),
(286,-377,cs),
(258,36,l),
(292,46.667,o),
(335.667,52,o),
(389,52,cs),
(443,52,o),
(553.667,40.333,o),
(721,17,cs),
(737,14.333,o),
(753.333,13,o),
(770,13,cs),
(802.667,13,o),
(829.667,22,o),
(851,40,cs)
);
}
);
userData = {
assembly = "NPUSHB[ ]	/* 41 values pushed */
17 2 2 2 0 1 74 0 4 2 4 132 0 5 0 1 0 5 1 103 0 0 0 2 95 3 1 2 2 20 2 76 38 38 34 36 35 16 6 7 26
CALL[ ]	/* CallFunction */";
};
width = 1056;
}
);
note = uni0645;
unicode = 1605;
}
{
glyphname = uni0647;
layers = (
{
anchors = (
{
name = bottom;
pos = (381,-234);
},
{
name = top;
pos = (340,1041);
}
);
layerId = m01;
shapes = (
{
closed = 1;
nodes = (
(196,383.667,o),
(237.333,470,o),
(320,574,c),
(406.667,536.667,o),
(449.5,516.833,o),
(519.5,473.5,cs),
(589.5,430.167,o),
(625,382.667,o),
(625,332,cs),
(625,273.333,o),
(567.667,228.333,o),
(501,211,cs),
(467.667,202.333,o),
(433.333,198,o),
(398,198,cs),
(263.333,198,o),
(196,237,o),
(196,315,cs)
);
},
{
closed = 1;
nodes = (
(580,2,o),
(706,120.333,o),
(706,339,cs),
(706,448.333,o),
(660.5,552.5,o),
(602.5,618.5,cs),
(573.5,651.5,o),
(542.333,680.333,o),
(509,705,cs),
(442.333,754.333,o),
(385.667,776,o),
(355,776,cs),
(328.284,776,o),
(263.651,696.26,o),
(214.5,617.5,cs),
(159.167,528.833,o),
(110,403.667,o),
(110,313,cs),
(110,101,o),
(192,2,o),
(396,2,cs)
);
}
);
userData = {
assembly = "NPUSHB[ ]	/* 35 values pushed */
11 1 0 2 1 74 0 2 0 2 131 0 0 0 1 96 3 1 1 1 19 1 76 14 13 22 20 13 29 14 29 33 4 7 21
CALL[ ]	/* CallFunction */";
};
width = 816;
},
{
anchors = (
{
name = bottom;
pos = (385,-212);
},
{
name = top;
pos = (340,1145);
}
);
layerId = "01037D14-118B-4CC1-B98A-141C2A413BDA";
shapes = (
{
closed = 1;
nodes = (
(405.667,587.333,o),
(473.667,553.667,o),
(527,517,cs),
(580.333,480.333,o),
(607,449.333,o),
(607,424,cs),
(607,381.333,o),
(548.833,352.5,o),
(489.5,342.5,cs),
(459.833,337.5,o),
(429,335,o),
(397,335,cs),
(271.667,335,o),
(209,362.333,o),
(209,417,cs),
(209,462.333,o),
(245.667,536.667,o),
(323,618,c)
);
},
{
closed = 1;
nodes = (
(621.667,5,o),
(734,151,o),
(734,443,cs),
(734,557.667,o),
(686.5,669.167,o),
(624.5,740.5,cs),
(593.5,776.167,o),
(560.167,807.333,o),
(524.5,834,cs),
(453.167,887.333,o),
(391.667,912,o),
(357,912,cs),
(297.347,912,o),
(197.552,760.597,o),
(135,597,cs),
(100.333,506.333,o),
(83,424,o),
(83,350,cs),
(83,111.333,o),
(171.667,5,o),
(397,5,cs)
);
}
);
userData = {
assembly = "NPUSHB[ ]	/* 29 values pushed */
0 2 0 2 131 0 0 0 1 96 3 1 1 1 20 1 76 13 12 20 18 12 26 13 26 36 4 7 21
CALL[ ]	/* CallFunction */";
};
width = 816;
}
);
note = uni0647;
unicode = 1607;
}
{
glyphname = uni0648;
layers = (
{
anchors = (
{
name = bottom;
pos = (351,-713);
},
{
name = top;
pos = (414,1030);
}
);
layerId = m01;
shapes = (
{
closed = 1;
nodes = (
(263.402,635,o),
(157,409.087,o),
(157,230,cs),
(157,60.667,o),
(255.333,-24,o),
(452,-24,cs),
(493.333,-24,o),
(540.667,-18.667,o),
(594,-8,c),
(516.667,-214.667,o),
(323,-363.667,o),
(13,-455,cs),
(1.667,-457.667,o),
(-1.333,-464,o),
(4,-474,cs),
(11.333,-487.333,o),
(33.667,-499.333,o),
(71,-510,cs),
(147,-532.667,o),
(207.333,-544,o),
(252,-544,cs),
(324,-544,o),
(412.333,-493.333,o),
(491,-404,cs),
(530.333,-359.333,o),
(566.333,-309,o),
(599,-253,cs),
(664.333,-141,o),
(707,6.667,o),
(707,144,cs),
(707,260,o),
(680.667,378,o),
(634,474,cs),
(587.333,570,o),
(508.333,635,o),
(415,635,cs)
);
},
{
closed = 1;
nodes = (
(255,347,o),
(319,443,o),
(407,443,cs),
(481.667,443,o),
(540.333,382.833,o),
(567,311.5,cs),
(580.333,275.833,o),
(589.333,237,o),
(594,195,c),
(518,184.333,o),
(458.333,179,o),
(415,179,cs),
(303,179,o),
(255,199,o),
(255,267,cs)
);
}
);
userData = {
assembly = "NPUSHB[ ]	/* 52 values pushed */
33 1 3 4 19 1 2 3 2 74 0 1 2 1 132 5 1 0 0 4 3 0 4 103 0 3 3 2 95 0 2 2 19 2 76 1 0 38 36 32 30 22 20 12 10 0 27 1 27 6 7 20
CALL[ ]	/* CallFunction */";
};
width = 807;
},
{
anchors = (
{
name = bottom;
pos = (341,-713);
},
{
name = top;
pos = (414,1030);
}
);
layerId = "01037D14-118B-4CC1-B98A-141C2A413BDA";
shapes = (
{
closed = 1;
nodes = (
(500.667,-24,o),
(534,-21.333,o),
(568,-16,c),
(451.333,-213.333,o),
(262.667,-354.667,o),
(2,-440,cs),
(0.667,-440.667,o),
(-1.333,-441.333,o),
(-4,-442,cs),
(-20.667,-447.333,o),
(-32,-451.667,o),
(-38,-455,cs),
(-44,-458.333,o),
(-47,-463.333,o),
(-47,-470,cs),
(-47,-500.241,o),
(32.079,-523.653,o),
(144,-538.5,cs),
(209.333,-547.167,o),
(263.667,-551,o),
(293,-551,cs),
(421,-551,o),
(467.333,-532,o),
(530,-460,cs),
(658,-312,o),
(734,-94.667,o),
(734,164,cs),
(734,324.208,o),
(702.033,485.035,o),
(630.5,597,cs),
(584.5,669,o),
(511.667,716,o),
(429,716,cs),
(354.333,716,o),
(288.833,667.833,o),
(245.5,596.5,cs),
(223.833,560.833,o),
(205.167,520.667,o),
(189.5,476,cs),
(158.167,386.667,o),
(144,293.667,o),
(144,211,cs),
(144,120.333,o),
(173.5,58.667,o),
(231.5,24,cs),
(289.5,-10.667,o),
(362.667,-24,o),
(468,-24,cs)
);
},
{
closed = 1;
nodes = (
(270,398.667,o),
(336.667,468,o),
(402,468,cs),
(483.333,468,o),
(540.333,414.667,o),
(583,304,c),
(518.333,298.667,o),
(463.667,296,o),
(419,296,cs),
(367.667,296,o),
(330,299.167,o),
(306,305.5,cs),
(282,311.833,o),
(270,324.667,o),
(270,344,cs)
);
}
);
userData = {
assembly = "NPUSHB[ ]	/* 52 values pushed */
43 1 3 4 36 1 0 3 2 74 0 2 0 2 132 0 1 0 4 3 1 4 103 0 3 3 0 95 5 1 0 0 20 0 76 1 0 47 45 42 40 24 22 12 10 0 37 1 37 6 7 20
CALL[ ]	/* CallFunction */";
};
width = 807;
}
);
note = uni0648;
unicode = 1608;
}
{
glyphname = uni0649;
layers = (
{
anchors = (
{
name = bottom;
pos = (710,-784);
},
{
name = top;
pos = (659,869);
}
);
layerId = m01;
shapes = (
{
closed = 1;
nodes = (
(955.667,-585,o),
(1177.167,-508,o),
(1300.5,-356,cs),
(1362.167,-280,o),
(1393,-190,o),
(1393,-86,cs),
(1393,-14.667,o),
(1354.333,30.667,o),
(1277,50,cs),
(905,143,l),
(927.667,324.333,o),
(1101,460,o),
(1317,460,cs),
(1331.667,460,o),
(1356.333,458.667,o),
(1391,456,cs),
(1437,452,l),
(1475,651,l),
(1429,666.333,o),
(1380.667,674,o),
(1330,674,cs),
(1142.649,674,o),
(940.628,547.279,o),
(846.5,312.5,cs),
(817.5,240.167,o),
(803,165,o),
(803,87,cs),
(803,9,o),
(831.333,-37,o),
(888,-51,cs),
(1226,-133,ls),
(1272,-144.333,o),
(1295,-158.333,o),
(1295,-175,cs),
(1295,-215.168,o),
(1206.664,-281.305,o),
(1079.5,-330.5,cs),
(988.167,-365.833,o),
(843,-393,o),
(687,-393,cs),
(369,-393,o),
(210,-283.333,o),
(210,-64,cs),
(210,0.667,o),
(227,91.333,o),
(261,208,c),
(204,232,l),
(141.333,90.667,o),
(110,-37,o),
(110,-151,cs),
(110,-440.333,o),
(297.667,-585,o),
(673,-585,cs)
);
}
);
userData = {
assembly = "NPUSHB[ ]	/* 52 values pushed */
26 1 3 2 33 5 4 3 1 3 2 74 0 2 0 3 1 2 3 103 0 1 0 0 1 87 0 1 1 0 95 4 1 0 1 0 79 1 0 31 29 25 23 10 8 0 39 1 39 5 7 20
CALL[ ]	/* CallFunction */";
};
width = 1553;
},
{
anchors = (
{
name = bottom;
pos = (710,-784);
},
{
name = top;
pos = (659,869);
}
);
layerId = "01037D14-118B-4CC1-B98A-141C2A413BDA";
shapes = (
{
closed = 1;
nodes = (
(385.333,-286,o),
(241,-192.667,o),
(241,-2,cs),
(241,80.667,o),
(258,169.333,o),
(292,264,c),
(202,302,l),
(128,158,o),
(91,21,o),
(91,-109,cs),
(91,-427.667,o),
(295,-584,o),
(671,-584,cs),
(893.667,-584,o),
(1071.333,-537.833,o),
(1206,-442.5,cs),
(1340.667,-347.167,o),
(1417,-188,o),
(1417,20,cs),
(1417,112,o),
(1370.667,169.333,o),
(1278,192,cs),
(940,278,l),
(972,386,o),
(1134.333,468,o),
(1321,468,cs),
(1346.333,468,o),
(1371.333,466.667,o),
(1396,464,cs),
(1443,458,l),
(1495,747,l),
(1443.667,763,o),
(1393.667,771,o),
(1345,771,cs),
(1214.333,771,o),
(1070,696.667,o),
(962,586,cs),
(854,475.333,o),
(778,313.333,o),
(778,156,cs),
(778,73.333,o),
(813,24,o),
(883,8,cs),
(1213,-70,ls),
(1251,-79.333,o),
(1269.667,-89.333,o),
(1269,-100,cs),
(1266.434,-130.795,o),
(1176.034,-188.188,o),
(1059,-230.5,cs),
(972.333,-261.833,o),
(834.667,-286,o),
(692,-286,cs)
);
}
);
userData = {
assembly = "NPUSHB[ ]	/* 53 values pushed */
18 1 2 1 39 38 25 3 0 2 2 74 0 1 0 2 0 1 2 103 4 1 0 3 3 0 87 4 1 0 0 3 95 0 3 0 3 79 1 0 34 32 23 21 17 15 0 43 1 43 5 7 20
CALL[ ]	/* CallFunction */";
};
width = 1553;
}
);
note = uni0649;
unicode = 1609;
}
